<?xml version="1.0" encoding="utf-8"?>
<!-- Generator: Adobe Illustrator 19.0.0, SVG Export Plug-In . SVG Version: 6.00 Build 0)  -->
<svg version="1.1" xmlns="http://www.w3.org/2000/svg" xmlns:xlink="http://www.w3.org/1999/xlink" x="0px" y="0px"
	 viewBox="0 0 100 100" width="30" height="30" style="enable-background:new 0 0 100 100;" xml:space="preserve">
<style type="text/css">
	.st0{display:none;}
	.st1{display:inline;stroke:#FFFFFF;stroke-width:4;stroke-miterlimit:10;}
	.st2{fill:#FFFFFF;}
	.st3{fill:#FFFFFF;stroke:#ffffff;stroke-miterlimit:10;}
	.st4{fill:#FFFFFF;stroke:#FFFFFF;stroke-width:2;stroke-miterlimit:10;}
	.st5{fill:none;stroke:#FFFFFF;stroke-width:4;stroke-miterlimit:10;}
</style>
<g id="Layer_2" class="st0">
	<rect id="XMLID_7_" x="-23.5" y="-20.5" class="st1" width="203.5" height="172.5"/>
</g>
<g id="Layer_1">
	<path id="XMLID_6_" class="st2" d="M51.2,55.6c0-3.2,1-5.9,3.1-8.1c2-2.3,4.7-3.7,8-4.2v-5.4c0-0.3,0.1-0.5,0.3-0.7
		c0.2-0.2,0.4-0.3,0.7-0.3h4.2c0.3,0,0.5,0.1,0.7,0.3s0.3,0.4,0.3,0.7v5.4c1.4,0.2,2.7,0.5,3.9,1c1.3,0.5,2.3,0.9,3.1,1.4
		c0.8,0.5,1.6,1,2.3,1.5s1.2,0.9,1.4,1.2c0.3,0.3,0.4,0.4,0.5,0.6c0.3,0.4,0.4,0.9,0.1,1.3l-3.2,4.2c-0.1,0.2-0.4,0.3-0.7,0.4
		c-0.3,0-0.6-0.1-0.7-0.3l-0.1-0.1c-2.3-2-4.8-3.3-7.5-3.9c-0.8-0.2-1.5-0.3-2.3-0.3c-1.7,0-3.1,0.4-4.4,1.3s-1.9,2.1-1.9,3.8
		c0,0.6,0.2,1.1,0.5,1.6c0.3,0.5,0.7,0.9,1,1.3c0.4,0.3,1,0.7,1.8,1.2c0.8,0.4,1.5,0.8,2,1c0.5,0.2,1.4,0.6,2.5,1
		c0.8,0.3,1.4,0.6,1.9,0.8c0.5,0.2,1.1,0.5,1.9,0.8c0.8,0.4,1.4,0.7,1.9,1c0.5,0.3,1.1,0.6,1.7,1.1c0.7,0.5,1.2,0.9,1.7,1.3
		c0.4,0.4,0.9,0.9,1.3,1.5c0.5,0.6,0.8,1.2,1.1,1.8c0.3,0.6,0.5,1.3,0.7,2.1c0.2,0.8,0.3,1.6,0.3,2.4c0,2.8-1,5.3-3,7.5
		c-2,2.1-4.6,3.5-7.9,4.1v5.6c0,0.3-0.1,0.5-0.3,0.7c-0.2,0.2-0.4,0.3-0.7,0.3h-4.2c-0.3,0-0.5-0.1-0.7-0.3s-0.3-0.4-0.3-0.7v-5.4
		c-1.2-0.1-2.3-0.4-3.4-0.7c-1.1-0.3-2-0.7-2.7-1s-1.3-0.7-2-1.2c-0.6-0.4-1-0.7-1.2-0.9c-0.2-0.2-0.3-0.3-0.5-0.4
		c-0.3-0.4-0.4-0.8-0.2-1.2l2.5-4.5c0.2-0.3,0.4-0.5,0.7-0.5c0.3-0.1,0.6,0,0.8,0.2c0.1,0.1,0.2,0.2,0.4,0.4
		c0.2,0.2,0.6,0.5,1.2,0.8s1.2,0.7,1.8,1c0.6,0.3,1.4,0.6,2.3,0.8c0.9,0.2,1.8,0.4,2.6,0.4c2,0,3.5-0.4,4.8-1.3
		c1.2-0.9,1.9-2,1.9-3.4c0-0.5-0.1-1-0.3-1.5c-0.2-0.5-0.5-0.9-0.9-1.3c-0.4-0.4-0.8-0.7-1.2-1c-0.4-0.3-1-0.6-1.7-1
		c-0.8-0.4-1.4-0.6-1.9-0.8c-0.5-0.2-1.2-0.5-2.2-0.8c-1.1-0.4-1.9-0.7-2.5-1c-0.6-0.2-1.4-0.6-2.4-1.1c-1-0.5-1.8-0.9-2.3-1.3
		c-0.6-0.4-1.2-0.9-1.9-1.5c-0.7-0.6-1.3-1.3-1.6-2c-0.4-0.7-0.7-1.5-1-2.4C51.4,57.6,51.2,56.6,51.2,55.6z"/>
	<g id="XMLID_10_">
		<path id="XMLID_5_" class="st2" d="M83.4,24.3l1.5,3.4l-4.8,2.1l-1.5-3.4c-0.6-1.3,0-2.9,1.3-3.5C81.3,22.3,82.8,22.9,83.4,24.3z"
			/>
		<line id="XMLID_4_" class="st3" x1="57.4" y1="17.2" x2="74.2" y2="9.9"/>
		<line id="XMLID_3_" class="st4" x1="73.5" y1="8" x2="80.3" y2="23.3"/>
		<path id="XMLID_2_" class="st2" d="M81.2,1.9L69,14.5l-0.3,0.3l-3.4,3.5l2.8,5.3c0.1,0.1,0.1,0.2,0.2,0.4c2,5-4.4,13.3-16.5,19.6
			c-12.1,6.3-23.8,7.6-26.3,2.8c-0.1-0.1-0.1-0.2-0.2-0.4l0,0l-2.8-5.3l0,0L0,44.5L33.5,10L81.2,1.9z"/>
	</g>
	<circle id="XMLID_1_" class="st5" cx="65.6" cy="64.5" r="32.4"/>
</g>
</svg>
