<svg xmlns="http://www.w3.org/2000/svg" width="30.001" height="30.001" viewBox="0 0 95 95">
  <defs>
    <style>
      .cls-1 {
        fill: #fbfeff;
      }

      .cls-1, .cls-2 {
        fill-rule: evenodd;
      }

      .cls-2 {
        fill: #fff;
      }
    </style>
  </defs>
  <path class="cls-1" d="M47.538,52.992A20.641,20.641,0,0,1,32.39,46.715a20.641,20.641,0,0,1-6.277-15.148A20.643,20.643,0,0,1,32.39,16.419a20.641,20.641,0,0,1,15.148-6.277,20.643,20.643,0,0,1,15.148,6.277,20.643,20.643,0,0,1,6.277,15.148,20.641,20.641,0,0,1-6.277,15.148A20.643,20.643,0,0,1,47.538,52.992ZM69.8,10.414a30.027,30.027,0,0,0-22.035-9.13,30.025,30.025,0,0,0-22.035,9.13A30.027,30.027,0,0,0,16.6,32.448a25.612,25.612,0,0,0,2.009,10.9s29.5,51.551,29.156,51.435C47.5,94.69,76.923,43.344,76.923,43.344a25.612,25.612,0,0,0,2.009-10.9A30.027,30.027,0,0,0,69.8,10.414Z"/>
  <path id="_" data-name="!" class="cls-2" d="M41.642,14.506l4.011,24.341h2.671L53.056,14.7Zm2.085,28.552v5.149l6.394,0.07V43.058H43.727Z"/>
</svg>
