<?xml version="1.0" standalone="no"?>
<!DOCTYPE svg PUBLIC "-//W3C//DTD SVG 1.1//EN" "http://www.w3.org/Graphics/SVG/1.1/DTD/svg11.dtd" >
<svg xmlns="http://www.w3.org/2000/svg">
<metadata></metadata>
<defs>
<font id="zitzregular" horiz-adv-x="804" >
<font-face units-per-em="2048" ascent="1638" descent="-410" />
<missing-glyph horiz-adv-x="358" />
<glyph horiz-adv-x="2048" />
<glyph horiz-adv-x="2048" />
<glyph unicode="&#xd;" horiz-adv-x="358" />
<glyph unicode=" "  horiz-adv-x="358" />
<glyph unicode="&#x09;" horiz-adv-x="358" />
<glyph unicode="&#xa0;" horiz-adv-x="358" />
<glyph unicode="!" horiz-adv-x="419" d="M72 -8v98q27 39 82 39q37 0 96 -18q20 -41 20 -78q0 -82 -80 -121q-88 0 -118 80zM106 467q0 86 35 176q35 80 70 162q16 41 16 166q0 141 64 192h39l39 -41q0 -92 -31 -237q-41 -186 -47 -238q-23 -39 -23 -164q0 -152 -98 -174q2 12 -12 19q-12 2 -27 0q-25 66 -25 139 z" />
<glyph unicode="&#x22;" horiz-adv-x="536" d="M63 1182q0 57 33 86q35 10 56 10q31 0 51 -23q-4 -35 -4 -75q0 -33 4 -98.5t4 -98.5q0 -115 -45 -190q-41 -12 -45 -13q-12 0 -20.5 25.5t-18.5 25.5q-4 0 -8 -2q6 53 6 113q0 41 -6.5 120t-6.5 120zM317 891q-2 -57 31 -86q35 -12 53 -12q33 0 54 22q-4 35 -4 76 q2 33 7 97t5 97q2 115 -41 193q-16 6 -43 12q-14 0 -22.5 -24.5t-18.5 -24.5q-4 0 -8 2q6 -53 4 -115q0 -39 -8.5 -118.5t-8.5 -118.5z" />
<glyph unicode="#" horiz-adv-x="878" d="M-2 737q0 18 4 43q23 29 87.5 41.5t86.5 38.5v12q-4 45 6 127q12 90 13 129q0 57 -19 107q14 27 43 27q14 0 70 -21q16 -86 16 -194q0 -33 -6 -91q-6 -68 -8 -92l12 -2q51 0 41 2q53 25 105 29q25 16 59 22q29 6 39 20.5t10 74.5q0 47 -15.5 137t-15.5 135q0 59 21 111 l86 -19q-12 -178 -12 -196q0 -109 43 -203l22 -2q14 0 43 5t43 5q53 0 98 -57q0 -55 -14 -74q-6 -10 -35 -14q-35 -6 -61 -25l-51 12q-59 -27 -60 -180q0 -102 58 -137q6 -4 108 -33q60 -19 62 -74q-27 -12 -132 -12q-88 0 -88 -115q0 -51 21.5 -151t19.5 -154v-24l-55 -43 l-59 12q2 29 10 102q6 66 6 103q0 145 -94 203q-18 -25 -92 -31q-84 -8 -107 -23v-28q12 -57 21 -174q16 -14 16 -60q0 -102 -39 -135l-110 25l8 323q0 25 -62 29q-70 2 -86 20l4 58l134 34q-8 10 -9 25q0 14 6.5 44t6.5 44q10 12 10 33q0 113 -51 180l-13 2q-68 2 -73 -24 q-45 10 -56 18q-16 12 -16 55zM283 528q0 -74 26 -110q18 6 146 26q98 14 129 52q2 48 2 73q0 131 -64 193q-152 -16 -231 -76q0 -25 -4 -77t-4 -81z" />
<glyph unicode="$" horiz-adv-x="798" d="M-33 496q0 82 49 131q53 176 205 278q61 0 105 82q-18 78 -19 156q0 203 92 203q27 0 66 -19q8 -25 8 -53q0 -37 -16.5 -104.5t-16.5 -102.5q31 -45 168 -104q119 -49 119 -99q0 -29 -31 -63h-84q-39 78 -125 78q-57 0 -65 -119q-2 -82 -6 -164l12 -6q12 0 36.5 22.5 t41.5 22.5q31 0 88 13.5t88 13.5q14 0 45 -3.5t47 -3.5q37 -70 37 -131q0 -68 -89 -167t-142 -99q-68 0 -103 -53q-31 -45 -31 -115q0 -37 10.5 -109.5t10.5 -107.5l-82 -80l-35 21q-31 51 -31 211q0 94 -45 116q-4 2 -84 13q-45 4 -45 57q0 37 76 63q96 37 107 43v48 q-35 45 -92 45q-31 0 -88.5 -13.5t-88.5 -13.5q-92 0 -92 113zM164 580q0 -29 16 -54q23 -8 58 -8h22q70 0 70 43t-8 115q-8 84 -11 115q-147 -111 -147 -211zM434 414q0 -33 31 -68q23 -4 22 -4q43 0 95 64q70 84 77 92v8q2 37 -45 37q-43 0 -108 -43q-72 -45 -72 -86z" />
<glyph unicode="%" horiz-adv-x="976" d="M-37 645q0 117 47 182q57 76 168 68q158 119 465 360h55q27 0 33 -59q2 -39 4 -80q-35 -76 -180 -342q-117 -211 -164 -352q-18 -72 -55 -186q-2 -12 -18.5 -27.5t-16.5 -24.5q0 -53 -28.5 -153.5t-28.5 -153.5q0 -37 -62 -37q-18 0 -30.5 21.5t-12.5 40.5q0 51 29 145 t29 143q37 37 66.5 130.5t64.5 128.5q0 8 4 32.5t4 36.5q0 14 -6 25q-12 -6 -129 -76q-84 -51 -121 -51q-117 0 -117 229zM84 600q0 -12 18.5 -25.5t30.5 -13.5q35 0 117 88q-23 6 -21 51q-49 49 -98 50q-18 0 -29 -43q-14 -51 -18 -58v-49zM291 813q0 -47 74 -154 q137 141 137 267q0 12 22.5 51t22.5 55v4l-107 -53q-14 -8 -39.5 -46t-62.5 -58q-47 -25 -47 -66zM393 195q0 104 121 329q74 141 231 142q23 0 68 -4.5t68 -4.5q104 -73 104 -194q0 -55 -33.5 -159.5t-68.5 -145.5q-43 -51 -148 -90q-96 -35 -170 -35q-66 0 -129 20 q-43 66 -43 142zM522 262q0 -123 47 -123h52q253 174 253 299q0 106 -122 131q-51 -35 -136 -143q-94 -117 -94 -164z" />
<glyph unicode="&#x26;" horiz-adv-x="727" d="M-88 45q0 57 41 168q43 123 84 141q82 45 248 127l-9 88q-72 35 -143 68q-84 41 -135 80v88q102 152 301 239q-12 23 -12 97q0 47 18 114q27 106 29 115l24 6q20 -8 48 -10q20 -59 30 -260l23 12q16 -20 55 -20q16 0 49 4t49 4q72 0 70 -76q-59 -86 -145 -110 q-2 61 -58 61q-16 0 -30 -8h-5v-45q2 -51 -20.5 -149.5t-24.5 -145.5q125 -74 174 -137q-18 -10 -41 -39q-29 -37 -34 -43q-25 18 -49 18q-18 0 -43 -10q6 -86 16 -260l35 12l84 -29q39 31 114 60q88 37 117 53v-100q-154 -88 -168 -97q-98 -49 -182 -59l-4 -14 q12 -14 12 -37q0 -20 -3 -59t-3 -60q0 -16 4 -53t4 -55q-39 -72 -94 -70q-20 63 -45 192q25 66 31 156q-45 -25 -80 -29h-84q-27 0 -54 -6l-8 -8l-14 -2q-23 0 -55 16q-43 25 -52 27l3 2q-25 16 -64 31zM68 143q49 -35 120 -34q58 -1 136 22q-4 86 -23 231 q-51 -35 -154 -102zM176 760q35 -21 107 -60q18 47 18 109q0 -12 -4 96q-121 -74 -121 -145z" />
<glyph unicode="'" horiz-adv-x="278" d="M63 1182q0 57 33 86q35 10 56 10q31 0 51 -23q-4 -35 -4 -75q0 -33 4 -98.5t4 -98.5q0 -115 -45 -190q-41 -12 -45 -13q-12 0 -20.5 25.5t-18.5 25.5q-4 0 -8 -2q6 53 6 113q0 41 -6.5 120t-6.5 120z" />
<glyph unicode="(" horiz-adv-x="593" d="M51 477q0 178 99 527q12 43 53 102q35 47 69 96q37 61 95 90q72 39 98 66l78 -78q-82 -84 -181 -229q-160 -233 -165 -242q0 -53 -20.5 -161.5t-20.5 -166.5q0 -326 319 -645q-16 -35 -45 -35q-25 0 -102 49q-276 170 -277 627z" />
<glyph unicode=")" horiz-adv-x="565" d="M51 -37v109q199 150 266 385q8 39 29 114q37 111 37 148q0 199 -279 475q10 76 97 76q74 0 147 -92q96 -123 121 -140q0 -61 21.5 -176t23.5 -172q-37 -90 -99.5 -272t-99.5 -273q-10 -2 -31.5 -30.5t-29.5 -28.5q-31 0 -65.5 -66.5t-88.5 -66.5q-23 0 -49 10z" />
<glyph unicode="*" horiz-adv-x="585" d="M4 877q0 41 53 63h17q-12 0 114 8q-12 20 -26 64v-2q-8 16 -35 41q-4 25 -4 24q0 39 27.5 52.5t56.5 25.5l84 -139q41 72 61 71q6 0 8 -4q2 12 -2 54q31 29 58 28q18 0 37 -16q27 -23 30 -25l-88 -159l144 10q0 -14 21.5 -28.5t21.5 -37.5q0 -51 -68 -61h-108h-13 q84 -141 84 -154q0 -12 -15.5 -28.5t-27.5 -16.5q-6 0 -63.5 60.5t-79.5 68.5q-23 -45 -45 -88q-39 -70 -58 -70q-63 0 -59 74l72 129l-187 -2q0 8 -5 27.5t-5 30.5z" />
<glyph unicode="+" horiz-adv-x="636" d="M51 401q0 14 23 68q23 2 202 29q-6 113 -6 120q0 57 29 58l-35 47q16 59 62 59q12 0 33.5 -6t31.5 -6l17 -254q8 0 55 10q35 6 55 6q18 0 19 -18l43 21q55 -17 55 -48q0 -12 -6 -36.5t-6 -36.5l-209 -21q12 -195 12 -200q0 -39 -53 -39h-11q-2 49 -67 47l-10 178 q-190 -18 -193 -19q-41 0 -41 41z" />
<glyph unicode="," horiz-adv-x="307" d="M51 -39q0 6 29 66q25 45 57 174l39 41h39q43 -29 43 -76q0 -12 -2 -33v-31q-12 -12 -26.5 -51t-32.5 -49v-39q-43 -84 -97 -84l-24 4q0 14 -12.5 39t-12.5 39z" />
<glyph unicode="-" horiz-adv-x="440" d="M51 479q70 139 297 139q41 -20 41 -104v-14q-96 -96 -221 -97q-88 0 -117 76z" />
<glyph unicode="." horiz-adv-x="266" d="M51 129q0 43 29 71.5t72 28.5q63 -24 63 -75q0 -49 -51 -101q-23 -8 -41 -8q-72 0 -72 84z" />
<glyph unicode="/" horiz-adv-x="1091" d="M92 -233q14 70 62 202q86 72 165 221q47 86 127 281q78 186 121 260q61 37 117 143q63 121 102 158l-2 12q-2 66 78 158q63 66 127 131l29 -8l41 -35q-16 -68 -95 -230.5t-126 -225.5q-23 -23 -70 -72q-61 -68 -137 -199q-14 -27 -135 -278q-90 -190 -150 -254l2 -8 q-115 -215 -129 -240q-47 -31 -82 -31q-25 0 -45 15z" />
<glyph unicode="0" horiz-adv-x="940" d="M-39 139q12 127 66 267q27 70 114 249q182 377 539 377q113 0 182 -55q78 -59 78 -172q0 -57 -27 -146q-33 -115 -39 -143q-37 -39 -73 -117q-47 -96 -64 -123q-43 -61 -127 -151q-102 -109 -131 -145q-74 -43 -209 -43q-27 0 -76 2t-73 2q-10 18 -37 32q-39 23 -43 27 q-29 88 -80 139zM125 250q0 -156 158 -156q37 0 155 25q55 84 140 139l-5 8l29 43l-4 8q115 182 129 209q70 132 70 234q0 74 -41 133q-37 8 -76 8q-240 0 -399 -266q-156 -258 -156 -385z" />
<glyph unicode="1" horiz-adv-x="311" d="M82 907q16 47 51 142q20 0 35 6l18 -17l15 9l12 -13q6 -31 6 -184q0 -57 10 -137q-8 -20 -16 -129q-8 -94 -8 -138q0 -57 3 -170.5t3 -171.5q0 -10 4 -31.5t4 -31.5q0 -31 -20 -98q-23 -31 -52 -31h-12q-18 25 -43 80q16 61 17 145q0 51 -9.5 151.5t-9.5 149.5 q0 6 19 129q-18 74 -19 148q0 23 3 69.5t3 69.5q0 10 -6 27.5t-8 25.5z" />
<glyph unicode="2" horiz-adv-x="1001" d="M102 750q106 160 211 266l11 -2q63 -2 225 53q76 -39 211 -43q113 -2 149 -41q58 -59 58 -260l-17 -64q-6 -6 -106 -102q-66 -63 -84 -121q-70 -27 -139 -92q-109 -102 -123 -113q-14 -27 -29 -81l4 -15q25 -4 51 -4q47 0 139.5 17.5t139.5 17.5q76 0 137 -33v-82 q-76 -78 -190 -78q-59 0 -148 23l-27 -27q-31 16 -67 17q-51 0 -148.5 -33t-148.5 -35q-29 29 -86 27q238 379 471 526q39 51 129 141t129 140v49q-129 125 -383 125q-203 -100 -256 -236l-16 8q-10 -2 -24.5 -17t-29.5 -17l-16 8q2 49 -27 78z" />
<glyph unicode="3" horiz-adv-x="727" d="M-49 8q23 0 66.5 8.5t66.5 8.5q12 0 35.5 13t40.5 11l76 78q274 68 374 211l-71 72q-29 0 -85.5 6t-86.5 6q-102 0 -168 -100q-59 27 -88 26q0 98 67 193q41 59 148.5 156.5t144.5 146.5q2 123 -92 123q-27 0 -135 -58q-31 0 -55.5 -34.5t-24.5 -69.5q-23 -6 -47 -6 q-51 0 -86 30q0 84 82 129q104 57 123 93q39 0 117.5 13t117.5 13q111 0 182 -71v-88q-51 -76 -166.5 -209.5t-164.5 -204.5q199 29 296 28q39 0 78 -98q35 -88 35 -137l-4 -16q-35 -37 -57 -66l2 -2q-27 -31 -54 -63q-37 -45 -57 -50l-6 4q-25 -10 -94 -57 q-49 -33 -107 -35q-106 -104 -319 -106h-84v102z" />
<glyph unicode="4" horiz-adv-x="954" d="M-55 270q41 14 90 79t88 79q2 18 42 90t54 88q174 186 225 246q123 139 209 258q20 6 39 6q78 0 78 -180q0 -41 -7 -123t-7 -123q0 -98 39 -172q92 49 125 49q65 1 65 -73q0 -59 -84 -91q-66 -20 -131 -41q-49 -162 -49 -342l-6 -4l4 13q39 -96 39 -150l-4 -24 q-53 -37 -90 -37q-51 0 -91 59q12 96 27 193q16 115 43 186l-18 68q-47 -2 -144 -43q-86 -37 -147 -29q-29 -29 -103.5 -54.5t-101.5 -54.5q-125 -2 -129 -2q-53 0 -55 129zM207 354q10 -12 29 -12q45 0 167.5 34t159.5 34q80 55 80 256q0 98 -35 133h-51q-82 -84 -182 -217 q-84 -115 -168 -228z" />
<glyph unicode="5" horiz-adv-x="790" d="M-41 340v668q18 0 19.5 29.5t13.5 29.5q27 0 87 -11.5t93 -11.5q80 0 237.5 20.5t237.5 22.5l37 -36v-37q-12 -29 -57 -76q-27 -14 -265 -14q-162 0 -253 -47q-53 -70 -54 -175q0 -49 13 -108q33 -43 79 -43q41 0 138.5 41t165.5 41q20 0 59 -2h57q80 -41 146 -41 q23 0 52.5 -72.5t29.5 -101.5q0 -49 -189 -273q-76 -39 -119 -39q-66 -78 -180 -129q-63 -27 -211 -69q-18 31 -80 18q-37 39 -36 92l55 58h198q109 72 220 143q141 102 141 193q0 55 -64 92q-33 2 -67 2q-260 0 -393 -182q-6 0 -25.5 -2.5t-32.5 -2.5q-31 0 -53 23z" />
<glyph unicode="6" horiz-adv-x="890" d="M-2 252q0 319 395 688q47 43 154 57q84 8 170 15q88 -72 88 -107q0 -25 -25 -43q-12 4 -26 4q-18 0 -51 -7t-50 -7q-33 0 -55 20q-55 -33 -125 -38q-35 -39 -160 -164q-100 -100 -149 -174l2 -11q0 -29 -12.5 -84t-12.5 -82q0 -53 17 -69l75 45l9 10l-25 -18q23 6 107 92 q72 76 100 115q57 4 129 38q61 31 121 60q45 -20 90 -41q53 -23 98 -21q35 -45 35 -96q0 -59 -43 -110l4 -52q-80 -156 -232.5 -251t-332.5 -109q-31 49 -158 37q-55 23 -63 125l-56 47q-18 66 -18 131zM195 115q70 -76 141 -76q113 0 196 100l52 4q145 117 190 199l-4 51 q-53 45 -108 45q-45 0 -74 -35l-10 5q-12 0 -26.5 -19.5t-29.5 -21.5l-10 4q-49 -57 -105.5 -88t-113.5 -62q-23 -12 -50.5 -53t-47.5 -53z" />
<glyph unicode="7" horiz-adv-x="788" d="M-55 831q-2 94 47 146l51 2q33 -45 98 -45q84 0 133 53q29 -2 60 -2q53 0 157.5 12.5t157.5 12.5q43 0 117 -29q10 -15 10 -31t-12 -39q-18 -31 -21 -37q-96 -117 -297 -346q-16 -72 -71 -166q-86 -150 -92 -157l4 -4l-2 6l-2 -2q0 -20 -14.5 -60.5t-14.5 -62.5 q-14 -8 -59 -62q-37 -45 -66 -47l-53 52q-12 0 -13 16q0 10 4.5 30.5t6.5 30.5q10 12 30 56q14 35 43 49l-2 51q29 41 127 205q76 127 144 192q29 43 100 109q-2 49 -29 76q-47 -10 -142 -7t-142 -8q-80 -16 -127 -77q-10 0 -37 -4.5t-41 -4.5q-35 0 -51 31z" />
<glyph unicode="8" horiz-adv-x="765" d="M-23 655q0 31 21.5 85.5t21.5 82.5q0 18 -6 35q66 106 177.5 178t230.5 72q152 0 256 -127v-88q-20 -23 -64 -105q-35 -66 -88 -98q-6 -23 62 -22h84q88 -45 88 -211q0 -164 -156 -301q-84 -74 -299 -195q-20 -10 -41 -10q-168 0 -221 63q-45 55 -45 226q0 129 55 217 q-76 119 -76 198zM106 696q0 -76 44 -100q70 2 151 61q66 49 133 99q57 35 84 82q53 96 55 98q-74 41 -145 41q-158 0 -311 -203q-10 -100 -11 -78zM117 279q0 -92 14 -129q25 -61 105 -62q106 0 257.5 122t151.5 222q0 63 -59 94h-158q-182 0 -311 -194v-53z" />
<glyph unicode="9" horiz-adv-x="731" d="M-8 557q0 256 313 479q117 31 178 31q100 0 146 -35q29 -20 55 -80q29 -66 59 -96q7 -71 7 -137q0 -489 -316 -690q-104 2 -129 -52q-27 -2 -75 -17t-72 -15q-35 0 -69 29.5t-34 64.5q0 25 17 67q29 -4 55 -4q199 0 410 211q6 16 47 88q31 51 30 93q0 27 -41 26h-10 q-25 -16 -133 -71q-84 -43 -125 -84q-129 0 -182 -27q-12 12 -55 31q-31 14 -48 47q-29 57 -28 141zM109 586q0 -119 92 -119q4 4 49 25q31 14 35 36v-4l-2 2q90 0 137 17q57 20 117 80h51q67 53 67 125q0 70 -57 129t-127 59q-102 0 -201 -88q-37 -35 -147 -174 q-14 -43 -14 -88z" />
<glyph unicode=":" horiz-adv-x="307" d="M51 203q0 55 51 80q88 2 113 -47q0 -10 3 -31t3 -31q0 -39 -31 -70h-20q-119 0 -119 99zM111 588l4 24q-2 10 -2 21q0 76 69 76q39 0 74 -35q0 -109 -49 -133q-96 0 -96 47z" />
<glyph unicode=";" horiz-adv-x="307" d="M51 -2q0 59 35 147q41 106 88 107l23 -4q24 -37 24 -78q0 -47 -42 -130t-42 -130q0 -20 -33 -21h-8q-45 35 -45 109zM88 618q0 55 51 82q88 0 113 -49q0 -10 2 -30.5t2 -30.5q0 -39 -31 -70h-20q-117 0 -117 98z" />
<glyph unicode="&#x3c;" horiz-adv-x="712" d="M72 530q0 51 112 234q106 168 158 219l-2 6q43 70 129 203q51 31 82 31q10 0 33 -21l32 -31q-10 -27 -38 -63q-37 -47 -43 -59q-74 -57 -193 -238q-125 -190 -125 -266q0 -23 17.5 -40.5l33.5 -33.5q0 -61 80 -147q90 -96 105 -142q45 -12 94 -123q8 -16 26.5 -31.5 t24.5 -27.5l-41 -55q-27 -4 -51 -17q-59 39 -129 146q-51 84 -105 168q-31 29 -84 92q-35 49 -67 98q-49 74 -49 98z" />
<glyph unicode="=" horiz-adv-x="636" d="M102 326q0 12 4.5 36.5t4.5 36.5q113 16 225 33q141 20 223 21q27 -1 27 -58v-10q-43 -6 -160 -63q-109 -53 -203 -54q-39 0 -39 31l-37 -41q-45 16 -45 68zM102 610v13q37 0 37 73l305 13q27 0 39 -7q20 -8 21 -28l37 37q45 -21 45 -72q0 -12 -4 -36.5t-4 -35.5 l-439 -16q-23 0 -30 20q-6 12 -7 39z" />
<glyph unicode="&#x3e;" horiz-adv-x="712" d="M72 -29q10 27 39 60q37 45 43 55q76 53 188 207q119 166 119 239q0 55 -41 109q0 59 -90 139q-96 86 -111 133q-35 14 -65 117q-23 72 -43 144l20 18l51 14q131 -98 262 -411q10 -29 97 -119q75 -84 75 -111q0 -53 -114 -225q-106 -160 -156 -205l2 -6q0 -4 -59 -92 q-55 -80 -70 -98q-47 -25 -82 -25q-10 0 -33 25q-33 33 -32 32z" />
<glyph unicode="?" horiz-adv-x="802" d="M51 1073q0 14 1 40t3 38q94 53 221 53q131 0 373 -74q103 -112 103 -272q0 -84 -39 -186q-43 -115 -103 -156q-25 -18 -71 -22q-35 -4 -88 -2l-78 4q-61 -39 -60 -179l-41 -41h-39l-40 41q-6 31 -5 74q4 84 5 76q0 51 -19 88q8 18 2 72q-4 45 17 67q55 0 131 -30 q104 -43 127 -50q104 35 137 117q23 53 22 182q-29 72 -110 111q-72 33 -160 33q-55 0 -125 -31q-61 -27 -121 -53q-43 29 -43 100zM131 -25q0 57 43 84q12 25 39 25q8 0 20.5 -2t20.5 -4q20 -20 16 -74q-4 -66 2 -84l-39 -39q-80 0 -100 39v27q-2 18 -2 28z" />
<glyph unicode="@" horiz-adv-x="1247" d="M-41 389q0 215 64 363q57 29 110 98q43 59 86 121l10 -4l45 30l11 -4q70 82 213 135q123 41 245 82q41 0 122 -13t122 -13q33 0 62 6q133 -88 172 -150q23 -35 27.5 -101.5t39.5 -121.5q0 -55 -21.5 -163.5t-21.5 -164.5q-41 -43 -51 -79q-6 -23 -23 -25h-137 q-57 0 -59 -12q-8 -6 -14 -6q-14 0 -32 52t-34 52l-14 -6q-72 -119 -138.5 -158t-205.5 -39q-131 0 -232 66q-14 41 -14 84q0 119 138 278.5t253 159.5q45 0 106 -20q98 -33 103 -35q57 -70 57 -154q0 -31 -8 -59q41 -92 90 -92q35 0 84 53l10 26q-6 35 -6 48q0 27 27 39 q8 31 8 59q0 35 -14.5 102.5t-14.5 102.5q-25 18 -49 36.5t-41 55.5q-94 31 -192 31q-106 0 -234 -48q-63 -23 -221 -96q-106 -98 -213 -196q-78 -94 -78 -285q0 -25 2 -74v-76q55 -84 147.5 -133t194.5 -49q176 0 328 86q76 2 145 53q33 55 64 56q41 0 65 -97 q-41 -39 -124 -114q-109 -47 -216 -96q-127 -51 -221 -80q-260 57 -368 141q-154 117 -154 348zM430 436q0 -37 19 -49q8 -6 55 -16q327 115 327 256q0 80 -88 123q-66 -23 -168 -101q-109 -84 -133 -137q-12 -25 -12 -76z" />
<glyph unicode="A" horiz-adv-x="741" d="M-25 20q0 68 33 156q29 76 58 150q10 27 40 176q25 109 68 166l-4 80q86 121 111 241q57 31 57 95v8l39 41h29h7q64 0 83 -37q6 -8 20 -98.5t68 -274.5q59 -203 94 -256l2 -100l82 -152q47 -90 49 -162q-18 4 -18 -37q0 -25 -27 -24q-74 0 -94 37q-6 211 -127 254 q-29 0 -83 2t-79 2q-274 0 -274 -219q0 -37 8 -78q-39 -86 -94 -86l-21 2q-27 53 -27 114zM240 451q29 -27 43 -32t57 -5q160 0 160 92q0 37 -29 112q-23 56 -23 99q0 10 1 20q-6 33 -13 66q-10 47 -33 47q-33 0 -71 -84q-51 -106 -60 -115l2 -59q-34 -38 -34 -96v-9v-36z " />
<glyph unicode="B" horiz-adv-x="860" d="M20 33q20 90 23 272q2 193 16 279q6 29 7 39q0 27 -25 36v17q0 109 16 158q10 25 19.5 47t9.5 55q0 18 -3 53t-3 51q0 59 22 103q16 -10 45 -8q55 4 46 4q31 0 51 -19q55 0 163.5 13.5t163.5 13.5q84 0 119 -23q8 -6 86 -84q6 -18 6 -34q0 -29 -18 -68l-27 -61 q-55 -41 -125 -121q-84 -98 -84 -142q0 -31 29 -45q266 0 338 -141q-29 -141 -160 -242q-109 -84 -246 -159q-180 -98 -266 -99q-176 0 -203 105zM143 223q0 -55 52.5 -96t109.5 -41q72 0 248 105.5t176 162.5q0 33 -78 107q-33 6 -71 6q-51 0 -149.5 -13.5t-147.5 -13.5 q-4 -4 -72 -45q-35 -18 -45 -73q-2 -8 -14 -50q-8 -29 -9 -49zM147 678q0 -51 37 -90q16 -2 33 -2q63 0 123 51q47 49 96 98q92 19 174 185v36l-57 56q-53 0 -154.5 -29t-154.5 -31l-56 -55l2 -23v-6q0 -34 -20 -94q-22 -65 -23 -96z" />
<glyph unicode="C" d="M-53 406q0 242 57 253q70 115 207 349q109 57 164 108q84 14 151 14q137 0 232 -63q8 -16 8 -33q0 -47 -59 -59q-47 12 -95 12q-227 0 -370 -182q-135 -168 -136 -399q0 -131 56 -185q31 -29 170 -90q98 18 196 35q100 25 174 92q51 47 72 47q72 0 88 -74 q-31 -104 -143 -157q-82 -39 -230 -56q-115 -12 -227 -24q-86 43 -121 65q-66 41 -102 91q-16 80 -86 131q-6 47 -6 125z" />
<glyph unicode="D" horiz-adv-x="856" d="M49 295q0 41 16.5 115.5t16.5 113.5q0 33 -27 58q23 61 23 143q0 31 -4 92.5t-4 91.5q0 119 49 201q39 6 82 6q51 0 151.5 -12t151.5 -12q59 0 260 -80q51 -20 92 -99q26 -63 55 -129q0 -74 -34 -166q-33 -80 -66 -159q-289 -317 -641 -500q-14 -8 -27 -8q-14 0 -41.5 13 t-46.5 13q4 41 4 86q0 39 -5 117t-5 115zM176 227q16 -49 92 -49h13q367 283 491 490q2 21 2 41q0 143 -141 213q-111 53 -268 53q-39 0 -76 -4q-55 -37 -73.5 -70t-18.5 -96v-424q-19 -19 -19 -69v-5q1 -22 1 -38q0 -33 -3 -42z" />
<glyph unicode="E" horiz-adv-x="757" d="M51 18q5 39 5 94q0 27 -1 58q-4 160 -4 152q0 51 18.5 148t18.5 138q0 27 -16 45q5 33 5 99q0 50 -3 120q-1 29 -1 56q0 98 17 162q201 41 596 79q55 -27 55 -82q0 -45 -34 -96q-31 0 -97 2h-94q-172 0 -287 -43q-37 -49 -41 -147q-6 -147 -8 -160q12 4 14.5 -4t2.5 -23 q-2 -18 -2 -16q0 -18 43 -18q80 0 234.5 41t234.5 41q31 -14 30 -48q0 -33 -30 -63q-70 -25 -250 -51q-162 -25 -246 -68q-61 -80 -61 -176q0 -84 61 -121q90 8 285 86q182 72 290 72q25 -10 25 -41q0 12 -6 -57q-25 0 -19 -39q-143 -25 -331 -95q-162 -63 -324 -124 q-53 27 -80 79z" />
<glyph unicode="F" horiz-adv-x="632" d="M41 -37v199q0 43 14.5 128t14.5 128q0 12 -5.5 39.5t-5.5 42.5q0 16 3.5 51t3.5 51q0 59 -17 103q4 14 4 190q0 51 13 66q-6 18 -7 36q0 43 60 105q143 0 213 -23q53 20 131 21q4 0 102 -4h30q43 0 75 4l2 -19q0 -86 -80 -123q-18 0 -55 2.5t-56 2.5q-94 0 -266 -29 q-35 -35 -35 -203q0 -94 8 -125q15 -71 75 -71h5q111 43 297 43l35 -35v-35q0 -55 -72 -78q-43 -14 -149 -22q-96 -8 -121 -21q-92 -47 -92 -178q0 -35 11 -104.5t11 -106.5q0 -16 -2 -31l-34 -37q-8 0 -29 -2t-33 -2q-25 0 -49 37z" />
<glyph unicode="G" horiz-adv-x="909" d="M-41 373q0 98 43 289q31 47 64 92q35 57 34 106q27 51 117 139q84 82 141 119q39 25 129 25q23 0 66 -2t63 -2q123 -47 144 -60q82 -49 82 -118q0 -20 -6 -41h-9q-31 2 -32 -21q-27 8 -150 62q-102 45 -139 45q-25 0 -107 -39q-127 -57 -231 -254q-100 -186 -100 -336 q0 -119 66.5 -188.5t187.5 -69.5q150 0 256 106l8 -4q12 10 43 27l8 -4q92 92 92 141q0 35 -33 57q-86 -10 -170 -20q-102 -12 -168 -39h-6q-49 0 -73 20v9q2 31 -19 30q0 43 39 80q154 20 307 41q180 27 289 99q27 4 39 4q29 0 41 -25q-2 -29 -22.5 -84t-20.5 -84 q0 -14 2 -31q-84 -199 -254 -325q-178 -135 -385 -135q-39 0 -76 4q-76 49 -151 100q-61 41 -84 92q-25 59 -25 195z" />
<glyph unicode="H" horiz-adv-x="688" d="M51 10q8 115 31 340q2 18 16 80q12 49 13 78q0 174 -15 254q0 4 -16 74q-10 45 -10 75q0 82 14 121q25 57 96 58q66 -299 66 -406q0 -23 -7.5 -68t-7.5 -67q0 -23 7 -64q8 -51 16 -51q-2 0 61 21q57 14 117 30.5t96 63.5q0 37 -6 117q-4 74 -4 114q0 39 8 56q0 20 -4 65 t-4 68q0 129 53 180h43q20 -31 32 -101.5t32 -101.5q-29 -84 -29 -192q0 -31 8 -172q4 -52 4 -95t-4 -77q60 -210 60 -400q-16 -20 -35 -43q-24 -24 -42 -24h-1q-25 0 -51 26v6q0 35 -21 56q14 90 15 141q0 129 -88 190q-33 -14 -134 -36q-92 -18 -122 -41q-53 -37 -60 -138 q-8 -135 -18 -159q-27 -14 -51 -15q-39 0 -58 37z" />
<glyph unicode="I" horiz-adv-x="280" d="M82 702q0 8 6 152q1 30 1 57q0 53 -5 93q10 12 25.5 53t35.5 51h43l43 -41q6 -27 7 -57q0 -31 -7.5 -92.5t-7.5 -92.5q0 -51 15 -88v-16q0 -47 -10.5 -139.5t-10.5 -139.5t8 -140t8 -138q0 -94 -24 -168q-8 0 -28.5 -3t-30.5 -3q-35 0 -50 28q4 41 4 91q0 41 -4 123.5 t-4 123.5q0 90 17 160q-31 76 -31 186z" />
<glyph unicode="J" horiz-adv-x="534" d="M-45 377q0 35 27 59l30 2h2q73 0 174 -137q127 -172 158 -192q25 0 43 45q27 61 29 65q-4 37 -47 488q-27 256 -27 272q0 72 14 133q33 41 60 41q20 -10 35 -37q18 -35 24 -43q5 -26 5 -63q0 -12 -1 -25l-2 -87v1q0 -33 18.5 -91t18.5 -87q0 -18 -18 -25q37 -146 37 -334 q0 -258 -58 -362h-10q-6 0 -8 -29.5t-33 -29.5q-104 0 -190 69q-47 41 -133.5 153.5t-141.5 153.5q0 8 -3 29t-3 31z" />
<glyph unicode="K" horiz-adv-x="778" d="M43 43l8 20q0 12 9.5 38t9.5 38q0 18 -19 27q0 10 -2 31.5t-2 31.5q0 37 25 64q-20 76 -21 170q0 57 10.5 173t10.5 173q0 94 -19 172q33 68 94 68q29 0 46 -27q0 -45 -2.5 -135t-2.5 -135q0 -57 25 -72q14 2 29.5 24.5t29.5 24.5q49 39 138 125q45 57 65 80q37 41 76 67 q41 8 111 82q63 68 106 68l20 -2q29 -31 29 -59q0 -41 -69 -89q-12 0 -19.5 -20t-19.5 -23q-27 -33 -97.5 -87t-97.5 -87q-43 -53 -43 -116l356 -564q0 -8 3.5 -28.5t3.5 -30.5q0 -33 -27 -45q-127 0 -178 84q-25 49 -74 152q-111 217 -207 360q-18 0 -74 -45 q-98 -78 -98 -213q0 -39 10.5 -120t10.5 -122q0 -76 -25 -137h-80l-41 41q-4 14 -8 43z" />
<glyph unicode="L" horiz-adv-x="763" d="M41 100q0 33 12 86q12 66 15 86q10 88 12 195q1 24 1 53q0 59 -3 139q-2 143 -2 195q0 293 98 293q29 0 47 -33q-20 -147 -20 -446t-21 -447l53 -51q45 8 170 55q106 41 175 43q4 16 34.5 19.5t24.5 19.5h139l-14 -33l18 -6l-49 -80q-84 0 -239 -79h-60 q-121 -72 -166 -93q-98 -47 -182 -47q-43 84 -43 131z" />
<glyph unicode="M" horiz-adv-x="817" d="M-29 -20q39 285 76 571q45 342 105 565h6q82 0 102 -43q0 -43 39 -119q0 -94 33 -309q12 -6 16 -35q2 -20 -2 -57q-4 -43 -4 -45q0 -27 11.5 -27t17.5 -39q4 -25 8 -51q29 35 51 119q18 74 19 131q16 -6 19 26.5t19 30.5q2 39 23.5 117t21.5 119q0 20 -4 39 q47 94 103 125h43l43 -43q10 -139 20 -277q16 -162 80 -262q-16 -39 -16 -84q0 -59 38 -168t38 -168l-43 -43h-7q-80 0 -100 45q0 76 -18 191q-31 184 -31 188q-12 18 -19 92q-6 66 -28 80h-37q-45 -35 -53 -110q-6 -63 -13 -127q-16 4 -19 -28t-20 -32q-2 -35 -27.5 -100.5 t-25.5 -101.5q0 -16 2 -31q-20 -66 -82 -66q-33 0 -67 23q0 31 -12.5 89t-12.5 89q0 23 6 43q-20 35 -22 86v-8v100q0 39 -15 82q-19 53 -51 53h-2q-31 -156 -98 -633q-17 -32 -53 -32h-2q-37 0 -56 35z" />
<glyph unicode="N" horiz-adv-x="780" d="M51 731q0 37 25 62q2 8 4 27.5t2 31.5q0 35 -25 59q-6 16 -6 33q0 33 15.5 72t29.5 74h6q14 0 24.5 4t8.5 16q72 0 118 -42t46 -107q0 -18 -4 -39q84 -86 164 -310.5t164 -310.5q8 12 8 49q0 27 -3 74t-3 55q0 23 8 35q-6 61 -12 279q-4 172 -29 276q16 16 26 82 q6 43 74 43q29 0 39 -25q-4 -18 -4 -36q0 -27 9 -79.5t9 -78.5q0 -35 -12 -64l-2 -133q0 -164 49 -264l2 -180v-20q0 -156 -30 -277q-20 -4 -41 -4q-72 0 -115 53q-14 18 -61.5 114.5t-120.5 194.5q-12 57 -62 142q-63 100 -78 135q-16 6 -45 67q-27 55 -28 80 q-6 -10 -6 -22q0 -27 9 -80t9 -80q0 -14 -6 -25q-6 -74 -6 -149q0 -63 6 -189.5t6 -189.5q0 -35 -23 -86q-25 -59 -55 -59h-39q-43 27 -43 88q0 76 15.5 226t15.5 226q0 43 -16.5 127t-16.5 125z" />
<glyph unicode="O" horiz-adv-x="1091" d="M-39 317q0 49 19.5 148.5t19.5 148.5q59 61 59 160q82 72 240 219q96 41 195 84q115 49 202 74q233 -51 334 -127q139 -106 139 -317q0 -197 -57 -330q-51 -27 -100 -88q-39 -55 -78 -111l-8 4l-43 -28l-9 4q-63 -74 -194 -123q-113 -37 -223 -76q-37 0 -111 12.5 t-113 12.5q-29 0 -55 -4q-119 78 -155 133q-18 31 -23.5 91t-38.5 113zM94 406q0 -31 12.5 -91.5t12.5 -91.5q8 -6 45 -26q25 -14 35 -35q82 -27 168 -27q176 0 407 109q96 88 191 176q71 84 71 254q0 23 -2 67.5t-2 65.5q-88 141 -299 141q-160 0 -297 -78 q-182 0 -317 -333q6 -31 6 -41q0 -31 -25 -43q-6 -23 -6 -47z" />
<glyph unicode="P" horiz-adv-x="702" d="M31 963q18 18 29.5 69t29.5 70q85 24 200 24h9q35 0 104.5 -2t104.5 -2q-4 -18 28.5 -20t30.5 -21q113 0 178 -98l3 -31v-14q0 -173 -240 -334h-41q-43 -33 -86 -65q-51 -39 -94 -56q-20 -4 -58 -16q-20 -10 -22 -41q0 -23 -17 -20q-6 -39 -6 -82q0 -57 12.5 -168 t12.5 -166q-10 -31 -59 -80h-39l-41 39q4 35 4 71q0 53 -10.5 159t-10.5 159q0 117 37 207q-14 6 -16 20q-2 8 0 27q2 23 2 26q0 14 -6 27q0 168 1 168l1 -6q-4 94 -41 156zM176 678q0 -39 14 -74q18 -2 35 -2q119 0 363 242q-16 133 -191 133q-43 0 -104 -12 q-98 -20 -103 -23l-12 -6q12 -14 25 -47l-13 -6q4 -20 5 -43q0 -27 -9.5 -80t-9.5 -82z" />
<glyph unicode="Q" horiz-adv-x="972" d="M-43 164q0 516 274 807q74 78 136 106q125 59 338 60q94 0 186 -21q125 -82 125 -252v-20.5v-20.5q0 -76 41 -82h-4q-34 0 -45 -59q-8 -47 -15 -94q-4 -12 -35 -62q-26 -40 -26 -60q0 -7 2 -11q-23 -43 -66 -101q-61 -82 -69 -94q0 -76 61 -221q55 -134 55 -214v-13 l-2 -35q-25 -27 -53 -27q-41 0 -72 66q0 78 -43 176q-39 82 -77 162q-154 -168 -510 -168h-62q-47 25 -78.5 77t-60.5 101zM74 305q0 -117 102 -174q313 0 436 170q0 4 -37 78q-22 45 -22 79q0 21 4 40q12 0 41 4t43 4q47 0 68 -39q29 -59 32 -64q33 27 86 93h-2 q21 77 99 192v170q-90 131 -181 131q-268 0 -370 -76q-57 -43 -100.5 -169t-129.5 -179q-70 -182 -69 -260z" />
<glyph unicode="R" horiz-adv-x="729" d="M41 84q0 12 6 102q2 24 2 46q0 32 -4 57q25 90 25 203q0 72 -14.5 215t-14.5 215q0 43 4 84q51 102 92 102q45 0 68 -21q49 0 147.5 9.5t147.5 9.5q276 0 276 -203q-102 -141 -131 -170q-80 -86 -178 -112q-37 -29 -72 -60q-41 -37 -55 -74q55 -88 180 -174 q106 -72 211 -141q2 -10 15.5 -28.5t13.5 -32.5q0 -53 -78 -86q-117 88 -233 174q-133 102 -224 186l-39 6v-18q0 -23 -14 -43v-76q2 -49 2 -74q0 -170 -33 -231q0 -23 -45 -23h-6q-49 68 -49 158zM164 774q0 -49 20 -205q63 35 125 72q76 47 109 88q47 12 92 70 q57 74 80 88q0 31 -41 55q-31 18 -64 35q-27 -8 -155 -23q-96 -10 -146 -53q-20 -51 -20 -127z" />
<glyph unicode="S" horiz-adv-x="747" d="M-51 436q0 25 24.5 138.5t34.5 138.5q70 164 137 256q104 55 207 110q118 62 212 62h11l33 -2q4 -27 45 -23q61 -94 62 -209q-10 -23 -37 -22q-14 0 -41 6q-23 43 -109 86q-178 -23 -299 -133q-135 -119 -135 -293q0 -70 58 -70q16 0 131.5 45t214.5 45q106 0 262 -32 q41 -64 41 -195v-14q-233 -209 -279 -242q-180 -129 -336 -129q-43 0 -86 8q-37 39 -37 78t37 64q367 41 518 217v47q-12 23 -40 39q-39 20 -50 28q-41 0 -118.5 -21.5t-118.5 -21.5q-139 -84 -221 -84q-53 0 -87 35t-34 88z" />
<glyph unicode="T" horiz-adv-x="724" d="M6 1085q133 37 359 41q285 4 360 15q51 -27 51 -60q0 -37 -69 -77q-156 -6 -234 -27l-49 -47q0 -66 -2 -223q-4 -147 -4 -226q0 -281 26 -477l-53 -51h-16h-4q-34 0 -47 33q-29 61 -29 327q0 88 7 265.5t7 265.5q0 137 -133 137h1l-116 -6q-55 22 -55 99v11z" />
<glyph unicode="U" horiz-adv-x="636" d="M41 666l20 18q-20 37 -20 80q0 31 18 108q14 53 14 91q0 11 -1 20q4 4 39 86q20 49 79 49q43 0 43 -37q0 -170 -24 -282q-2 -4 -19 -54q-10 -33 -10 -55q0 -76 29 -201q33 -152 37 -200q25 -61 49 -123q33 -76 90 -76q66 0 96 78q-2 25 -2 49q0 49 10.5 142.5t10.5 140.5 q0 80 -23 145v-1v114q0 94 29 166q-23 23 -23 59q0 127 88 127q33 0 60 -29q35 -112 35 -151v-6q-43 -82 -50 -258q18 -4 19 -31v1q-2 0 -17 -79q-16 -195 -32 -389q-43 -240 -240 -240q-88 0 -139 70q-39 49 -64 152q-18 80 -34 157q-10 29 -29 86q-6 92 -39 273z" />
<glyph unicode="V" horiz-adv-x="577" d="M-4 1065q0 111 70 111q25 0 47 -33q16 -27 32 -53q7 -29 7 -71v-11q-4 -85 -5 -85v1q0 -39 19 -90q23 -127 43 -252q35 -197 78 -197q33 0 78 178q51 207 65 230q0 197 59 376q41 20 70 21q57 -1 57 -64v-100q-119 -176 -118 -397q-16 4 -18.5 -27t-20.5 -33v-135 q-33 -31 -39 -76q-29 -131 -78 -397q-8 -8 -27 -43q-14 -27 -36 -39q-37 18 -74 113q-35 86 -35 133q0 14 2 42t2 42q0 20 -16 67q-27 68 -47 220q-20 143 -52 217q0 25 -13 78t-13 79q0 18 6 37q-20 12 -25.5 41t-13.5 39q0 12 -2 38t-2 40z" />
<glyph unicode="W" horiz-adv-x="864" d="M10 1096v18q12 27 60 70q27 -2 80 -51q0 -188 38 -527q8 -12 9 -100q0 -27 8 -39q18 6 41 55q18 41 22 66q51 82 78 243q29 180 62 250h59q2 -6 11 -17t9 -17q0 -106 45 -265q70 -233 74 -258q14 -16 21.5 -63t21.5 -64q8 4 8 52q0 16 9 20q71 220 71 552v9q0 39 8 68 l39 35h11q70 0 90 -35v-4q0 -98 -41 -150q0 -227 -33 -407q-23 -66 -47 -187q0 -37 2 -100q4 -74 4 -103q0 -119 -25 -204h-8q-31 2 -32 -17q-41 0 -78 35q-76 389 -142 606q-8 10 -12 49q-4 31 -27 41q-23 0 -34 -32q-20 -47 -23 -50q-2 -37 -40 -96t-38 -96q0 -27 17 -49 q-10 -35 -41 -199q-23 -121 -58 -192q-16 -4 -30 -4q-47 0 -70 55q-18 47 -43 295q-27 283 -37 334q23 16 21 45v6q-59 135 -60 422z" />
<glyph unicode="X" horiz-adv-x="835" d="M-47 68q0 55 164 251q109 127 217 254q0 78 -72 172q-63 72 -127 146q-25 -2 -40 24.5t-15 53.5q0 37 51 61q43 18 84 21q41 -41 99.5 -139.5t99.5 -139.5h59q88 106 176 213q131 158 191 158q35 0 51 -33v-100q-59 -31 -60 -99q-82 -100 -278 -258v-59 q57 -59 158.5 -189.5t158.5 -189.5q2 -4 13.5 -24.5t11.5 -32.5q0 -33 -32 -57.5t-64 -24.5q-66 0 -107 61q-18 33 -55 101q-63 117 -164 217h-39q-106 -72 -209 -211q-84 -123 -170 -246q-14 -6 -28 -6q-74 0 -74 76z" />
<glyph unicode="Y" d="M45 614q29 193 29 357q0 66 26.5 92.5t94.5 26.5h18q0 -59 -12.5 -182.5t-12.5 -184.5q0 -59 33 -92q14 -4 29 -4q49 0 86 45q8 8 57 86q14 -4 15 -4q12 0 28.5 23.5t28.5 23.5q6 0 14 -2q14 12 160 202q119 156 168 156q16 0 33 -29q10 -23 20 -43q-37 -133 -184 -278 q-197 -190 -234 -246q-18 -82 -18 -182q0 -59 9 -181t9 -182q-18 2 -20 -30.5t-27 -32.5h-43q-20 12 -37 49q-18 47 -28 59q14 94 14 195q0 96 -14 188q-92 61 -189 62q0 25 -17.5 53.5t-35.5 54.5z" />
<glyph unicode="Z" horiz-adv-x="786" d="M-57 45q0 39 61 113q55 66 98 90l154 299q16 16 83 135t69 137q73 60 73 116q0 21 -16 36q-25 10 -78 10q-41 0 -117.5 -20.5t-115.5 -20.5q-96 0 -142 57q-2 16 -2 27q0 74 72 74q14 0 41 -5.5t41 -5.5q10 0 35 15h63q39 20 78 20q33 0 63 -12q29 0 99 18q23 -8 57 -8 q16 8 41 8q35 -6 71 -13t36 -54q0 -23 -25 -60.5t-23 -62.5q-12 -31 -26.5 -62.5t-44.5 -39.5q-43 -57 -113 -179q-70 -74 -84 -151q-10 -23 -61 -55v-7q2 -57 -60 -94q-16 -55 -16 -71q0 -43 39 -68q80 31 121 31q27 0 49 -9q109 18 133 19q111 -1 111 -64q0 -27 -37 -51 q-29 -18 -58 -35q-16 -1 -36 -1q-55 0 -142 8q-43 -18 -133 -43q-41 -4 -123 -23q-16 -8 -72 -49q-43 -33 -71 -33q-33 0 -68 12q-25 55 -24 72z" />
<glyph unicode="[" horiz-adv-x="403" d="M-20 983v6q0 74 38 94q37 0 111 12.5t111 12.5q14 0 46.5 -3t49.5 -1q41 -39 41 -80q-20 -41 -101 -80q-18 -96 -18 -260v-18q16 -16 16 -39q0 -14 -9 -40t-9 -40q0 -37 14.5 -117t14.5 -117q0 -31 -6 -55q6 -14 0 -68q-4 -43 18 -53h59q27 -27 33 -42t6 -56 q0 -18 -30.5 -19.5t-28.5 -19.5q-20 4 -45 4q-29 0 -87.5 -9t-86.5 -9q-43 0 -78 14q-20 -2 -21 39q0 25 50 65q35 27 69 54q12 39 13 106q0 43 -8.5 129t-8.5 131q0 47 5 143.5t5 143.5q0 53 -6 94l-39 39q-80 0 -118 39z" />
<glyph unicode="\" horiz-adv-x="1091" d="M92 1290q14 -68 93 -230.5t126 -225.5q23 -23 70 -72q61 -68 137 -199q14 -27 135 -278q92 -190 150 -254l-2 -8q115 -215 129 -240q47 -31 82 -31q25 0 47 15q-16 70 -64 202q-86 72 -166 221q-45 86 -127 281q-78 186 -120 260q-61 37 -117 143q-61 121 -100 158v12 q4 66 -78 158q-63 66 -127 131l-29 -8z" />
<glyph unicode="]" horiz-adv-x="417" d="M-31 977v4q0 78 51 78q63 0 188.5 30.5t188.5 30.5q52 0 52 -78v-18q-133 -25 -160 -47q-39 -35 -39 -160q0 -39 3 -113.5t3 -111.5q0 -111 -20 -184q23 -33 22 -80q0 -14 -2 -39t-2 -35q0 -90 135 -113v-20q0 -76 -52 -76t-134 -35q-98 -41 -133 -47q-41 41 -41 113 q90 39 90 55q0 31 -2 90.5t-2 87.5q0 76 8 228.5t8 228.5q0 51 -6 172l-96 -20z" />
<glyph unicode="^" horiz-adv-x="3637" d="M135 731h62l12 -278l18 278h56l20 -276l12 276h62l-47 -412h-49l-25 261l-25 -261h-47zM199 1243q0 86 26 164q37 106 107 106t106 -106q29 -78 29 -164t-29 -164q-37 -104 -106 -104q-70 0 -107 104q-27 78 -26 164zM223 1243q0 -68 23 -131q31 -86 86 -86t86 86 q22 61 22 131t-22 133q-29 84 -86 84q-55 0 -86 -84q-23 -63 -23 -133zM266 1241q0 152 68 152q43 0 59 -86l-28 -13q-8 49 -31 49q-37 0 -37 -100t35 -100q25 0 33 61l28 -20q-12 -90 -59 -90q-68 0 -68 147zM391 731h62l12 -278l18 278h56l20 -276l12 276h62l-49 -412h-49 l-23 261l-25 -261h-49zM496 987q70 242 69 391q0 61 -35 62q-20 0 -32 -17v68q31 29 59 29q82 0 82 -129q0 -102 -53 -334h57v-70h-147zM518 188h72v-237h37v237h69v-528h-69v223h-37v-223h-72v528zM647 731h60l14 -278l18 278h56l20 -276l12 276h62l-49 -412h-49l-23 261 l-25 -261h-49zM668 1249q0 270 94 271q96 -1 96 -275q0 -262 -90 -262q-100 0 -100 266zM735 188h70v-458h43v-70h-113v528zM743 1221q0 -129 21 -156q20 31 20 156v84q-2 100 -20 133q-20 -27 -21 -140v-77zM862 -137q0 207 76 207q78 0 78 -207t-74 -207q-80 0 -80 207z M883 1249q0 270 94 271q96 -1 96 -275q0 -262 -92 -262q-98 0 -98 266zM901 358q0 39 39 39t39 -39t-39 -39t-39 39zM926 -111v-49q0 -98 14 -114q14 18 14 112v49q0 100 -14 113q-14 -12 -14 -111zM956 1221q0 -129 23 -156q18 31 18 156v84q0 100 -20 133 q-20 -27 -21 -140v-77zM1001 324v528h60v-141q20 25 43 24q49 0 49 -73l2 -338h-61v329q0 20 -15 21l-18 -12v-338h-60zM1042 188h60v-141q20 25 43 25q51 0 51 -74v-338h-61v330q0 20 -15 20l-18 -12v-338h-60v528zM1083 1034q49 61 82 152q-78 59 -78 164q0 57 19 104 q25 63 72 64q51 0 75 -66q19 -50 19 -111q0 -86 -43 -193.5t-105 -170.5zM1159 1362q0 -66 31 -98q10 31 10 86q0 63 -20 86q-20 -14 -21 -74zM1188 489v62q0 182 125 182h28q0 -27 -2 -92.5t-2 -97.5q1 -154 21 -170l-35 -54q-20 6 -33 37q-18 -37 -43 -37q-59 0 -59 170z M1217 27l38 43q18 -4 31 -27q23 27 47 27q49 0 49 -68v-342h-61v334q0 16 -16 16l-15 -10v-340h-61q0 -8 4 111q4 100 2 159q-4 86 -18 97zM1249 471q0 -90 21 -92l10 4v274q-31 -10 -31 -98v-88zM1364 690l37 43q33 -12 39 -57q18 29 57 57v-76q-20 -4 -38.5 -24.5 t-18.5 -42.5v-266h-62q0 -6 4 112q4 98 0 158q-2 82 -18 96zM1403 987v529h72v-238h36v238h72v-529h-72v223h-36v-223h-72zM1413 -84q0 154 76 154t76 -119q0 -109 -88 -131q0 -98 59 -99l27 9v-68q-14 -6 -33 -6q-117 0 -117 205v55zM1475 -59v-54q28 11 28 62q0 39 -12 57 q-16 -27 -16 -65zM1513 526q0 207 76 207t76 -207t-74 -207q-78 0 -78 207zM1575 504q0 -98 14 -115q14 18 15 113v51q0 98 -15 111q-14 -12 -14 -111v-49zM1579 25l37 45q33 -12 37 -58q20 29 59 58v-76q-23 -4 -41 -25.5t-18 -42.5v-266h-62q0 -6 4 113q4 98 2 157 q-4 82 -18 95zM1618 1153v61q0 182 125 183h29q0 -27 -2.5 -92.5t-2.5 -98.5q1 -154 21 -170l-37 -53q-18 6 -31 37q-18 -37 -43 -37q-59 0 -59 170zM1679 1135q0 -90 21 -91l10 3v274q-31 -10 -31 -98v-88zM1696 375v477h61v-446q1 -33 19 -41l-47 -46q-33 10 -33 56z M1739 -106q0 84 20 155q33 104 94 105q53 0 80 -80q19 -55 19 -125q0 -49 -13 -103q-16 -76 -47 -75q-29 0 -26 61q-12 -61 -37 -61q-39 0 -39 106q0 45 12 92q16 70 45 70q25 0 29 -51l6 39h23q-18 -170 -19 -181q0 -18 10 -26q31 2 31 133q0 154 -72 153q-51 0 -75 -83 q-18 -61 -19 -132q0 -66 17 -120q25 -78 71 -78q39 0 72 63l10 -37q-37 -74 -84 -73q-61 0 -90 98q-18 68 -18 150zM1794 463v90q0 182 92 180v119h62q0 12 -4 -143q-4 -133 -2 -211q4 -111 20 -125l-35 -54q-27 6 -33 37q-20 -37 -41 -37q-59 0 -59 144zM1794 1354l37 43 q33 -10 37 -58q20 29 59 58v-76q-20 -4 -39.5 -24.5t-19.5 -43.5v-266h-60q0 -6 4 113q2 98 0 157q-4 82 -18 97zM1819 -129q0 -45 18 -53q14 0 25 61q6 45 6 76q0 33 -15 39q-35 0 -34 -123zM1855 467q0 -88 21 -88l10 6v274q-31 -8 -31 -88v-104zM1942 1190q0 207 75 207 q78 0 78 -207t-74 -207q-80 0 -79 207zM1972 330v61q10 -12 25 -12q31 0 31 31q0 41 -28 116.5t-28 114.5q0 94 64 94q18 0 41 -14v-55l-23 10q-25 0 -24 -33q0 -39 26.5 -114.5t26.5 -116.5q0 -92 -70 -93q-23 0 -41 11zM1987 -113q0 182 124 183h29q0 -27 -4 -97 q-2 -61 -2 -94q0 -154 20 -170l-34 -53q-18 6 -33 35q-16 -35 -41 -35q-59 0 -59 168v63zM2005 1167q0 -98 14 -112q14 16 15 112v50q0 98 -15 110q-14 -12 -14 -110v-50zM2048 -104v-89q0 -92 20 -92l11 4v275q-31 -10 -31 -98zM2099 246v67q27 -2 27 52v313h-27v53h27 q0 127 78 125h10v-59q-31 -2 -29 -43v-23h29v-53h-29v-324q0 -109 -86 -108zM2126 1038v478h61v-445q1 -35 19 -43l-47 -45q-33 10 -33 55zM2165 -137q0 207 76 207q77 0 77 -207t-73 -207q-80 0 -80 207zM2224 1126v91q0 182 92 182v117h62q0 14 -4 -144q-4 -133 -2 -211 q4 -111 20 -125l-37 -53q-25 6 -31 37q-23 -37 -40 -37q-59 0 -60 143zM2228 -113v-47q0 -98 15 -114q14 18 14 114v49q0 98 -14 111q-14 -12 -15 -113zM2232 526q0 207 76 207t76 -207t-74 -207q-78 0 -78 207zM2286 1133q0 -90 20 -91l10 7v274q-31 -8 -30 -88v-102z M2294 504q0 -98 14 -115q14 18 14 113v51q0 98 -14 111q-14 -12 -14 -111v-49zM2349 188h59v-446q1 -33 21 -41l-47 -45q-33 10 -33 53v479zM2400 690l37 45q18 -4 31 -28q23 29 47 28q49 0 49 -69v-342h-61v333q0 16 -15 17l-16 -10v-340h-59q0 -8 4 110q2 100 0 162 q-2 84 -17 94zM2437 -305q0 39 39 39t39 -39t-39 -39t-39 39zM2490 987v529h72v-459h43v-70h-115zM2531 -96q0 166 86 166q12 0 29 -4v-62l-16 4q-37 0 -37 -100v-94q0 -96 33 -97l20 9v-60q-16 -12 -31 -12q-84 0 -84 180v70zM2587 678v18q23 23 73 101h19v-66h31v-53h-31 v-279q0 -31 31 -16v-51q-16 -12 -33 -13q-59 0 -60 72v287h-30zM2619 1190q0 207 76 207q78 0 78 -207t-74 -207q-80 0 -80 207zM2662 -137q0 207 76 207t76 -207t-74 -207q-78 0 -78 207zM2681 1167q0 -98 16 -112q14 16 15 112v50q0 100 -15 110q-16 -12 -16 -110v-50z M2724 -111v-49q0 -98 16 -114q14 18 15 112v49q0 100 -15 113q-16 -12 -16 -111zM2726 330v61q10 -12 24 -12q31 0 31 31q0 41 -27.5 116.5t-27.5 114.5q0 94 63 94q18 0 41 -14v-55l-22 10q-25 0 -25 -33q0 -39 26.5 -114.5t26.5 -116.5q0 -92 -69 -93q-23 0 -41 11z M2800 987v529h59v-142q20 25 43 25q49 0 49 -74v-338h-59v332q0 18 -17 18l-16 -12v-338h-59zM2836 27l35 43q27 -6 33 -29q20 29 47 29t43 -29q25 29 49 29q47 0 47 -72v-338h-61v328q0 20 -14 20l-17 -12v-336h-59v330q0 18 -14 18l-19 -12v-336h-59q0 -8 2 111 q4 102 2 161q-2 86 -15 95zM2849 358q0 39 41 39q39 0 39 -39t-39 -39q-41 0 -41 39zM2943 498v69q0 168 86 168q14 0 29 -6v-61q-16 4 -17 4q-37 0 -37 -101v-94q0 -96 33 -96l21 8v-59q-16 -12 -31 -13q-84 0 -84 181zM2974 1354l39 45q16 -4 30 -29q23 29 47 29 q47 0 48 -70l2 -342h-62v334q0 16 -16 16l-15 -10v-340h-61q0 -8 4 111q4 102 2 162q-4 84 -18 94zM3074 526q0 207 76 207q78 0 78 -207t-74 -207q-80 0 -80 207zM3138 504q0 -98 14 -115q14 18 14 115v49q0 98 -14 111q-14 -12 -14 -111v-49zM3168 1190v55q0 152 78 152 q76 0 76 -119q0 -106 -88 -129q-2 -100 59 -100l25 8v-68q-12 -6 -33 -6q-117 0 -117 207zM3232 1217q28 10 28 61q0 39 -12 57q-16 -29 -16 -67v-51zM3248 692l37 43q25 -8 31 -30q23 31 49 30q27 0 41 -30q25 31 49 30q47 0 47 -71v-340h-59v327q0 23 -15 21l-16 -13v-335 h-61v329q0 20 -15 19l-16 -13v-335h-62q0 -6 4 110q2 102 0 164q-2 84 -14 94zM3336 1354l35 43q35 -10 39 -58q18 29 57 58v-76q-20 -4 -38.5 -24.5t-18.5 -43.5v-266h-62q0 -6 5 113q4 100 0 157q-2 82 -17 97z" />
<glyph unicode="`" horiz-adv-x="860" d="M256 1452q154 -78 279 -203h57q35 0 35 56v14q-35 18 -131 127q-80 90 -146 90q-41 0 -94 -18v-66z" />
<glyph unicode="a" horiz-adv-x="790" d="M-49 57q0 18 2 41q51 78 104 238q55 170 97 239q8 86 32 246q31 190 50 232q41 86 151 86q27 0 55 -9q94 -102 111 -317l37 -39l-2 -12q0 -25 15 -69t15 -66q0 -16 -6 -31q43 -82 118 -249t118 -249q-25 -59 -113 -59h-12q-55 86 -109 172q-66 72 -186 72 q-145 0 -293 -113q-2 -27 -24.5 -76t-24.5 -76q-22 -38 -90 -38h-4h-8q-33 18 -33 77zM211 412q0 -37 43 -56q27 12 129 27q80 10 117 53l10 119q-12 27 -57 154q-31 96 -76 145h-39q-12 -12 -22.5 -41t-22.5 -39q0 4 1 4t1 -114q0 -70 -41 -109q-2 -23 -22.5 -71t-20.5 -72 z" />
<glyph unicode="b" horiz-adv-x="860" d="M41 1018q41 74 133 98q57 16 178 19q129 2 172 12q10 -6 109 -33q63 -18 92 -59q10 -37 10 -74q0 -162 -174 -238q-2 -12 -23.5 -26.5t-23.5 -26.5q12 -10 42 -10t42 -8q57 8 104 8q115 0 213 -64v1q3 0 3 -140q0 -31 -5 -55q-31 -41 -102 -92q-78 -55 -121 -62 q-326 -227 -604 -272l-37 35q0 33 4 102.5t4 104.5q0 27 -6 80t-6 79q0 33 23 56q4 20 4 43q0 39 -12.5 115.5t-12.5 115.5q0 27 13.5 78t13.5 80q0 37 -33 133zM168 289q0 -47 18 -84q23 -49 64 -51q223 129 475 288q20 19 20 54q0 72 -110 100q-152 -39 -301 -78 q-166 -63 -166 -229zM186 817q0 -31 2 -86t2 -80l17 -14q12 2 33.5 17.5t38.5 17.5q82 66 163 131q95 80 138 158q-29 71 -105 71h-2q-23 0 -166 -37q-76 -20 -100 -61q-20 -33 -21 -117z" />
<glyph unicode="c" horiz-adv-x="817" d="M-20 393q0 35 2 90q2 68 2 90q82 131 96 275q31 12 57 61q12 25 92 101.5t113 99.5q47 25 139 76q88 -10 156 -49q86 -49 86 -127q0 -29 -12 -58q-23 4 -86 29q-55 23 -86 23q-16 0 -30.5 -8.5t-80.5 -22.5q-53 -10 -63 -37q-92 -8 -168 -184q-49 -129 -97 -258l-2 -27 v-8q0 -43 19 -111q23 -90 26 -119q25 -33 51.5 -67.5t67.5 -34.5q250 0 369 172q10 4 69 45q39 27 76 27q43 0 98 -31l-34 -115q-74 -57 -111 -82q-70 -47 -123 -55q-78 -123 -293 -123q-10 0 -147 6q-186 106 -186 422z" />
<glyph unicode="d" horiz-adv-x="905" d="M51 111v16q0 190 12 287q2 12 21 123q12 76 12 125q0 66 -12 192.5t-12 187.5q37 51 108 60h129q25 0 72 6t70 6q186 0 319 -76q150 -86 195 -254q-18 -92 -31 -141q-25 -90 -49 -135q-90 -168 -278.5 -302t-377.5 -175l-39 -41h-79q-23 0 -37 51q-18 63 -23 70zM182 362 q0 -72 19 -133q39 -41 129 -41q104 63 211 127q129 82 176 160q90 146 90 248q0 53 -21 102q-33 33 -63 68q-39 39 -76 51q-27 -4 -53 -4q-33 0 -97.5 9t-97.5 9q-61 0 -125 -32q-77 -39 -77 -94q0 -26 8 -70.5t8 -67.5q0 -57 -15.5 -166.5t-15.5 -165.5z" />
<glyph unicode="e" d="M51 49q0 57 6 156q6 117 6 155q8 262 9 666l45 45q70 0 174 23q156 36 169 36h1q40 -26 87 -26h3q41 0 119 24.5t118 24.5q16 0 33 -4q35 -33 35 -68q0 -37 -35 -69q-98 0 -289.5 -30t-287.5 -30q-55 -35 -58 -123q-2 -72 -4 -143q10 -16 11 -33q0 -14 -8.5 -39.5 t-8.5 -40.5q0 -25 27 -38q55 0 162.5 21.5t164.5 21.5q70 0 136 -25q6 -20 6 -37q0 -47 -72 -82q-29 2 -87 14.5t-89 12.5q-20 0 -39 -4q-27 -25 -90 -39q-72 -14 -92 -25q-43 -25 -43 -84q0 -20 6 -60t6 -59q37 -53 86 -53q20 0 57 19.5t101 36.5q90 20 104 26 q20 -20 45 -20t73 20.5t77 20.5q12 0 26 -4l45 -46v-49q-76 -55 -161 -55q-39 0 -84 10q-2 -2 -41 -22q-25 -12 -35 -37q-49 0 -147.5 -21.5t-147.5 -21.5q-31 0 -59 6v8q0 8 -30 10t-30 31z" />
<glyph unicode="f" horiz-adv-x="792" d="M31 340q37 115 41 373q4 248 53 370q39 0 122 -3t124 -3q197 0 297 80q29 -31 65 -31q14 0 44 4.5t42 6.5q0 -55 -14 -86q-12 -23 -55 -66l-50 2h-8q-71 0 -201 -35q-137 -37 -202 -37q-20 0 -41 3q-20 -61 -39 -125q-23 -76 -23 -129q0 -88 68 -125q57 2 165.5 46 t170.5 44q76 0 160 -62q-63 -63 -234 -116q-158 -47 -260 -48q-70 -57 -70 -145q0 -35 15.5 -99.5t15.5 -97.5q0 -20 -3 -60t-3 -60h-129q-18 59 -19 112q0 27 4.5 76t4.5 74q0 76 -41 137z" />
<glyph unicode="g" horiz-adv-x="931" d="M-51 518q0 2 4 39q63 135 129 268q80 152 199 211q35 0 79 23q37 18 74 37q61 26 162 26h8q129 0 170 8q164 -39 164 -116q0 -35 -27 -74q-70 20 -139 41q-80 23 -141 23q-254 0 -469 -302q-2 -94 -58 -151q-18 -90 -18 -148q0 -84 35 -143q76 -47 223 -149q20 -4 43 -5 q35 0 98.5 11.5t94.5 13.5q18 25 59 45q59 29 64.5 32t74.5 75l2 12q0 16 -49 16q-12 0 -32.5 5.5t-32.5 5.5q-43 0 -125 -20.5t-125 -20.5q-72 0 -123 43v47l43 43q254 0 455 75q109 0 198 -59q8 -26 8 -51q0 -63 -63 -119q-57 -43 -113 -86q-2 -25 -36.5 -55.5 t-43.5 -44.5q-16 0 -44.5 -22.5t-51.5 -16.5l-39 -39q-16 6 -33 6q-27 0 -61 -16q-57 -25 -59 -27q-39 20 -154 21q-135 0 -244 126q-104 121 -104 261q0 55 18 108q-20 14 -20 43z" />
<glyph unicode="h" horiz-adv-x="690" d="M51 70q16 84 17 192q0 59 -7.5 179t-7.5 180q0 141 29 243q-18 39 -19 88q0 31 31 170h90q25 -70 25 -186q0 -59 -17.5 -181t-17.5 -186v-61l64 -59q211 0 313 77q-4 16 -4 107q0 43 -21 74l-2 49q0 70 13 174q12 86 24 174q14 0 42 12t44 12l23 -6q0 -14 4 -26.5 t16 -12.5q-28 -95 -28 -242v-10q0 -45 2 -124q27 -12 26 -43q0 -31 -10 -90.5t-10 -88.5q0 -66 22 -206q17 -120 17 -191v-14v-43q-14 2 -19 -15q-2 -10 0 -24q-31 -20 -55 -21q-20 0 -43 19.5t-23 40.5l-10 258q-33 61 -100 61q-57 0 -99 -41q-16 4 -32 4q-27 0 -64 -16 q-59 -27 -61 -29q-23 -33 -23 -78q0 -31 15.5 -90t17.5 -90q-29 -63 -70 -63q-53 0 -63 45q-16 66 -29 78z" />
<glyph unicode="i" horiz-adv-x="268" d="M61 909q0 33 20.5 90.5t22.5 87.5h13q10 0 18 3.5t8 13.5h11q0 -12 18 -14q10 -2 31 -3q30 -78 30 -253v-11q0 -43 -12 -125t-12 -125t4 -127t4 -127q0 -82 -12 -139q24 -24 24 -58q0 -16 -3 -44q-3 -27 -3 -39q-33 -70 -86 -70q-16 0 -33 6q-2 25 -21.5 71t-19.5 73 q27 72 27 172q0 59 -13.5 179t-13.5 177q20 30 20 78q0 8 -1 18q-3 33 -3 56q0 31 5 45q-23 31 -23 65z" />
<glyph unicode="j" horiz-adv-x="462" d="M-31 326q0 94 54 96q20 10 40 10q29 0 56 -37q18 -29 37 -59v-68q18 -12 77 -78q49 -55 78 -59l60 57q-8 47 -9 101q0 57 11.5 170.5t11.5 171.5q0 139 -51 239q0 18 -4 56.5t-4 58.5q0 74 57 129h102v-893q0 -12 3.5 -34.5t3.5 -32.5q0 -182 -201 -183q-45 0 -94 11 q-66 86 -129 172q-98 133 -99 172z" />
<glyph unicode="k" horiz-adv-x="796" d="M31 4q92 246 92 639q0 70 -3 208t-3 206q0 57 92 57h18q16 -51 17 -102q0 -41 -7.5 -121t-7.5 -121q0 -33 2 -65l107 30q59 47 149.5 149.5t139.5 141.5q86 70 188 90q6 -28 6 -59q0 -82 -61 -148q-39 -41 -139.5 -101t-135.5 -93q20 -109 164 -332q129 -201 129 -350 h-110q-16 45 -123 213q-92 145 -92 203q0 31 -74 88h-72q-82 -86 -82 -287q0 -39 3 -114t3 -103q-25 -2 -48 -62.5t-56 -62.5z" />
<glyph unicode="l" horiz-adv-x="552" d="M51 127q25 86 25 203q0 47 -5 140t-5 140q0 20 9 57.5t9 55.5q0 37 -16 113q-14 68 -13 107v9v33q33 37 33 74v8q41 2 39 25l8 4q10 0 22.5 -12.5t20.5 -12.5l10 4l-2 -31v-12q0 -33 8 -86q10 -63 11 -92q0 -18 -6 -53t-6 -53q0 -41 9 -123t9 -123q0 -72 -23 -125 q2 -45 2 -90q0 -53 15 -86q70 -31 80 -31q23 0 41 20h22h3q34 0 89 41t92 41h3l22 -2q29 -24 29 -59q0 -29 -22.5 -61.5t-51.5 -40.5q-43 -8 -125 -31q-70 -29 -139 -58q-78 -30 -142 -30h-4h-18q-25 39 -33 137z" />
<glyph unicode="m" horiz-adv-x="880" d="M31 -2q18 90 30 240q16 188 25 241q10 88 61 383q6 53 29 158q23 74 74 104q33 4 43 4q31 0 59 -38q20 -8 22 -48.5t21 -50.5q-18 -35 -18 -73q-1 -35 19 -108q16 -61 17 -100q0 -8 -1 -16q12 -14 26 -94q12 -70 37 -84q25 16 34 91t21 93q4 31 31 203t29 178 q12 25 35 37q35 20 43 27q45 -8 75 -62q27 -45 52 -90l-2 -82v-17q0 -417 147 -788q-27 -61 -96 -65q-20 8 -35 35q-23 35 -29 41q-4 90 -43 266t-45 266q-18 -3 -20 55q-2 54 -20 54h-3q-18 -63 -55 -156q6 -35 6 -72q0 -78 -35 -213q-39 -147 -43 -213q-32 -36 -76 -36h-2 q-27 0 -59 8q-35 98 -35 280q0 94 -14 201q-23 156 -62 162q-14 -16 -28.5 -56t-28.5 -59q-10 -133 -22 -268q-10 -119 -10 -209q0 -32 1 -61q-23 -33 -43 -68q-27 -35 -71 -37z" />
<glyph unicode="n" horiz-adv-x="620" d="M41 788q0 29 27 41q6 18 6 39q0 20 -7.5 61.5t-7.5 61.5q0 109 88 109q35 0 78 -23q39 -391 197 -571q16 -18 33.5 -63.5t27.5 -57.5q2 8 2 109q0 33 9 47l2 59q0 66 -13.5 190.5t-13.5 184.5q0 16 11.5 46t13.5 46q39 37 77 37q39 0 52 -45q-9 -30 -9 -110v-17v-13 q0 -72 -20 -112l12 -344q10 -201 43 -340q-20 -18 -33.5 -68.5t-33.5 -68.5h-43q-23 12 -35 39q-18 35 -27 45l2 39q-6 6 -22 43q-14 25 -35 34v9v6q0 73 -51 149q-49 68 -97 135v39q-43 92 -84 154v-129q0 -319 19 -551h-6q-16 2 -17.5 -27.5t-25.5 -29.5l-41 2l-41 43v28 q0 41 -8.5 119t-8.5 117q0 47 9.5 145.5t9.5 147.5q0 47 -19.5 129t-19.5 116z" />
<glyph unicode="o" horiz-adv-x="903" d="M-33 326q4 90 37 264q27 76 92.5 182.5t120.5 161.5v41q49 94 184 127q78 18 236 18q29 0 123 -39q88 -35 117.5 -57.5t50.5 -67.5q39 -77 39 -79q0 -156 -43 -326q-47 -186 -129 -299q-33 -45 -133.5 -100.5t-135.5 -108.5q-180 -59 -258 -59q-96 0 -166 77 q-57 76 -116 152q6 39 6 53q0 35 -25 60zM117 365q0 -98 22 -138q25 -49 107 -88h51q49 0 106 27q49 25 99 51q29 57 94 57q223 197 256 512q-55 109 -162 162q-25 0 -79 3t-81 3q-66 0 -133 -26q-86 -33 -86 -88q0 -18 -39 -49q-27 -20 -55 -41q-8 -39 -61 -185 q-39 -102 -39 -200z" />
<glyph unicode="p" horiz-adv-x="700" d="M20 1042q10 27 39 31q6 2 52 2q53 0 159.5 6t159.5 6q164 0 293 -61q22 -70 22 -133q0 -47 -14 -92q-20 -59 -59 -66q-53 -59 -107 -119q-66 -66 -135 -73q-35 -39 -143 -101q-100 -55 -135 -108v-31q-1 -8 -1 -17q0 -50 19 -126q27 -104 31 -142l-39 -47h-12h-6 q-100 0 -101 129q0 16 2 48t2 47q0 35 -5 105.5t-5 105.5q0 41 7 123.5t7 125.5q0 242 -31 387zM147 700q0 -90 43 -137q88 8 248 121q170 121 166 199v6q-82 76 -172 76q-43 0 -108 -13q-88 -14 -111 -16q-66 -94 -66 -236z" />
<glyph unicode="q" horiz-adv-x="948" d="M-35 428q0 80 35 147q35 86 80 185l217 217q27 27 168 74t188 47q70 0 154 -41q16 -10 137 -82q70 0 70 -201t-70 -201q-92 -90 -123 -145q-41 -74 -41 -182q59 -61 60 -164q18 2 20 -27.5t19 -31.5q6 -45 6 -54q0 -29 -21 -51q-68 -4 -53 -4q-27 0 -47 66 q-31 96 -41 118q-35 66 -98 66q-14 0 -142.5 -63.5t-226.5 -63.5q-291 0 -291 391zM104 326q27 -41 85.5 -83t101.5 -42q31 0 85 21.5t85 21.5q14 0 31 -4q25 12 38 39q18 37 29 47q-2 4 -29 61q-18 37 -18 64t23 49q16 4 26 4q31 0 129 -68q18 20 27 27q18 14 35 16 q63 63 143 264q0 104 -64 168q-104 41 -188 41q-61 0 -119 -22q-86 -86 -217 -119q-63 -63 -117 -182q-43 -100 -86 -201v-102z" />
<glyph unicode="r" horiz-adv-x="849" d="M20 1016q0 31 17 76q57 -10 51 -11q18 0 31 29l26 -29q39 2 164 17q100 12 164 12q35 0 68 -4q98 -49 297 -66q69 -41 69 -139q0 -14 -1 -40.5t-3 -39.5q-76 -74 -151 -147q-96 -80 -187 -88q-33 -51 -93 -51h-9l-53 -50v-30q43 -51 49 -56q29 -27 63 -28 q37 -51 115 -101q109 -70 129 -86q0 -10 12.5 -30.5t12.5 -32.5q0 -16 -9 -31q-27 -8 -53 -8q-90 0 -207 92q-92 76 -182 152l-12 -2q-23 0 -54.5 24.5t-50.5 26.5q-27 -12 -69 -103q18 -84 18 -239v-31h-4q-16 0 -17 -27.5t-24 -27.5q-12 0 -49 4l-45 49q0 27 -2 83t-2 85 q0 150 43 233q0 27 -12.5 79t-12.5 79q0 23 6 41q-14 49 -14 127q0 39 6 104q6 76 8 105q-33 37 -33 80zM172 651q37 -73 96 -73h2q6 0 129 59q143 70 150 72q121 55 176 116v7q0 63 -35 102q-84 33 -211 43q-106 6 -215 14q-47 -31 -63 -94q-10 -39 -13.5 -125t-15.5 -121z " />
<glyph unicode="s" horiz-adv-x="796" d="M-51 463q0 84 41 285q12 16 71 129q43 80 91 112q59 49 182 141h305q70 -68 70 -120q0 -18 -7 -39h-14q-12 0 -19 -7.5t-3 -19.5q-141 72 -201 72q-20 0 -43 -4q-102 -88 -205 -176q-127 -119 -127 -220q0 -57 51 -81q63 0 180 41.5t179 41.5q147 0 321 -86 q31 -79 31 -147t-31 -145q-129 -111 -217 -160q-119 -65 -229 -65q-15 0 -29 1q-4 -16 -33.5 -18t-25.5 -21h-172l-47 46v6q0 86 49 108q88 0 227 33q176 39 225 47q45 35 88 70q47 45 48 98q0 39 -66 70q-51 24 -96 24h-4q-29 0 -70 -18q-53 -23 -66 -27q-68 -8 -198 -31 q-10 -2 -60 -20q-35 -12 -59 -12q-100 0 -137 92z" />
<glyph unicode="t" horiz-adv-x="604" d="M-61 1051q0 31 24 41h82q55 -2 82 -2q209 0 332 61q100 0 159 -18q31 -29 31 -60t-31 -59h-75h-6q-145 0 -195 -101q-6 -88 -6 -186q0 -123 12 -368.5t12 -366.5q-27 -12 -55 -12q-47 0 -63 32q2 16 2 33q0 37 -21.5 110.5t-21.5 112.5q0 43 20 80q0 12 9.5 37t9.5 39 q0 16 -19 25q0 49 4 145t4 145q0 82 -8 154q-4 14 -20 41q-12 -4 -13 -4q-14 0 -36.5 13t-34.5 13q-20 0 -35 -22q-80 0 -139 59q0 8 -2 27.5t-2 30.5z" />
<glyph unicode="u" horiz-adv-x="534" d="M41 657q0 41 8 127t8 129t-6 78l60 125q16 0 28.5 5t12.5 18h4h5q22 -1 37 -17q17 -18 33 -37q0 -80 -32.5 -192.5t-32.5 -132.5q0 -14 2 -42t2 -42q0 -43 -18 -74q25 -188 59 -391q18 -33 56 -33h9l33 2q45 63 78 240q29 152 29 260q0 49 -5 148.5t-5 148.5q0 88 16 115 q25 35 106 41q0 -41 39 -76q0 -55 -20.5 -167t-20.5 -167q0 -68 23 -125q-14 -2 -14 -25q0 -12 4 -36.5t4 -36.5q0 -20 -15 -23q-20 -168 -43 -250q-39 -137 -116 -221q-18 -2 -78 -12q-49 -10 -80 -10q-20 0 -41 6q-76 84 -98 248q-10 139 -21 276q-10 92 -10 143z" />
<glyph unicode="v" horiz-adv-x="587" d="M12 991q4 8 15 84q8 63 20 64q29 0 53 12q31 -23 45 -100q6 -59 13 -117q6 -41 45 -225q30 -131 30 -222v-6q0 -20 13.5 -51t27.5 -37h2q12 -2 21 -26q10 -33 14 -37q2 29 25 96q18 61 18 98q0 109 66.5 310.5t66.5 308.5q0 49 95 49q49 0 49 -84v-10 q-104 -209 -166 -551q-27 -154 -51 -307q-43 -256 -54 -269q-21 -24 -68 -24h-11h-11q-37 37 -53 149q-10 92 -88 117q18 18 18 43q0 16 -10 50t-10 50q0 23 14 37q-12 43 -49 303q-29 184 -80 295z" />
<glyph unicode="w" horiz-adv-x="778" d="M0 1038q0 41 14 70q14 0 26.5 4t12.5 16h2q27 0 80 -49q-2 -23 -2 -47q0 -59 19 -164q20 -115 22 -163q8 -12 8 -105q0 -29 11 -41q37 78 55 223q12 89 12 172q0 31 -2 60q18 39 98 41q20 -8 35 -31q20 -31 27 -37q12 -233 14 -256q18 -145 72 -244l41 2q73 127 73 378v7 v48v47q0 92 15 118q18 41 117 41q18 0 21.5 -27.5t21.5 -23.5q-25 -115 -82 -344q8 -27 8 -57q1 -30 -9 -88q-8 -48 -8 -77v-11q-45 -80 -53 -224q-14 -195 -22 -229q-35 -53 -88 -53q-43 0 -70 43q-18 137 -61 409q-16 18 -28.5 93t-27.5 92q-16 -20 -31.5 -94t-31.5 -97 q-12 -55 -19 -235q-6 -147 -37 -234h-45h-6q-50 0 -69 31q-4 78 -37 356q-22 191 -22 319q0 21 1 40q-18 14 -24 31q-2 14 0 34q2 33 2 39q0 33 -27 53q4 18 4 37q0 23 -5 65t-5 62z" />
<glyph unicode="x" horiz-adv-x="724" d="M-41 1061q18 23 51 24q27 2 29 17l22 2h9q62 0 102 -53q27 -37 58.5 -130.5t50.5 -121.5q-2 -12 25.5 -13.5t33.5 -15.5q51 27 137 201q78 159 120 159h1q25 0 96 -53q-10 -41 -39 -88q-39 -59 -47 -80q-43 -94 -86 -157l-106 -140l10 -112l74 -82q45 -49 59 -92 q16 -12 100 -103q58 -64 117 -76q-4 -45 -59 -92t-103 -47l-22 4l-47 43q-10 121 -99 199l-2 41q-23 33 -45 63q-31 33 -63 33l-25 -2q-60 -69 -60 -141q0 -8 1 -15q-49 -39 -84 -131q-53 -145 -55 -151h-6q-37 0 -56 -23q-55 27 -61 119q27 16 67 119q25 70 49 139 q59 47 98.5 123t39.5 147q0 23 -15 58q-16 43 -18 59l-43 39q-45 162 -150 213h-3q-31 0 -42 45q-6 37 -14 72z" />
<glyph unicode="y" horiz-adv-x="899" d="M0 733q0 57 41 297q16 27 33.5 55.5t54.5 28.5q41 0 70 -65q-39 -98 -39 -291v-6q33 -66 98 -101q74 25 150 119q90 113 129 141q82 53 161 109q74 55 138 149q18 4 38 5q84 0 84 -76q0 -14 -4 -29q-63 -43 -165.5 -150.5t-133.5 -127.5q-2 -2 -118 -60q0 -33 -41 -55 q-49 -27 -58 -43q-20 -35 -20 -150q0 -82 29.5 -243.5t29.5 -243.5q-20 -39 -90 -39h-8q-82 188 -82 479q-18 25 -18 88v13q-2 0 -107 12q-66 8 -94.5 47t-77.5 137z" />
<glyph unicode="z" horiz-adv-x="768" d="M-37 43q0 33 12 61q20 29 58 84q111 168 178 322q29 29 61 90q37 70 51.5 85t43.5 44q33 37 73 111q47 88 66 114q-74 14 -123 15q-68 0 -107 -25q-37 0 -92 14q-27 -14 -57 -14q-37 0 -59 19q-6 29 -7 53q0 57 39 76q121 -10 156 -11q51 0 96 6q16 25 78 25q27 0 79 -10 t79 -10q35 0 61 10q84 0 84 -72q0 -41 -33 -108q-96 -74 -170 -170l-20 -7q-29 -41 -41 -59q-27 -31 -53 -49q-29 -53 -94 -158q-2 -14 -7 -45q-41 -66 -82 -133q-61 -102 -61 -129q0 -18 25 -18q43 0 125 41q61 -6 94 -7q78 0 133 27l123 2q75 0 149 -16l-2 4h-4 q-18 -35 -39 -92q-63 -43 -100 -43q-16 0 -25 12q-16 4 -49 16q-10 -16 -55 -28q-43 4 -127 14q-33 -4 -101 -14q-20 -4 -56 -29t-57.5 -29t-60.5 -24q-25 -12 -65 -17q-51 -6 -66 -8q-51 12 -51 80z" />
<glyph unicode="~" horiz-adv-x="2168" d="M135 569q0 8 12 105q18 170 58 272q31 86 100 182l160 218q76 39 227 114h4q-6 0 172 76l39 2l43 21h125q244 2 420 -82q61 -29 207.5 -151t173.5 -171q20 -47 61 -137q94 -201 95 -285q0 -27 -7 -47q9 -33 9 -49q0 -207 -80 -418l-12 -8l-3 -33l-96 -160 q-27 -16 -63 -49q-49 -47 -54.5 -51t-177.5 -125l-10 2q-264 -135 -473 -135q-31 0 -134.5 24.5t-123.5 20.5l-53 31l-17 -2q-33 29 -114.5 68.5t-118.5 70.5q-156 135 -248 336l-16 12q-104 213 -105 348zM285 899q22 0 47 4q-27 2 -43 0zM313 827l2 -36l56 -93h12l6 -14 h12l7 -10h12q41 -45 86 -49l2 14q45 -37 141 -37q12 0 45 4l4 6l-10 -6h-33q-106 0 -174 47q-41 29 -88 95q-41 57 -65 65l-9 14h-6zM313 883l27 2h2l-10 4zM350 852q190 -23 316 -92l-21 -39l-47 -29l18 -8l31 4l45 39l-6 -43l12 -2l25 35l-2 31h8l-133 71l47 4 q55 -20 96 -32l2 2l-12 10l19 18l-3 2l-36 -8l-50 10l46 27l-7 4l-22 -18l-39 -13l-45 19q-16 41 -17 49q0 35 13 55l-2 13l-8 -11h-27l-12 -35l12 -43l35 -36l-94 18q39 -16 81 -20l58 -48q-70 20 -139 41q-82 23 -142 25zM475 1116l2 -26l21 -23q14 12 22 20l-24 -14v41 l-7 10zM500 1274l18 -10l-10 -17l10 -26h19l2 -4l10 -3l2 -32l22 -13l-4 -14l21 8l14 -20l-14 -17h-2l-19 -14v-10l27 4l22 -16l-32 -25l16 6l21 -16h26l-2 -29q20 -8 62 -43l-11 -14l27 12l2 -23l10 -2l8 -16v-12l23 -19v-35l4 -4l6 -59l-4 -8l4 -25l-14 -8l12 -8l-24 -12 h2v-13l88 -24q33 20 88 20q2 0 135 -24l-2 -17l-123 8q-6 0 -55 -2l-11 -10q82 8 130 8q61 0 86 -14l-7 -8l13 -17l14 5l23 -52q14 -8 41 -12l49 -41l61 -20v2q-25 33 -94.5 74.5t-93.5 70.5q174 -29 241 -76q-59 49 -127 58v14h9q69 2 120 -29l-12 15q-266 78 -405 77 q-37 0 -70 -18l-8 25l14 22l27 14l12 37l-8 62l20 -2l-18 20l14 27l25 -19l-10 21l16 12l25 -16v2l-21 20l23 15l24 -15l-24 31l41 6l14 -12l-2 6l-10 14l16 27h22l19 -25q-4 18 -27 64q23 -18 66 -55l-15 16l23 -2l-29 53l37 -26l23 8l20 -25h2l-6 25h31q12 -16 26 -27 l5 10l-25 31l29 2l26 -22l4 -2l-10 8l17 18l34 -22h4l-30 20l32 19l9 -5l6 7h16h-18l-10 22l16 19l-29 -5l-6 15l-31 -4l19 32l-43 -30l-33 -6l27 39l-86 -58q14 20 37 64l-31 -39l-31 -2v12l-2 2l-55 -45l-4 25l-17 -19h-30l6 14l-23 9l8 37l31 -5l12 21l13 -10l12 2l12 12 l15 -10l8 2l6 10q14 0 41 -6l6 2l8 10l17 -16l2 12l47 8l10 -6l2 8l23 -2l10 8l6 -8h2v6l12 25l-8 8h-14l-17 19l41 22l4 8l-16 9v4l-16 -11l-29 -4l-2 21q-4 -10 -21 -31h-16l-8 8l-17 -10l-73 -8l-6 6l-68 -8l-10 4h-2l-13 -6h-20q-25 -12 -80 -13l-16 9q-18 -8 -49 -9 l-29 13h-12q-41 -4 -117 16q-82 23 -117 23q-6 0 -24 -2q-16 -2 -27 0l2 -7zM506 1032l8 4l8 13l-14 -2zM520 733l19 -61l18 -8l12 12l45 -35q-2 18 -69 66q-2 37 -17 63l-6 -2zM565 406v2v-2zM565 514l4 4l9 -20l-3 -4l21 2l-29 -78q16 25 56 69v-32q-41 -55 -41 -93l2 -20 q0 55 53 117l4 -49l-14 -15q12 -53 14 -57q8 -31 33 -49l2 -8l4 -5l2 -10l10 6q37 0 111 -4q27 31 45 70l-2 12l16 29q-8 20 -12 53q-2 45 -4 55l8 37q0 92 -66 131l-12 -2l-4 9l-24 -19l-15 -55l-8 -13l-6 -2l6 -30l-23 -21l-2 15l-22 -5l-39 15h-29h-4l-20 -4 q-6 -10 -21 -29zM580 174l12 8h-2v8zM592 1356l14 -6l56 -4l-37 -13q57 -14 174 -45l28 2q-74 8 -159 37l4 14q88 -25 141 -14l29 -10h28q-4 0 119 -12q-100 -18 -121 -17l6 -2q43 0 127 8q43 14 127 29l7 6l47 4l26 15v18l27 8v2l-23 10l-4 17l11 6l-9 25l4 4l-22 -4l-16 8 l-7 22l-28 -12l-21 16l-2 11l-28 -4l-3 8l-16 -10l-24 14l-3 10l-20 -4l-20 14l-3 6l-14 -14q-86 -2 -192 -45q-90 -39 -183 -80l2 -4l58 10q55 -14 167.5 -24t170.5 -25l-76 -16q-27 18 -49 18q-10 0 -33 -8q-27 6 -53 0q-70 20 -203 35zM608 166l2 -10l2 8v8zM608 891 l2 -10l11 -9l4 2l-7 5l-2 30l33 6l-4 3l-12 2l-15 -2l-8 -11zM627 973q20 -16 65 -47q-25 27 -65 47zM631 217l8 10q-6 -4 -8 -10zM631 575l4 -4h2zM641 446q23 33 33 54l-8 -15l-21 19l23 31l12 -23l29 2q-4 -31 -37 -70zM643 158l4 14v2q-4 -10 -4 -16zM653 242h9v6z M664 223l2 4zM666 154l18 18v12h-2q-4 -10 -16 -30zM684 1141q115 -17 215 -11l-55 -38l-10 14l-31 -2l-10 6l-27 -4zM688 209h2l23 8v6l-8 2h-7zM690 129l8 31q4 -10 17 -29q8 2 6 8l-14 17l14 6l2 12l20 -10l11 2v6v4l-9 17h-8l-8 -11l-10 8l-6 -6l-6 -14l-11 -6l-6 -33 v-2zM700 2h9l12 12l-8 -2zM731 -111l25 15h6l4 16l10 4l-2 4h-6l-4 -8l-16 -4zM733 16l6 -6l4 6l2 9l-2 6h-2l-4 -13zM741 1419q92 59 213 56l41 -2q-90 -33 -254 -54zM745 696q31 -2 86 -16l3 4q-20 16 -72 16zM752 -39q14 16 20 31l27 -4l-17 -23v-2l19 12v-30l-2 -2l12 6 l8 -8h6q14 8 30.5 36.5t16.5 42.5l-2 13l-4 4l-26 2l-2 -2l30 -2v-12l-18 -46l-19 -20l-18 20l18 23v2l-20 -12l-12 28l4 9l-10 -4l-7 -27l-30 -6l16 33h-4l-14 -31q4 -16 -2 -31zM768 1397l47 2h41q51 -1 78 -13l-19 -16zM770 115l12 2l4 -17q10 20 11 47l2 3l20 -31 q-6 -20 -8 -35l2 -8q17 18 23 61l-5 10l-4 3l-8 16q-10 -6 -26 -23l-7 7q-10 -16 -16 -35zM772 57l2 -2h4l-2 2h-4zM772 -133q4 -12 4 -31l2 10l-4 25zM774 25zM805 29l8 4h-2zM811 -119l8 4l12 15h23l2 4l23 20h16l4 13l10 4l11 -4l12 8l2 22l-16 -4l-11 14v35l-2 6 l-14 -24l-2 -25l6 2v-32l-25 -11l2 29l-12 -27q-27 -20 -41 -30zM819 -164l2 -6v16l27 4q2 -18 0 -43l6 9l6 -11l4 5q2 29 15 43l14 4l-2 10l22 20l9 -24l10 8l6 -49l12 -15l-4 -10l2 -12l8 18l-4 17l9 30l24 3q-2 -18 -4 -58v-6l4 14l2 -2v6l12 23h19l-2 2h-6l-17 4l-2 37 l6 2q-6 0 -6 -4l-6 -10l-16 -4l-31 12l-2 25l8 6v4l-14 10h-2l-2 -20l-21 4v4q-8 0 -6 -8l-29 -19h-18v-6l-25 -6l-6 10q0 -27 -2 -37zM854 78l4 -2l10 4l6 49l19 -23l6 -34h2l14 24l3 25q0 8 -7 31l-4 -9l-14 13v8l-8 -33l-25 49q2 -29 -6 -78v-24zM862 653l8 -14l-2 45 l-2 -2zM862 1176l139 20l-28 -33h-27q-2 0 -84 13zM893 657q37 -66 68 -108l86 -45l-80 10q-18 12 -62 61q35 -49 60 -65q63 -6 127 -39l18 2q31 -16 86 -24v2q88 -15 143 -17q-100 25 -102 25q-55 14 -98 37h-2l-2 2l-11 4l11 -2l-9 30l7 17l-29 20l-10 60q-23 23 -43 32 l-43 3l-33 -11l2 -8l22 4l25 -22l-25 -9l25 -10l37 -2l12 -41l25 -18l-19 -15h-2l8 -12l-45 6q-12 10 -41 29q-8 18 -36 33q-10 37 -29 73l-6 -2l6 -34l-39 36q-4 0 -2 -2zM897 -195l8 -26q4 23 4 22l-8 37l12 12l-14 -6zM913 1436l76 4l96 -35q-23 -2 -43 -2q-66 0 -129 33 zM924 461q0 -78 24 -103l6 4q7 29 7 35v27l-21 37l-14 6zM940 20l2 -6h2v2zM942 117l10 -4l-6 -45v-5l8 5q4 12 19 30h26l-6 -22v-2q1 18 13 49l-9 8v12h-10l-2 -12l-24 -6q0 39 -11 65zM997 -20l2 -9l2 -2v6zM1010 -88l2 -31h2v-4v21zM1028 762q14 -8 45 -23l6 4h6l-2 5 l-43 28l-8 -12zM1032 80l4 -2l4 -21q12 23 9 66l12 29v2q-14 -31 -29 -74zM1036 446l4 -14l33 -45l2 -22l17 -5l6 -20l-17 -10h-12l10 -6l29 2l14 -11l-24 -24q-18 4 -19 4l-12 -2q6 -2 6 -10l19 -9l-15 -26l23 10l-2 -25l8 13l22 -2l-6 -29l21 27l2 -45l6 4l10 39l25 -19 l2 -10l2 4l-2 23l26 -23l7 -20v36l34 -36l-2 22q20 -6 37 -6l-30 22q20 10 43 11l-7 8l17 8l-2 4l-15 10l17 9l-8 2v14l-35 8l14 10l-10 7l4 10l-2 2l-19 6l9 6l-4 2l-31 -4l8 27l-25 -15l-8 21l11 12q2 -2 -3 -4l-30 -2l-8 16v-2l-37 19l-21 2l-10 12l-66 17zM1079 82l4 2 l4 25v10l-8 -31v-6zM1094 -162l2 -24q4 18 4 36zM1100 786l2 -4l12 2l66 47l-39 -53l10 -6l-6 -14l6 4l45 -25l-35 -6l-33 12q10 -8 99 -28q96 -23 119 -33l22 20l-4 27l8 2l-10 -2l-19 -16q-41 -6 -43 -6l-22 2q-49 27 -57 61l10 33l-6 18l53 41l31 2l39 -22l16 2l20 -13 l2 3l-34 28l-11 -4q-29 25 -51 25v6q-109 -14 -180 -80zM1126 -188l2 -19l2 2zM1145 1018l10 -8l-6 12zM1147 498q84 -20 125 -19l82 -45l14 8l10 13q-20 4 -49 14l39 25l4 10l-6 20l-2 2l-6 -8l2 -10l-35 -21q-18 0 -51 -2t-49 -2l-58 17zM1171 -190l3 -11zM1180 410l18 14 l-2 8l-4 -6h-6zM1202 412l10 8h-10v-8zM1225 -156v-6l4 -18l8 -8q-6 18 -12 32zM1229 408l4 2v2zM1247 926l4 -4q12 2 39 8h-37zM1251 393l4 4l5 11q-6 -6 -9 -15zM1262 788l6 -22l10 -12l6 -2l8 4l-12 2l-14 20l14 31l31 -2l-11 8h-14q-8 -4 -24 -27zM1311 956q2 0 49 5v2 l-6 2q-12 0 -43 -9zM1337 930l2 -4l41 2l4 2l-14 6zM1352 596l12 -31h2zM1386 651l3 -12l8 -8l2 4zM1393 543l18 -2l2 -31l6 -2l2 -21l-2 -8v-8h8l7 -16h14l18 20l21 10l6 21l12 12h8l-4 14l17 29l22 14v9l19 14h-15v23h-2l-24 -21l-8 16l8 11h-8l-7 -13l-28 -20l2 27l6 6 l2 16v2l-10 -24v-21l-17 -12l-20 41l8 35l-2 32l-10 -43q-4 14 -12 47l-7 -45l21 -8l2 -16l-10 -4l2 -15l-13 -8l-8 2l-2 -26l12 -9l-16 -22l-8 4zM1407 643l4 19h2l-6 20v-39zM1528 522h4l8 8q-4 -2 -12 -8zM1532 633l16 20v17q-8 -14 -16 -37z" />
<glyph unicode="&#xa1;" horiz-adv-x="368" d="M51 -2q68 117 62 201q27 29 33 99.5t30 98.5q-20 205 -20 193q0 57 16 112h51l49 -45q9 -104 9 -200q0 -147 -17 -248q-2 -8 -14 -57q-8 -33 -8 -58q0 -20 6 -60t6 -61q0 -98 -76 -145h-65q-43 27 -54 76zM117 1055q18 8 31.5 50t52.5 54q35 -16 69 -31q29 -18 47 -61 q-41 -70 -43 -72q-29 -39 -69 -39q-16 0 -35 5q-49 43 -53 94z" />
<glyph unicode="&#xa2;" horiz-adv-x="716" d="M-33 446q0 16 16.5 40t16.5 38q49 25 126 103t107 131q25 41 27 194q4 164 27 219q55 2 86 -28q0 -25 11 -77t11 -79q0 -143 -16 -174q37 16 72 31q47 20 73 20q119 0 211 -137l-82 -82q-25 0 -58.5 28.5t-51.5 28.5q-10 0 -21 -6q-29 6 -55 6q-145 0 -145 -180 q4 -6 4 -59q0 -45 12 -45q8 0 63.5 41t100.5 41l2 -8q18 16 41 14l14 10q33 -6 94 -16l31 -29q-16 -33 -51 -49q-45 -23 -58 -35q-104 0 -253 -100q51 -203 51 -307q0 -20 -29 -40t-49 -20q-29 0 -62 31q-6 31 -6 65q0 27 5.5 81.5t5.5 80.5q0 90 -54 131q-68 2 -135 35 q-82 43 -82 102zM166 471l22 -22q14 -10 48 -21h4v150l-2 6q-16 -20 -50 -41q-23 -25 -22 -72z" />
<glyph unicode="&#xa3;" horiz-adv-x="630" d="M0 406v10q45 8 43 73l88 17q-2 47 -2 98q0 360 94 502h6q10 0 15.5 28.5t25.5 28.5q98 0 152 -47q31 -25 76 -106.5t90 -124.5q0 -31 -3 -64t-28 -53q-76 2 -108 39q-12 16 -41 86q-23 61 -64 94q-25 2 -47 -41q-31 -59 -35 -61l10 -353q162 33 177 33q35 0 32 -24l45 41 q53 -10 54 -56q0 -12 -5.5 -33.5t-5.5 -33.5l-301 -58q0 -123 13 -278q70 -37 77 -37q14 0 66.5 19.5t64.5 29.5q27 -4 37 -4q16 0 28.5 11.5t29.5 11.5q12 0 37 -4q25 -25 24 -54q0 -33 -25.5 -65.5t-58.5 -38.5q-16 -4 -248 -66q-184 -49 -227 -49q-18 0 -51 4 q-20 39 -21 121l2 18q4 14 46 34t61 42q31 41 31 119q0 31 -13 80q-16 57 -18 78q-80 -16 -92 -17q-31 0 -31 50z" />
<glyph unicode="&#xa4;" horiz-adv-x="970" d="M0 623q53 4 45 77l158 19q59 94 174 289q109 57 164 108q84 14 151 14q137 0 232 -63q8 -16 8 -33q0 -47 -60 -59q-47 12 -94 12q-127 0 -245.5 -70.5t-174.5 -181.5q143 16 160 17q51 0 53 -29l50 43q72 -16 71 -78q0 -10 -3 -30.5t-3 -32.5l-385 -43q-25 -94 -27 -156 l267 27q25 2 34 -13.5t9 -44.5v-10q-57 -6 -150 -45q-102 -43 -147 -53q20 -59 88 -99q14 -10 125 -57q96 18 194 35q102 27 174 92q51 47 74 47q70 0 86 -74q-31 -106 -143 -157q-82 -39 -232 -58q-113 -10 -225 -22q-86 43 -121 65q-66 41 -102 91q-14 72 -70 118 q-35 2 -33 31l-45 -41q-53 16 -53 68q0 12 5 36.5t5 36.5l99 11q0 88 10 153q-55 -8 -80 -8q-39 0 -43 68z" />
<glyph unicode="&#xa5;" d="M45 614q29 193 29 357q0 66 26.5 92.5t94.5 26.5h18q0 -59 -12.5 -182.5t-12.5 -184.5q0 -59 33 -92q14 -4 29 -4q49 0 86 45q6 6 57 86q14 -4 15 -4q12 0 27.5 23.5t29.5 23.5q6 0 14 -2q14 12 160 202q119 156 168 156q16 0 33 -29q10 -23 20 -43q-37 -133 -184 -278 q-197 -190 -234 -246q-10 -49 -14 -104q59 12 74 12q35 0 35 -25l43 41q55 -8 55 -55q0 -12 -5 -33.5t-7 -34.5l-197 -36l4 -68q168 20 176 21q33 0 31 -41l-2 -19q-43 -6 -100 -31q-90 -37 -99 -41q6 -78 6 -131h-8q-10 0 -12 -31.5t-27 -31.5h-43q-23 12 -37 49 q-18 47 -28 59l6 52q-78 -14 -103 -15q-43 0 -40 27l-46 -39q-51 12 -51 57q0 12 7.5 35t7.5 33l233 31v14v45q-53 -12 -108 -25q-68 -16 -107 -16q-33 0 -33 49v10q47 8 45 74l191 37l-2 14q-92 61 -189 62q0 25 -17.5 53.5t-35.5 54.5z" />
<glyph unicode="&#xa8;" horiz-adv-x="821" d="M215 1395q0 63 15.5 80.5t78.5 17.5q25 -39 25 -82q0 -18 -3 -57.5t-3 -59.5l-37 -28h-35q-41 35 -41 129zM510 1432q0 37 10 71q33 25 64 27q8 -14 41 -14q24 -38 24 -58q0 -12 -10 -26q8 -20 8 -37q0 -49 -59 -82h-33q-45 39 -45 119z" />
<glyph unicode="&#xa9;" horiz-adv-x="1167" d="M51 1036q16 27 33 125q12 72 72 107h24q35 2 64 -25q0 -33 -14.5 -97.5t-14.5 -96.5q0 -27 6 -48q-29 -76 -28 -180q0 -29 2 -87t2 -89q-35 -39 -72 -39q-45 0 -72 53q0 94 21 144q-23 39 -18 120t-5 113zM53 -84q0 100 92 248q2 143 86 307q43 84 170 274q2 80 70 125 v43q41 66 80 134q47 76 92 122l66 -22q28 -31 28 -43q0 -6 -51 -62.5t-51 -119.5q0 -25 6 -50q-45 -61 -141 -176q-2 -61 -41 -129q-37 -57 -76 -112v-49l-70 -76q-2 -170 -116 -334v-72q-43 -49 -86 -49q-39 0 -58 41zM420 248q31 10 64.5 52t58.5 54q2 6 32 58 q25 45 25 49q197 207 303 352q23 8 39 8q72 0 72 -143q0 -27 -5 -82t-5 -82q0 -47 14 -86q45 25 76 25q65 0 65 -72q0 -47 -55 -72q-47 -14 -92 -28q-31 -109 -31 -215q0 -16 12.5 -47t12.5 -48q0 -8 -5 -28q-47 -33 -79 -33q-45 0 -82 55q8 88 47 260l-6 21q-18 -4 -84 -31 q-51 -18 -88 -16q-20 -16 -68.5 -34t-69.5 -36l-94 -2q-29 -2 -45 47q-12 37 -12 74zM653 305q119 37 195 41q41 35 41 139v29q0 35 -12 51h-19q-43 -45 -205 -260z" />
<glyph unicode="&#xaa;" horiz-adv-x="761" d="M-37 827q0 119 137.5 279t253.5 160q43 0 105 -21q102 -33 104 -35q57 -70 58 -153q0 -31 -9 -60q49 -113 86 -112q18 0 47 33q25 0 41.5 -22t16.5 -44q0 -37 -10 -66q4 -8 4 -16q0 -23 -37 -37q-43 -14 -43 -16l-82 18q-14 2 -33.5 73t-36.5 73l-12 -7 q-72 -119 -139.5 -157.5t-204.5 -38.5q-131 0 -232 65q-14 41 -14 84zM102 846q0 -37 21 -51q10 -6 53 -15q328 113 328 256q0 80 -90 123q-61 -23 -166 -100q-113 -86 -133 -137q-12 -29 -13 -76zM113 393v10q37 6 37 80l305 56q25 4 39 0q20 -6 20 -27l37 43 q45 -15 45 -66q0 -12 -4 -36.5t-4 -36.5l-438 -78q-23 -4 -31 16q-6 12 -6 39z" />
<glyph unicode="&#xab;" horiz-adv-x="931" d="M98 434q0 84 125 178q115 84 207 99q23 -22 23 -49q0 -25 -201 -244q100 -96 121 -119q74 -84 67 -145v-15q-2 2 -8 2q-18 0 -47 -14q-92 31 -184 121q-102 100 -103 186zM467 395q-4 -84 119 -172q111 -78 202 -88q25 24 25 51q2 25 -192 234q104 100 124 127 q76 88 74 147l-2 15q0 -2 -6 -2q-18 0 -47 12q-94 -35 -189 -131q-106 -106 -108 -193z" />
<glyph unicode="&#xad;" horiz-adv-x="440" d="M51 479q70 139 297 139q41 -20 41 -104v-14q-96 -96 -221 -97q-88 0 -117 76z" />
<glyph unicode="&#xae;" horiz-adv-x="1167" d="M51 1036q16 27 33 125q12 72 72 107h24q35 2 64 -25q0 -33 -14.5 -97.5t-14.5 -96.5q0 -27 6 -48q-29 -76 -28 -180q0 -29 2 -87t2 -89q-35 -39 -72 -39q-45 0 -72 53q0 94 21 144q-23 39 -18 120t-5 113zM53 -84q0 100 92 248q2 143 86 307q43 84 170 274q2 80 70 125 v43q41 66 80 134q47 76 92 122l66 -22q28 -31 28 -43q0 -6 -51 -62.5t-51 -119.5q0 -25 6 -50q-45 -61 -141 -176q-2 -61 -41 -129q-37 -57 -76 -112v-49l-70 -76q-2 -170 -116 -334v-72q-43 -49 -86 -49q-39 0 -58 41zM481 6q162 121 162 221q51 68 174 178.5t174 176.5 l-65 59q-217 -20 -320 -166q-16 -10 -35 -10q-12 0 -33.5 11t-33.5 11v54l166 180l69 6q55 59 121 59q35 0 68 -18h6q25 0 69 -18.5t68 -16.5q59 -44 94 -112q-31 -115 -141 -220q-43 -39 -207 -163q-2 -27 -35.5 -61t-33.5 -48q0 -16 18 -33h27q37 -2 102.5 10.5t97.5 12.5 q68 0 103 -43q2 -63 -29 -74q-53 -20 -178 -20q-55 0 -101 18q-72 -53 -262 -68q4 16 -14 19q-12 2 -31 0v55z" />
<glyph unicode="&#xb0;" horiz-adv-x="606" d="M-4 799q0 104 121 329q74 141 231 142q23 0 68 -4t67 -4q105 -74 105 -195q0 -55 -34 -159.5t-67 -145.5q-45 -51 -144 -88t-175 -37q-66 0 -127 20q-45 66 -45 142zM127 866q0 -123 45 -123h51q254 174 254 299q0 106 -123 132q-49 -35 -135 -144q-92 -117 -92 -164z " />
<glyph unicode="&#xb4;" horiz-adv-x="860" d="M256 1305v14q37 18 133 127q78 90 143 90q41 0 95 -18v-66q-154 -78 -279 -203h-55q-37 0 -37 56z" />
<glyph unicode="&#xb7;" horiz-adv-x="210" d="M27 469v98q0 61 86 62h22q51 -52 51 -156v-4q-37 -14 -77 -14q-45 0 -82 14z" />
<glyph unicode="&#xb8;" horiz-adv-x="307" d="M327 -193q0 6 29 66q25 45 57 174l39 41h39q43 -29 43 -76q0 -12 -2 -33v-31q-12 -12 -26.5 -51t-32.5 -49v-39q-43 -84 -97 -84l-24 4q0 14 -12.5 39t-12.5 39z" />
<glyph unicode="&#xba;" horiz-adv-x="606" d="M-4 799q0 104 121 329q74 141 231 142q23 0 68 -4t67 -4q105 -74 105 -195q0 -55 -34 -159.5t-67 -145.5q-45 -51 -144 -88t-175 -37q-66 0 -127 20q-45 66 -45 142zM51 393v10q37 6 37 80l305 56q25 4 39 0q20 -6 21 -27l36 43q46 -15 46 -66q0 -12 -4.5 -36.5 t-4.5 -36.5l-438 -78q-23 -4 -31 16q-6 12 -6 39zM127 866q0 -123 45 -123h51q254 174 254 299q0 106 -123 132q-49 -35 -135 -144q-92 -117 -92 -164z" />
<glyph unicode="&#xbb;" horiz-adv-x="931" d="M96 647q2 -25 213 -227q-96 -104 -114 -131q-68 -90 -60 -152l2 -12q2 2 8 2q18 2 48 -10q90 37 178 137q96 109 90 197q-4 84 -133 167q-117 74 -211 80q-23 -24 -21 -51zM477 178q0 23 201 242q-100 96 -121 121q-72 84 -68 145l3 12h6q18 0 49 13q90 -29 182 -119 q102 -100 102 -186t-124 -179q-113 -84 -207 -100q-23 24 -23 51z" />
<glyph unicode="&#xbc;" horiz-adv-x="1167" d="M51 1036q16 27 33 125q12 72 72 107h24q35 2 64 -25q0 -33 -14.5 -97.5t-14.5 -96.5q0 -27 6 -48q-29 -76 -28 -180q0 -29 2 -87t2 -89q-35 -39 -72 -39q-45 0 -72 53q0 94 21 144q-23 39 -18 120t-5 113zM53 -84q0 100 92 248q2 143 86 307q43 84 170 274q2 80 70 125 v43q41 66 80 134q47 76 92 122l66 -22q28 -31 28 -43q0 -6 -51 -62.5t-51 -119.5q0 -25 6 -50q-45 -61 -141 -176q-2 -61 -41 -129q-37 -57 -76 -112v-49l-70 -76q-2 -170 -116 -334v-72q-43 -49 -86 -49q-39 0 -58 41zM420 248q31 10 64.5 52t58.5 54q2 6 32 58 q25 45 25 49q197 207 303 352q23 8 39 8q72 0 72 -143q0 -27 -5 -82t-5 -82q0 -47 14 -86q45 25 76 25q65 0 65 -72q0 -47 -55 -72q-47 -14 -92 -28q-31 -109 -31 -215q0 -16 12.5 -47t12.5 -48q0 -8 -5 -28q-47 -33 -79 -33q-45 0 -82 55q8 88 47 260l-6 21q-18 -4 -84 -31 q-51 -18 -88 -16q-20 -16 -68.5 -34t-69.5 -36l-94 -2q-29 -2 -45 47q-12 37 -12 74zM653 305q119 37 195 41q41 35 41 139v29q0 35 -12 51h-19q-43 -45 -205 -260z" />
<glyph unicode="&#xbd;" horiz-adv-x="1167" d="M51 1036q16 27 33 125q12 72 72 107h24q35 2 64 -25q0 -33 -14.5 -97.5t-14.5 -96.5q0 -27 6 -48q-29 -76 -28 -180q0 -29 2 -87t2 -89q-35 -39 -72 -39q-45 0 -72 53q0 94 21 144q-23 39 -18 120t-5 113zM53 -84q0 100 92 248q2 143 86 307q43 84 170 274q2 80 70 125 v43q41 66 80 134q47 76 92 122l66 -22q28 -31 28 -43q0 -6 -51 -62.5t-51 -119.5q0 -25 6 -50q-45 -61 -141 -176q-2 -61 -41 -129q-37 -57 -76 -112v-49l-70 -76q-2 -170 -116 -334v-72q-43 -49 -86 -49q-39 0 -58 41zM481 6q162 121 162 221q51 68 174 178.5t174 176.5 l-65 59q-217 -20 -320 -166q-16 -10 -35 -10q-12 0 -33.5 11t-33.5 11v54l166 180l69 6q55 59 121 59q35 0 68 -18h6q25 0 69 -18.5t68 -16.5q59 -44 94 -112q-31 -115 -141 -220q-43 -39 -207 -163q-2 -27 -35.5 -61t-33.5 -48q0 -16 18 -33h27q37 -2 102.5 10.5t97.5 12.5 q68 0 103 -43q2 -63 -29 -74q-53 -20 -178 -20q-55 0 -101 18q-72 -53 -262 -68q4 16 -14 19q-12 2 -31 0v55z" />
<glyph unicode="&#xbe;" horiz-adv-x="1570" d="M51 387v109q18 0 55 5t56 5q16 10 41 16l49 51q170 41 235 121l-30 29q-14 0 -50 4t-57 4q-57 0 -104 -72q-53 23 -86 23q0 113 82 203q80 78 159 157q-2 55 -41 56q-14 0 -86 -39q-37 -2 -38 -64q-29 -10 -52 -10q-45 0 -80 31q0 76 58 108q74 41 88 70q29 0 86 9t86 9 q80 0 141 -61v-74q-33 -49 -96 -123q-78 -90 -100 -118q72 12 151 12q39 0 72 -74q24 -61 24 -108q0 -10 -8 -23l-28 29l6 2q8 -16 20 -31l-31 -37l-8 -2l4 -6q-20 -25 -40.5 -47.5t-51.5 -34.5q-16 -6 -59 -35q-33 -20 -66 -24q-78 -72 -266 -70h-35zM455 -84q0 100 92 248 q2 143 86 307q41 84 170 274q2 80 69 125v43q41 66 80 134q47 76 90 122l68 -22q29 -31 29 -43q0 -6 -51.5 -62.5t-51.5 -119.5q0 -25 6 -50q-45 -61 -141 -176q-2 -61 -41 -129q-37 -57 -76 -112v-49l-69 -76q-2 -170 -117 -334v-72q-43 -49 -86 -49q-39 0 -57 41zM823 248 q31 10 65 52t58 54q2 6 31 58q27 45 24 49q199 207 306 352q23 8 39 8q72 0 71 -143q0 -27 -5 -82t-5 -82q0 -47 14 -86q45 25 76 25q64 0 64 -72q0 -47 -54 -72l-94 -28q-29 -109 -29 -215q0 -16 12.5 -47t12.5 -48q0 -8 -4 -28q-47 -33 -80 -33q-45 0 -82 55q8 88 47 260 l-6 21q-18 -4 -84 -31q-51 -18 -90 -16q-18 -16 -66.5 -34t-68.5 -36l-94 -2q-29 -2 -45 47q-12 37 -13 74zM1057 305q119 37 194 41q39 35 39 139v29q0 35 -12 51h-16q-43 -45 -205 -260z" />
<glyph unicode="&#xbf;" horiz-adv-x="843" d="M51 156v6q27 45 57.5 93t69.5 73h37q82 100 320 139q43 33 61 121q25 115 35 135q16 4 26 4q68 0 68 -98v-37q-2 -23 -2 -33q0 -20 4 -60t4 -61q0 -78 -51 -112q-35 4 -70 4q-154 0 -262 -51q-143 -66 -139 -199l2 -17q76 -113 223 -112q55 0 119 18q61 61 221 60h12 q0 -10 3.5 -33t3.5 -37q0 -39 -33 -70q-57 0 -169 -33.5t-171 -33.5q-205 0 -283 65q-86 72 -86 269zM565 1038q0 82 94 82q46 1 89 -22v-17q0 -94 -50 -118q-133 0 -133 75z" />
<glyph unicode="&#xc0;" horiz-adv-x="741" d="M-25 20q0 68 33 156q29 76 58 150q10 27 40 176q25 109 68 166l-4 80q86 121 111 241q61 33 57 103l39 41h29q70 2 90 -37q6 -8 20 -98.5t68 -274.5q59 -203 94 -256l2 -100l82 -152q47 -90 49 -162q-18 4 -18 -37q0 -25 -27 -24q-74 0 -94 37q-6 211 -127 254 q-29 0 -83 2t-79 2q-274 0 -274 -219q0 -37 8 -78q-39 -86 -94 -86l-21 2q-27 53 -27 114zM240 451q29 -27 43 -32t57 -5q160 0 160 92q0 37 -29 112q-29 70 -22 119q-6 33 -13 66q-10 47 -33 47q-33 0 -71 -84q-51 -106 -60 -115l2 -59q-37 -41 -34 -105v-36zM256 1452 q154 -78 279 -203h57q35 0 35 56v14q-35 18 -131 127q-80 90 -146 90q-41 0 -94 -18v-66z" />
<glyph unicode="&#xc1;" horiz-adv-x="741" d="M-25 20q0 68 33 156q29 76 58 150q10 27 40 176q25 109 68 166l-4 80q86 121 111 241q61 33 57 103l39 41h29q70 2 90 -37q6 -8 20 -98.5t68 -274.5q59 -203 94 -256l2 -100l82 -152q47 -90 49 -162q-18 4 -18 -37q0 -25 -27 -24q-74 0 -94 37q-6 211 -127 254 q-29 0 -83 2t-79 2q-274 0 -274 -219q0 -37 8 -78q-39 -86 -94 -86l-21 2q-27 53 -27 114zM240 451q29 -27 43 -32t57 -5q160 0 160 92q0 37 -29 112q-29 70 -22 119q-6 33 -13 66q-10 47 -33 47q-33 0 -71 -84q-51 -106 -60 -115l2 -59q-37 -41 -34 -105v-36zM256 1305v14 q37 18 133 127q78 90 143 90q41 0 95 -18v-66q-154 -78 -279 -203h-55q-37 0 -37 56z" />
<glyph unicode="&#xc2;" horiz-adv-x="741" d="M-25 20q0 68 33 156q29 76 58 150q10 27 40 176q25 109 68 166l-4 80q86 121 111 241q61 33 57 103l39 41h29q70 2 90 -37q6 -8 20 -98.5t68 -274.5q59 -203 94 -256l2 -100l82 -152q47 -90 49 -162q-18 4 -18 -37q0 -25 -27 -24q-74 0 -94 37q-6 211 -127 254 q-29 0 -83 2t-79 2q-274 0 -274 -219q0 -37 8 -78q-39 -86 -94 -86l-21 2q-27 53 -27 114zM174 1266q12 137 187 233q78 -14 148.5 -67t90.5 -127q-27 -33 -49 -33q-25 0 -178 98q-98 -150 -166 -149q-6 0 -18 20q-6 12 -15 25zM240 451q29 -27 43 -32t57 -5q160 0 160 92 q0 37 -29 112q-29 70 -22 119q-6 33 -13 66q-10 47 -33 47q-33 0 -71 -84q-51 -106 -60 -115l2 -59q-37 -41 -34 -105v-36z" />
<glyph unicode="&#xc3;" horiz-adv-x="741" d="M-25 20q0 68 33 156q29 76 58 150q10 27 40 176q25 109 68 166l-4 80q86 121 111 241q61 33 57 103l39 41h29q70 2 90 -37q6 -8 20 -98.5t68 -274.5q59 -203 94 -256l2 -100l82 -152q47 -90 49 -162q-18 4 -18 -37q0 -25 -27 -24q-74 0 -94 37q-6 211 -127 254 q-29 0 -83 2t-79 2q-274 0 -274 -219q0 -37 8 -78q-39 -86 -94 -86l-21 2q-27 53 -27 114zM123 1321v8q0 45 52 68.5t110 50.5q72 33 116 33q47 0 103 -76q41 8 121 41q18 12 30 12q51 0 66 -6q22 -12 22 -57v-21q-10 -12 -32 -35q-39 0 -114 -29.5t-114 -29.5 q-63 0 -123 76q-16 -6 -78.5 -51t-72.5 -45q-29 0 -86 61zM240 451q29 -27 43 -32t57 -5q160 0 160 92q0 37 -29 112q-29 70 -22 119q-6 33 -13 66q-10 47 -33 47q-33 0 -71 -84q-51 -106 -60 -115l2 -59q-37 -41 -34 -105v-36z" />
<glyph unicode="&#xc4;" horiz-adv-x="741" d="M-25 20q0 68 33 156q29 76 58 150q10 27 40 176q25 109 68 166l-4 80q86 121 111 241q61 33 57 103l39 41h29q70 2 90 -37q6 -8 20 -98.5t68 -274.5q59 -203 94 -256l2 -100l82 -152q47 -90 49 -162q-18 4 -18 -37q0 -25 -27 -24q-74 0 -94 37q-6 211 -127 254 q-29 0 -83 2t-79 2q-274 0 -274 -219q0 -37 8 -78q-39 -86 -94 -86l-21 2q-27 53 -27 114zM195 1395q0 63 15.5 80.5t78.5 17.5q25 -39 25 -82q0 -18 -3 -57.5t-3 -59.5l-37 -28h-35q-41 35 -41 129zM240 451q29 -27 43 -32t57 -5q160 0 160 92q0 37 -29 112q-29 70 -22 119 q-6 33 -13 66q-10 47 -33 47q-33 0 -71 -84q-51 -106 -60 -115l2 -59q-37 -41 -34 -105v-36zM490 1432q0 37 10 71q33 25 64 27q8 -14 41 -14q24 -38 24 -58q0 -12 -10 -26q8 -20 8 -37q0 -49 -59 -82h-33q-45 39 -45 119z" />
<glyph unicode="&#xc5;" horiz-adv-x="741" d="M-25 20q0 68 33 156q29 76 58 150q10 27 40 176q25 109 68 166l-4 80q86 121 111 241q61 33 57 103l39 41h29q70 2 90 -37q6 -8 20 -98.5t68 -274.5q59 -203 94 -256l2 -100l82 -152q47 -90 49 -162q-18 4 -18 -37q0 -25 -27 -24q-74 0 -94 37q-6 211 -127 254 q-29 0 -83 2t-79 2q-274 0 -274 -219q0 -37 8 -78q-39 -86 -94 -86l-21 2q-27 53 -27 114zM240 451q29 -27 43 -32t57 -5q160 0 160 92q0 37 -29 112q-29 70 -22 119q-6 33 -13 66q-10 47 -33 47q-33 0 -71 -84q-51 -106 -60 -115l2 -59q-37 -41 -34 -105v-36zM274 1284 q0 63 44 117.5t108 54.5q57 0 96 -36t39 -93q0 -74 -64 -116q-55 -37 -131 -37q-43 0 -67.5 32.5t-24.5 77.5zM370 1307q0 -37 39 -37q20 0 41 17.5t21 35.5q0 31 -39 31q-18 0 -40 -15.5t-22 -31.5z" />
<glyph unicode="&#xc6;" horiz-adv-x="1499" d="M23 20q0 35 30 95q66 59 144 159q63 84 127 170q41 41 114 131q23 41 64 121q123 233 147 271q113 164 230 155h24l-14 -6l6 -4q29 -53 29 -127q0 -84 -37 -199l22 -41q-10 -23 -18 -92q-6 -59 -29 -88q12 -82 21.5 -248.5t21.5 -248.5q-49 -63 -74 -62h-30 q-14 68 -28.5 132.5t-47.5 88.5q-41 33 -133 33q-137 0 -313 -96q-25 -33 -75 -97.5t-57 -68.5q-25 -20 -79 -18l-27 2q-18 12 -18 38zM446 387q0 -16 17 -27q31 10 137 19q82 8 131 45l53 113q-4 35 0 92q4 74 4 92q0 63 -16 102h-31q-20 -27 -69 -73q-23 -57 -45 -115 q-29 -63 -80 -96q-4 -10 -58 -78q-43 -53 -43 -74zM750 51q10 61 10 152q2 76 2 151q2 51 23.5 147.5t23.5 137.5q0 27 -16 47q10 57 10 217q-2 139 24 217q201 25 598 33q53 -31 52 -86q-2 -45 -39 -94q-63 6 -191 18q-170 12 -286 -20q-37 -47 -46 -146q-12 -147 -14 -157 q12 2 14 -9q2 -6 0 -20q-2 -8 -2 -16q-2 -18 41 -23q82 -6 237 22.5t236 22.5q29 -16 27 -49q0 -33 -31 -59q-72 -20 -252 -33q-162 -12 -247 -47q-63 -76 -68 -172q-2 -86 57 -127q90 2 289 65q182 57 291 49q25 -14 23 -45q-2 -18 -7 -55q-12 0 -17 -12.5t-3 -26.5 q-143 -12 -336 -67q-164 -49 -326 -99q-53 29 -77 84z" />
<glyph unicode="&#xc7;" d="M-53 406q0 242 57 253q70 115 207 349q109 57 164 108q84 14 151 14q137 0 232 -63q8 -16 8 -33q0 -47 -59 -59q-47 12 -95 12q-227 0 -370 -182q-135 -168 -136 -399q0 -131 56 -185q31 -29 170 -90q98 18 196 35q100 25 174 92q51 47 72 47q72 0 88 -74 q-31 -104 -143 -157q-82 -39 -230 -56q-115 -12 -227 -24q-86 43 -121 65q-66 41 -102 91q-16 80 -86 131q-6 47 -6 125zM327 -193q0 6 29 66q25 45 57 174l39 41h39q43 -29 43 -76q0 -12 -2 -33v-31q-12 -12 -26.5 -51t-32.5 -49v-39q-43 -84 -97 -84l-24 4q0 14 -12.5 39 t-12.5 39z" />
<glyph unicode="&#xc8;" horiz-adv-x="757" d="M51 18q8 59 4 152q-4 160 -4 152q0 51 18.5 148t18.5 138q0 27 -16 45q8 57 2 219q-6 137 16 218q201 41 596 79q55 -27 55 -82q0 -45 -34 -96q-31 0 -97 2h-94q-172 0 -287 -43q-37 -49 -41 -147q-6 -147 -8 -160q12 4 14.5 -4t2.5 -23q-2 -18 -2 -16q0 -18 43 -18 q80 0 234.5 41t234.5 41q31 -14 30 -48q0 -33 -30 -63q-70 -25 -250 -51q-162 -25 -246 -68q-61 -80 -61 -176q0 -84 61 -121q90 8 285 86q182 72 290 72q25 -10 25 -41q0 12 -6 -57q-25 0 -19 -39q-143 -25 -331 -95q-162 -63 -324 -124q-53 27 -80 79zM256 1452 q154 -78 279 -203h57q35 0 35 56v14q-35 18 -131 127q-80 90 -146 90q-41 0 -94 -18v-66z" />
<glyph unicode="&#xc9;" horiz-adv-x="757" d="M51 18q8 59 4 152q-4 160 -4 152q0 51 18.5 148t18.5 138q0 27 -16 45q8 57 2 219q-6 137 16 218q201 41 596 79q55 -27 55 -82q0 -45 -34 -96q-31 0 -97 2h-94q-172 0 -287 -43q-37 -49 -41 -147q-6 -147 -8 -160q12 4 14.5 -4t2.5 -23q-2 -18 -2 -16q0 -18 43 -18 q80 0 234.5 41t234.5 41q31 -14 30 -48q0 -33 -30 -63q-70 -25 -250 -51q-162 -25 -246 -68q-61 -80 -61 -176q0 -84 61 -121q90 8 285 86q182 72 290 72q25 -10 25 -41q0 12 -6 -57q-25 0 -19 -39q-143 -25 -331 -95q-162 -63 -324 -124q-53 27 -80 79zM256 1305v14 q37 18 133 127q78 90 143 90q41 0 95 -18v-66q-154 -78 -279 -203h-55q-37 0 -37 56z" />
<glyph unicode="&#xca;" horiz-adv-x="757" d="M51 18q8 59 4 152q-4 160 -4 152q0 51 18.5 148t18.5 138q0 27 -16 45q8 57 2 219q-6 137 16 218q201 41 596 79q55 -27 55 -82q0 -45 -34 -96q-31 0 -97 2h-94q-172 0 -287 -43q-37 -49 -41 -147q-6 -147 -8 -160q12 4 14.5 -4t2.5 -23q-2 -18 -2 -16q0 -18 43 -18 q80 0 234.5 41t234.5 41q31 -14 30 -48q0 -33 -30 -63q-70 -25 -250 -51q-162 -25 -246 -68q-61 -80 -61 -176q0 -84 61 -121q90 8 285 86q182 72 290 72q25 -10 25 -41q0 12 -6 -57q-25 0 -19 -39q-143 -25 -331 -95q-162 -63 -324 -124q-53 27 -80 79zM194 1266 q12 137 187 233q78 -14 148.5 -67t90.5 -127q-27 -33 -49 -33q-25 0 -178 98q-98 -150 -166 -149q-6 0 -18 20q-6 12 -15 25z" />
<glyph unicode="&#xcb;" horiz-adv-x="757" d="M51 18q8 59 4 152q-4 160 -4 152q0 51 18.5 148t18.5 138q0 27 -16 45q8 57 2 219q-6 137 16 218q201 41 596 79q55 -27 55 -82q0 -45 -34 -96q-31 0 -97 2h-94q-172 0 -287 -43q-37 -49 -41 -147q-6 -147 -8 -160q12 4 14.5 -4t2.5 -23q-2 -18 -2 -16q0 -18 43 -18 q80 0 234.5 41t234.5 41q31 -14 30 -48q0 -33 -30 -63q-70 -25 -250 -51q-162 -25 -246 -68q-61 -80 -61 -176q0 -84 61 -121q90 8 285 86q182 72 290 72q25 -10 25 -41q0 12 -6 -57q-25 0 -19 -39q-143 -25 -331 -95q-162 -63 -324 -124q-53 27 -80 79zM184 1395 q0 63 15.5 80.5t78.5 17.5q25 -39 25 -82q0 -18 -3 -57.5t-3 -59.5l-37 -28h-35q-41 35 -41 129zM479 1432q0 37 10 71q33 25 64 27q8 -14 41 -14q24 -38 24 -58q0 -12 -10 -26q8 -20 8 -37q0 -49 -59 -82h-33q-45 39 -45 119z" />
<glyph unicode="&#xcc;" horiz-adv-x="280" d="M0 1452q154 -78 279 -203h57q35 0 35 56v14q-35 18 -131 127q-80 90 -146 90q-41 0 -94 -18v-66zM82 702q0 8 6 152q4 90 -4 150q10 12 25.5 53t35.5 51h43l43 -41q6 -27 7 -57q0 -31 -7.5 -92.5t-7.5 -92.5q0 -51 15 -88v-16q0 -47 -10.5 -139.5t-10.5 -139.5t8 -140 t8 -138q0 -94 -24 -168q-8 0 -28.5 -3t-30.5 -3q-35 0 -50 28q4 41 4 91q0 41 -4 123.5t-4 123.5q0 90 17 160q-31 76 -31 186z" />
<glyph unicode="&#xcd;" horiz-adv-x="280" d="M0 1305v14q37 18 133 127q78 90 143 90q41 0 95 -18v-66q-154 -78 -279 -203h-55q-37 0 -37 56zM82 702q0 8 6 152q4 90 -4 150q10 12 25.5 53t35.5 51h43l43 -41q6 -27 7 -57q0 -31 -7.5 -92.5t-7.5 -92.5q0 -51 15 -88v-16q0 -47 -10.5 -139.5t-10.5 -139.5t8 -140 t8 -138q0 -94 -24 -168q-8 0 -28.5 -3t-30.5 -3q-35 0 -50 28q4 41 4 91q0 41 -4 123.5t-4 123.5q0 90 17 160q-31 76 -31 186z" />
<glyph unicode="&#xce;" horiz-adv-x="280" d="M-62 1266q12 137 187 233q78 -14 148.5 -67t90.5 -127q-27 -33 -49 -33q-25 0 -178 98q-98 -150 -166 -149q-6 0 -18 20q-6 12 -15 25zM82 702q0 8 6 152q4 90 -4 150q10 12 25.5 53t35.5 51h43l43 -41q6 -27 7 -57q0 -31 -7.5 -92.5t-7.5 -92.5q0 -51 15 -88v-16 q0 -47 -10.5 -139.5t-10.5 -139.5t8 -140t8 -138q0 -94 -24 -168q-8 0 -28.5 -3t-30.5 -3q-35 0 -50 28q4 41 4 91q0 41 -4 123.5t-4 123.5q0 90 17 160q-31 76 -31 186z" />
<glyph unicode="&#xcf;" horiz-adv-x="280" d="M-61 1395q0 63 15.5 80.5t78.5 17.5q25 -39 25 -82q0 -18 -3 -57.5t-3 -59.5l-37 -28h-35q-41 35 -41 129zM82 702q0 8 6 152q4 90 -4 150q10 12 25.5 53t35.5 51h43l43 -41q6 -27 7 -57q0 -31 -7.5 -92.5t-7.5 -92.5q0 -51 15 -88v-16q0 -47 -10.5 -139.5t-10.5 -139.5 t8 -140t8 -138q0 -94 -24 -168q-8 0 -28.5 -3t-30.5 -3q-35 0 -50 28q4 41 4 91q0 41 -4 123.5t-4 123.5q0 90 17 160q-31 76 -31 186zM234 1432q0 37 10 71q33 25 64 27q8 -14 41 -14q24 -38 24 -58q0 -12 -10 -26q8 -20 8 -37q0 -49 -59 -82h-33q-45 39 -45 119z" />
<glyph unicode="&#xd0;" horiz-adv-x="907" d="M-41 496v12q37 2 37 76l305 26q27 2 39 -2q20 -6 20 -28l37 38q45 -18 45 -67q0 -14 -4 -39t-4 -35l-438 -39q-23 -2 -31 19q-6 12 -6 39zM100 295q0 41 16.5 115.5t16.5 113.5q0 33 -27 58q23 61 23 143q0 31 -4 92.5t-4 91.5q0 119 49 201q39 6 82 6q51 0 151.5 -12 t151.5 -12q59 0 260 -80q51 -20 92 -99q27 -63 56 -129q0 -74 -35 -166q-33 -80 -66 -159q-289 -317 -641 -500q-14 -8 -26 -8q-14 0 -42 13t-47 13q4 41 5 86q0 39 -5.5 117t-5.5 115zM227 227q16 -49 92 -49h13q367 283 491 490q2 21 2 41q0 143 -141 213q-111 53 -268 53 q-39 0 -76 -4q-55 -37 -73.5 -70t-18.5 -96v-424q-20 -20 -19 -74q2 -66 -2 -80z" />
<glyph unicode="&#xd1;" horiz-adv-x="780" d="M51 731q0 37 25 62q2 8 4 27.5t2 31.5q0 35 -25 59q-6 16 -6 33q0 33 15.5 72t29.5 74h6q14 0 24.5 4t8.5 16q72 0 118 -42t46 -107q0 -18 -4 -39q84 -86 164 -310.5t164 -310.5q8 12 8 49q0 27 -3 74t-3 55q0 23 8 35q-6 61 -12 279q-4 172 -29 276q16 16 26 82 q6 43 74 43q29 0 39 -25q-4 -18 -4 -36q0 -27 9 -79.5t9 -78.5q0 -35 -12 -64l-2 -133q0 -164 49 -264l2 -180q2 -168 -30 -297q-20 -4 -41 -4q-72 0 -115 53q-14 18 -61.5 114.5t-120.5 194.5q-12 57 -62 142q-63 100 -78 135q-16 6 -45 67q-27 55 -28 80q-6 -10 -6 -22 q0 -27 9 -80t9 -80q0 -14 -6 -25q-6 -74 -6 -149q0 -63 6 -189.5t6 -189.5q0 -35 -23 -86q-25 -59 -55 -59h-39q-43 27 -43 88q0 76 15.5 226t15.5 226q0 43 -16.5 127t-16.5 125zM123 1321v8q0 45 52 68.5t110 50.5q72 33 116 33q47 0 103 -76q41 8 121 41q18 12 30 12 q51 0 66 -6q22 -12 22 -57v-21q-10 -12 -32 -35q-39 0 -114 -29.5t-114 -29.5q-63 0 -123 76q-16 -6 -78.5 -51t-72.5 -45q-29 0 -86 61z" />
<glyph unicode="&#xd2;" horiz-adv-x="1091" d="M-39 317q0 49 19.5 148.5t19.5 148.5q59 61 59 160q82 72 240 219q96 41 195 84q115 49 202 74q233 -51 334 -127q139 -106 139 -317q0 -197 -57 -330q-51 -27 -100 -88q-39 -55 -78 -111l-8 4l-43 -28l-9 4q-63 -74 -194 -123q-113 -37 -223 -76q-37 0 -111 12.5 t-113 12.5q-29 0 -55 -4q-119 78 -155 133q-18 31 -23.5 91t-38.5 113zM94 406q0 -31 12.5 -91.5t12.5 -91.5q8 -6 45 -26q25 -14 35 -35q82 -27 168 -27q176 0 407 109q96 88 191 176q71 84 71 254q0 23 -2 67.5t-2 65.5q-88 141 -299 141q-160 0 -297 -78 q-182 0 -317 -333q6 -31 6 -41q0 -31 -25 -43q-6 -23 -6 -47zM440 1462q154 -78 279 -203h57q35 0 35 56v14q-35 18 -131 127q-80 90 -146 90q-41 0 -94 -18v-66z" />
<glyph unicode="&#xd3;" horiz-adv-x="1091" d="M-39 317q0 49 19.5 148.5t19.5 148.5q59 61 59 160q82 72 240 219q96 41 195 84q115 49 202 74q233 -51 334 -127q139 -106 139 -317q0 -197 -57 -330q-51 -27 -100 -88q-39 -55 -78 -111l-8 4l-43 -28l-9 4q-63 -74 -194 -123q-113 -37 -223 -76q-37 0 -111 12.5 t-113 12.5q-29 0 -55 -4q-119 78 -155 133q-18 31 -23.5 91t-38.5 113zM94 406q0 -31 12.5 -91.5t12.5 -91.5q8 -6 45 -26q25 -14 35 -35q82 -27 168 -27q176 0 407 109q96 88 191 176q71 84 71 254q0 23 -2 67.5t-2 65.5q-88 141 -299 141q-160 0 -297 -78 q-182 0 -317 -333q6 -31 6 -41q0 -31 -25 -43q-6 -23 -6 -47zM410 1305v14q37 18 133 127q78 90 143 90q41 0 95 -18v-66q-154 -78 -279 -203h-55q-37 0 -37 56z" />
<glyph unicode="&#xd4;" horiz-adv-x="1091" d="M-39 317q0 49 19.5 148.5t19.5 148.5q59 61 59 160q82 72 240 219q96 41 195 84q115 49 202 74q233 -51 334 -127q139 -106 139 -317q0 -197 -57 -330q-51 -27 -100 -88q-39 -55 -78 -111l-8 4l-43 -28l-9 4q-63 -74 -194 -123q-113 -37 -223 -76q-37 0 -111 12.5 t-113 12.5q-29 0 -55 -4q-119 78 -155 133q-18 31 -23.5 91t-38.5 113zM94 406q0 -31 12.5 -91.5t12.5 -91.5q8 -6 45 -26q25 -14 35 -35q82 -27 168 -27q176 0 407 109q96 88 191 176q71 84 71 254q0 23 -2 67.5t-2 65.5q-88 141 -299 141q-160 0 -297 -78 q-182 0 -317 -333q6 -31 6 -41q0 -31 -25 -43q-6 -23 -6 -47zM379 1266q12 137 187 233q78 -14 148.5 -67t90.5 -127q-27 -33 -49 -33q-25 0 -178 98q-98 -150 -166 -149q-6 0 -18 20q-6 12 -15 25z" />
<glyph unicode="&#xd5;" horiz-adv-x="1091" d="M-39 317q0 49 19.5 148.5t19.5 148.5q59 61 59 160q82 72 240 219q96 41 195 84q115 49 202 74q233 -51 334 -127q139 -106 139 -317q0 -197 -57 -330q-51 -27 -100 -88q-39 -55 -78 -111l-8 4l-43 -28l-9 4q-63 -74 -194 -123q-113 -37 -223 -76q-37 0 -111 12.5 t-113 12.5q-29 0 -55 -4q-119 78 -155 133q-18 31 -23.5 91t-38.5 113zM94 406q0 -31 12.5 -91.5t12.5 -91.5q8 -6 45 -26q25 -14 35 -35q82 -27 168 -27q176 0 407 109q96 88 191 176q71 84 71 254q0 23 -2 67.5t-2 65.5q-88 141 -299 141q-160 0 -297 -78 q-182 0 -317 -333q6 -31 6 -41q0 -31 -25 -43q-6 -23 -6 -47zM379 1321v8q0 45 52 68.5t110 50.5q72 33 116 33q47 0 103 -76q41 8 121 41q18 12 30 12q51 0 66 -6q22 -12 22 -57v-21q-10 -12 -32 -35q-39 0 -114 -29.5t-114 -29.5q-63 0 -123 76q-16 -6 -78.5 -51 t-72.5 -45q-29 0 -86 61z" />
<glyph unicode="&#xd6;" horiz-adv-x="1091" d="M-39 317q0 49 19.5 148.5t19.5 148.5q59 61 59 160q82 72 240 219q96 41 195 84q115 49 202 74q233 -51 334 -127q139 -106 139 -317q0 -197 -57 -330q-51 -27 -100 -88q-39 -55 -78 -111l-8 4l-43 -28l-9 4q-63 -74 -194 -123q-113 -37 -223 -76q-37 0 -111 12.5 t-113 12.5q-29 0 -55 -4q-119 78 -155 133q-18 31 -23.5 91t-38.5 113zM94 406q0 -31 12.5 -91.5t12.5 -91.5q8 -6 45 -26q25 -14 35 -35q82 -27 168 -27q176 0 407 109q96 88 191 176q71 84 71 254q0 23 -2 67.5t-2 65.5q-88 141 -299 141q-160 0 -297 -78 q-182 0 -317 -333q6 -31 6 -41q0 -31 -25 -43q-6 -23 -6 -47zM317 1395q0 63 15.5 80.5t78.5 17.5q25 -39 25 -82q0 -18 -3 -57.5t-3 -59.5l-37 -28h-35q-41 35 -41 129zM612 1432q0 37 10 71q33 25 64 27q8 -14 41 -14q24 -38 24 -58q0 -12 -10 -26q8 -20 8 -37 q0 -49 -59 -82h-33q-45 39 -45 119z" />
<glyph unicode="&#xd8;" horiz-adv-x="1091" d="M-39 317q0 49 19.5 148.5t19.5 148.5q59 61 59 160q39 37 120 108.5t120 110.5q96 41 195 84q115 49 202 74q68 -14 119 -29q33 61 82 113q86 92 92 98l29 -8q16 -18 41 -35q-20 -90 -96 -225q206 -104 206 -358q0 -197 -57 -330q-51 -27 -100 -88q-39 -55 -78 -111l-8 4 l-43 -28l-9 4q-63 -74 -194 -123q-113 -37 -223 -76q-35 0 -129 16q-35 -63 -109 -192q-47 -31 -82 -31q-25 0 -45 15q14 70 62 202l18 15q-115 76 -149 131q-18 31 -23.5 91t-38.5 111zM94 406q0 -31 12.5 -91.5t12.5 -91.5q8 -6 45 -26q25 -14 35 -35q45 -14 92 -21 q57 98 139 295q86 205 137 295q51 31 92 98q31 60 64 119q-156 -2 -287 -78q-182 0 -317 -333q6 -31 6 -41q0 -31 -25 -43q-6 -23 -6 -47zM416 137q156 12 358 107q96 88 191 176q71 84 71 254q0 23 -2 67.5t-2 65.5q-49 78 -143 115q-31 -59 -121 -160q-61 -68 -137 -199 q-41 -74 -215 -426z" />
<glyph unicode="&#xd9;" horiz-adv-x="636" d="M41 666l20 18q-20 37 -20 80q0 31 18 108q18 68 13 111q4 4 39 86q20 49 79 49q43 0 43 -37q0 -170 -24 -282q-2 -4 -19 -54q-10 -33 -10 -55q0 -76 29 -201q33 -152 37 -200q25 -61 49 -123q33 -76 90 -76q66 0 96 78q-2 25 -2 49q0 49 10.5 142.5t10.5 140.5 q0 80 -23 145q0 -14 0 113q0 94 29 166q-23 23 -23 59q0 127 88 127q33 0 60 -29q35 -112 35 -151v-6q-43 -82 -50 -258q18 -4 19 -31q0 12 -17 -78q-16 -195 -32 -389q-43 -240 -240 -240q-88 0 -139 70q-39 49 -64 152q-18 80 -34 157q-10 29 -29 86q-6 92 -39 273z M184 1452q154 -78 279 -203h57q35 0 35 56v14q-35 18 -131 127q-80 90 -146 90q-41 0 -94 -18v-66z" />
<glyph unicode="&#xda;" horiz-adv-x="636" d="M41 666l20 18q-20 37 -20 80q0 31 18 108q18 68 13 111q4 4 39 86q20 49 79 49q43 0 43 -37q0 -170 -24 -282q-2 -4 -19 -54q-10 -33 -10 -55q0 -76 29 -201q33 -152 37 -200q25 -61 49 -123q33 -76 90 -76q66 0 96 78q-2 25 -2 49q0 49 10.5 142.5t10.5 140.5 q0 80 -23 145q0 -14 0 113q0 94 29 166q-23 23 -23 59q0 127 88 127q33 0 60 -29q35 -112 35 -151v-6q-43 -82 -50 -258q18 -4 19 -31q0 12 -17 -78q-16 -195 -32 -389q-43 -240 -240 -240q-88 0 -139 70q-39 49 -64 152q-18 80 -34 157q-10 29 -29 86q-6 92 -39 273z M256 1305v14q37 18 133 127q78 90 143 90q41 0 95 -18v-66q-154 -78 -279 -203h-55q-37 0 -37 56z" />
<glyph unicode="&#xdb;" horiz-adv-x="636" d="M41 666l20 18q-20 37 -20 80q0 31 18 108q18 68 13 111q4 4 39 86q20 49 79 49q43 0 43 -37q0 -170 -24 -282q-2 -4 -19 -54q-10 -33 -10 -55q0 -76 29 -201q33 -152 37 -200q25 -61 49 -123q33 -76 90 -76q66 0 96 78q-2 25 -2 49q0 49 10.5 142.5t10.5 140.5 q0 80 -23 145q0 -14 0 113q0 94 29 166q-23 23 -23 59q0 127 88 127q33 0 60 -29q35 -112 35 -151v-6q-43 -82 -50 -258q18 -4 19 -31q0 12 -17 -78q-16 -195 -32 -389q-43 -240 -240 -240q-88 0 -139 70q-39 49 -64 152q-18 80 -34 157q-10 29 -29 86q-6 92 -39 273z M143 1266q12 137 187 233q78 -14 148.5 -67t90.5 -127q-27 -33 -49 -33q-25 0 -178 98q-98 -150 -166 -149q-6 0 -18 20q-6 12 -15 25z" />
<glyph unicode="&#xdc;" horiz-adv-x="636" d="M41 666l20 18q-20 37 -20 80q0 31 18 108q18 68 13 111q4 4 39 86q20 49 79 49q43 0 43 -37q0 -170 -24 -282q-2 -4 -19 -54q-10 -33 -10 -55q0 -76 29 -201q33 -152 37 -200q25 -61 49 -123q33 -76 90 -76q66 0 96 78q-2 25 -2 49q0 49 10.5 142.5t10.5 140.5 q0 80 -23 145q0 -14 0 113q0 94 29 166q-23 23 -23 59q0 127 88 127q33 0 60 -29q35 -112 35 -151v-6q-43 -82 -50 -258q18 -4 19 -31q0 12 -17 -78q-16 -195 -32 -389q-43 -240 -240 -240q-88 0 -139 70q-39 49 -64 152q-18 80 -34 157q-10 29 -29 86q-6 92 -39 273z" />
<glyph unicode="&#xdd;" d="M45 614q29 193 29 357q0 66 26.5 92.5t94.5 26.5h18q0 -59 -12.5 -182.5t-12.5 -184.5q0 -59 33 -92q14 -4 29 -4q49 0 86 45q8 8 57 86q14 -4 15 -4q12 0 28.5 23.5t28.5 23.5q6 0 14 -2q14 12 160 202q119 156 168 156q16 0 33 -29q10 -23 20 -43q-37 -133 -184 -278 q-197 -190 -234 -246q-18 -82 -18 -182q0 -59 9 -181t9 -182q-18 2 -20 -30.5t-27 -32.5h-43q-20 12 -37 49q-18 47 -28 59q14 94 14 195q0 96 -14 188q-92 61 -189 62q0 25 -17.5 53.5t-35.5 54.5zM317 1305v14q37 18 133 127q78 90 143 90q41 0 95 -18v-66 q-154 -78 -279 -203h-55q-37 0 -37 56z" />
<glyph unicode="&#xde;" horiz-adv-x="747" d="M82 702q0 8 6 152q4 90 -4 150q10 12 25.5 53t35.5 51h43l43 -41q8 -41 7 -104q-6 -109 -7 -105q49 4 109 4q35 0 104.5 -2t104.5 -2q-4 -16 28.5 -18t30.5 -19q113 0 178 -88l2 -28q10 -162 -239 -314h-41q-43 -31 -86 -59q-53 -35 -94 -49q-20 -4 -58 -17 q-20 -8 -21 -32.5t-18 -20.5q-2 -10 0 -25q2 -18 2 -24q0 -94 -24 -168q-8 0 -28.5 -3t-30.5 -3q-35 0 -50 28q2 8 4 162q0 98 27 158q-14 6 -16 16t0 25q2 20 2 24q0 10 -6 25q0 143 2 137q-4 63 -31 137zM217 463q0 -33 14 -64q18 -2 35 -2q119 0 363 207 q-16 115 -191 115q-29 0 -114 -12q-92 -14 -105 -23q12 -12 25 -39l-13 -6q4 -18 5 -37q0 -25 -9.5 -70t-9.5 -69z" />
<glyph unicode="&#xdf;" horiz-adv-x="1492" d="M-51 436q0 25 24.5 138.5t34.5 138.5q70 164 137 256q104 55 207 110q125 66 223 62l33 -2q4 -27 45 -23q61 -94 62 -209q-10 -23 -37 -22q-14 0 -41 6q-23 43 -109 86q-178 -23 -299 -133q-135 -119 -135 -293q0 -70 58 -70q16 0 131.5 45t214.5 45q106 0 262 -32 q41 -64 41 -195v-14q-233 -209 -279 -242q-180 -129 -336 -129q-43 0 -86 8q-37 39 -37 78t37 64q367 41 518 217v47q-12 23 -40 39q-39 20 -50 28q-41 0 -118.5 -21.5t-118.5 -21.5q-139 -84 -221 -84q-53 0 -87 35t-34 88zM645 463q0 84 41 285q12 16 71 129q43 80 91 112 q59 49 182 141h305q70 -68 70 -120q0 -18 -7 -39h-14q-12 0 -19 -7.5t-3 -19.5q-141 72 -201 72q-20 0 -43 -4q-102 -88 -205 -176q-127 -119 -127 -220q0 -57 51 -81q63 0 180 41.5t179 41.5q147 0 321 -86q31 -79 31 -147t-31 -145q-129 -111 -217 -160q-135 -74 -258 -64 q-4 -16 -33.5 -18t-25.5 -21h-172l-47 46v6q0 86 49 108q88 0 227 33q176 39 225 47q45 35 88 70q47 45 48 98q0 39 -66 70q-53 25 -100 24q-29 0 -70 -18q-53 -23 -66 -27q-68 -8 -198 -31q-10 -2 -60 -20q-35 -12 -59 -12q-100 0 -137 92z" />
<glyph unicode="&#xe0;" horiz-adv-x="790" d="M-49 57q0 18 2 41q51 78 104 238q55 170 97 239q8 86 32 246q31 190 50 232q41 86 151 86q27 0 55 -9q94 -102 111 -317l37 -39l-2 -12q0 -25 15 -69t15 -66q0 -16 -6 -31q43 -82 118 -249t118 -249q-25 -59 -113 -59h-12q-55 86 -109 172q-66 72 -186 72 q-145 0 -293 -113q-2 -27 -24.5 -76t-24.5 -76q-23 -39 -94 -38h-8q-33 18 -33 77zM205 1452q154 -78 279 -203h57q35 0 35 56v14q-35 18 -131 127q-80 90 -146 90q-41 0 -94 -18v-66zM211 412q0 -37 43 -56q27 12 129 27q80 10 117 53l10 119q-12 27 -57 154 q-31 96 -76 145h-39q-12 -12 -22.5 -41t-22.5 -39q2 25 2 -110q0 -70 -41 -109q-2 -23 -22.5 -71t-20.5 -72z" />
<glyph unicode="&#xe1;" horiz-adv-x="790" d="M-49 57q0 18 2 41q51 78 104 238q55 170 97 239q8 86 32 246q31 190 50 232q41 86 151 86q27 0 55 -9q94 -102 111 -317l37 -39l-2 -12q0 -25 15 -69t15 -66q0 -16 -6 -31q43 -82 118 -249t118 -249q-25 -59 -113 -59h-12q-55 86 -109 172q-66 72 -186 72 q-145 0 -293 -113q-2 -27 -24.5 -76t-24.5 -76q-23 -39 -94 -38h-8q-33 18 -33 77zM211 412q0 -37 43 -56q27 12 129 27q80 10 117 53l10 119q-12 27 -57 154q-31 96 -76 145h-39q-12 -12 -22.5 -41t-22.5 -39q2 25 2 -110q0 -70 -41 -109q-2 -23 -22.5 -71t-20.5 -72z M256 1305v14q37 18 133 127q78 90 143 90q41 0 95 -18v-66q-154 -78 -279 -203h-55q-37 0 -37 56z" />
<glyph unicode="&#xe2;" horiz-adv-x="790" d="M-49 57q0 18 2 41q51 78 104 238q55 170 97 239q8 86 32 246q31 190 50 232q41 86 151 86q27 0 55 -9q94 -102 111 -317l37 -39l-2 -12q0 -25 15 -69t15 -66q0 -16 -6 -31q43 -82 118 -249t118 -249q-25 -59 -113 -59h-12q-55 86 -109 172q-66 72 -186 72 q-145 0 -293 -113q-2 -27 -24.5 -76t-24.5 -76q-23 -39 -94 -38h-8q-33 18 -33 77zM143 1266q12 137 187 233q78 -14 148.5 -67t90.5 -127q-27 -33 -49 -33q-25 0 -178 98q-98 -150 -166 -149q-6 0 -18 20q-6 12 -15 25zM211 412q0 -37 43 -56q27 12 129 27q80 10 117 53 l10 119q-12 27 -57 154q-31 96 -76 145h-39q-12 -12 -22.5 -41t-22.5 -39q2 25 2 -110q0 -70 -41 -109q-2 -23 -22.5 -71t-20.5 -72z" />
<glyph unicode="&#xe3;" horiz-adv-x="790" d="M-49 57q0 18 2 41q51 78 104 238q55 170 97 239q8 86 32 246q31 190 50 232q41 86 151 86q27 0 55 -9q94 -102 111 -317l37 -39l-2 -12q0 -25 15 -69t15 -66q0 -16 -6 -31q43 -82 118 -249t118 -249q-25 -59 -113 -59h-12q-55 86 -109 172q-66 72 -186 72 q-145 0 -293 -113q-2 -27 -24.5 -76t-24.5 -76q-23 -39 -94 -38h-8q-33 18 -33 77zM123 1321v8q0 45 52 68.5t110 50.5q72 33 116 33q47 0 103 -76q41 8 121 41q18 12 30 12q51 0 66 -6q22 -12 22 -57v-21q-10 -12 -32 -35q-39 0 -114 -29.5t-114 -29.5q-63 0 -123 76 q-16 -6 -78.5 -51t-72.5 -45q-29 0 -86 61zM211 412q0 -37 43 -56q27 12 129 27q80 10 117 53l10 119q-12 27 -57 154q-31 96 -76 145h-39q-12 -12 -22.5 -41t-22.5 -39q2 25 2 -110q0 -70 -41 -109q-2 -23 -22.5 -71t-20.5 -72z" />
<glyph unicode="&#xe4;" horiz-adv-x="790" d="M-49 57q0 18 2 41q51 78 104 238q55 170 97 239q8 86 32 246q31 190 50 232q41 86 151 86q27 0 55 -9q94 -102 111 -317l37 -39l-2 -12q0 -25 15 -69t15 -66q0 -16 -6 -31q43 -82 118 -249t118 -249q-25 -59 -113 -59h-12q-55 86 -109 172q-66 72 -186 72 q-145 0 -293 -113q-2 -27 -24.5 -76t-24.5 -76q-23 -39 -94 -38h-8q-33 18 -33 77zM143 1395q0 63 15.5 80.5t78.5 17.5q25 -39 25 -82q0 -18 -3 -57.5t-3 -59.5l-37 -28h-35q-41 35 -41 129zM211 412q0 -37 43 -56q27 12 129 27q80 10 117 53l10 119q-12 27 -57 154 q-31 96 -76 145h-39q-12 -12 -22.5 -41t-22.5 -39q2 25 2 -110q0 -70 -41 -109q-2 -23 -22.5 -71t-20.5 -72zM438 1432q0 37 10 71q33 25 64 27q8 -14 41 -14q24 -38 24 -58q0 -12 -10 -26q8 -20 8 -37q0 -49 -59 -82h-33q-45 39 -45 119z" />
<glyph unicode="&#xe5;" horiz-adv-x="790" d="M-49 57q0 18 2 41q51 78 104 238q55 170 97 239q8 86 32 246q31 190 50 232q41 86 151 86q27 0 55 -9q94 -102 111 -317l37 -39l-2 -12q0 -25 15 -69t15 -66q0 -16 -6 -31q43 -82 118 -249t118 -249q-25 -59 -113 -59h-12q-55 86 -109 172q-66 72 -186 72 q-145 0 -293 -113q-2 -27 -24.5 -76t-24.5 -76q-23 -39 -94 -38h-8q-33 18 -33 77zM211 412q0 -37 43 -56q27 12 129 27q80 10 117 53l10 119q-12 27 -57 154q-31 96 -76 145h-39q-12 -12 -22.5 -41t-22.5 -39q2 25 2 -110q0 -70 -41 -109q-2 -23 -22.5 -71t-20.5 -72z M223 1304q0 63 44 117.5t108 54.5q57 0 96 -36t39 -93q0 -74 -64 -116q-55 -37 -131 -37q-43 0 -67.5 32.5t-24.5 77.5zM319 1327q0 -37 39 -37q20 0 41 17.5t21 35.5q0 31 -39 31q-18 0 -40 -15.5t-22 -31.5z" />
<glyph unicode="&#xe6;" horiz-adv-x="1429" d="M-49 -27q-4 90 74 203q70 86 139 174q20 27 104 168q61 104 121 154l25 78q127 111 194 225q72 27 92 92l52 37q88 -4 88 -49q0 -12 -15 -92q-33 -186 -32 -441q0 -51 10 -90l-31 -96q2 -29 21 -113q14 -70 14 -112q0 -47 -14 -91q-8 4 -8.5 -25.5t-30.5 -29.5 q-78 0 -86 45q25 78 24 152q0 113 -65 145q-27 2 -39 2q-207 0 -312 -45q-152 -66 -178 -244q-66 -76 -118 -75q-10 0 -27 4zM381 457q27 -43 43 -43q4 0 61 16q129 37 148 53q35 33 35 152q0 41 20 80v14q0 12 6 37t6 35q0 27 -16 26q-39 0 -104 -75q-84 -96 -97 -105 l-18 -57q-53 -37 -84 -133zM666 35q0 59 6 158q6 117 6 155q8 260 8 664l45 43q70 -2 174 16q160 29 170 29q41 -29 90 -31q41 -2 119 18.5t119 20.5q16 -2 33 -4q34 -37 34 -72t-34 -67q-98 4 -290 -17.5t-288 -17.5q-55 -31 -59 -119q0 -72 -2 -143q10 -16 10 -35 q0 -12 -8 -38t-8 -40q0 -25 26 -39q55 -2 162.5 13.5t165.5 13.5q70 -2 135 -31q6 -18 6 -37q0 -45 -72 -78q-57 16 -176 33q-20 2 -39 -2q-27 -23 -90 -33q-72 -12 -92 -22q-43 -23 -43 -82q0 -20 6 -60.5t6 -58.5q37 -55 86 -57q20 0 57.5 17.5t100.5 31.5q90 16 105 20 q20 -20 45 -20q25 -2 72.5 16.5t76.5 16.5q12 0 27 -4l45 -48v-49q-76 -53 -162 -49q-39 2 -84 14q-2 -2 -41 -20q-25 -12 -35 -35q-49 2 -147 -15.5t-148 -13.5q-31 0 -59 7v8q0 8 -29.5 12t-29.5 31z" />
<glyph unicode="&#xe7;" horiz-adv-x="817" d="M-20 393q0 35 2 90q2 68 2 90q82 131 96 275q31 12 57 61q12 25 92 101.5t113 99.5q47 25 139 76q88 -10 156 -49q86 -49 86 -127q0 -29 -12 -58q-23 4 -86 29q-55 23 -86 23q-16 0 -30.5 -8.5t-80.5 -22.5q-53 -10 -63 -37q-92 -8 -168 -184q-49 -129 -97 -258l-2 -27 q-2 -45 19 -119q23 -90 26 -119q25 -33 51.5 -67.5t67.5 -34.5q250 0 369 172q10 4 69 45q39 27 76 27q43 0 98 -31l-34 -115q-74 -57 -111 -82q-70 -47 -123 -55q-78 -123 -293 -123q-10 0 -147 6q-186 106 -186 422zM327 -244q0 6 29 66q25 45 57 174l39 41h39 q43 -29 43 -76q0 -12 -2 -33v-31q-12 -12 -26.5 -51t-32.5 -49v-39q-43 -84 -97 -84l-24 4q0 14 -12.5 39t-12.5 39z" />
<glyph unicode="&#xe8;" d="M51 49q0 57 6 156q6 117 6 155q8 262 9 666l45 45q70 0 174 23q160 37 170 36q41 -27 90 -26q41 0 119 24.5t118 24.5q16 0 33 -4q35 -33 35 -68q0 -37 -35 -69q-98 0 -289.5 -30t-287.5 -30q-55 -35 -58 -123q-2 -72 -4 -143q10 -16 11 -33q0 -14 -8.5 -39.5t-8.5 -40.5 q0 -25 27 -38q55 0 162.5 21.5t164.5 21.5q70 0 136 -25q6 -20 6 -37q0 -47 -72 -82q-29 2 -87 14.5t-89 12.5q-20 0 -39 -4q-27 -25 -90 -39q-72 -14 -92 -25q-43 -25 -43 -84q0 -20 6 -60t6 -59q37 -53 86 -53q20 0 57 19.5t101 36.5q90 20 104 26q20 -20 45 -20t73 20.5 t77 20.5q12 0 26 -4l45 -46v-49q-76 -55 -161 -55q-39 0 -84 10q-2 -2 -41 -22q-25 -12 -35 -37q-49 0 -147.5 -21.5t-147.5 -21.5q-31 0 -59 6v8q0 8 -30 10t-30 31zM256 1452q154 -78 279 -203h57q35 0 35 56v14q-35 18 -131 127q-80 90 -146 90q-41 0 -94 -18v-66z" />
<glyph unicode="&#xe9;" d="M51 49q0 57 6 156q6 117 6 155q8 262 9 666l45 45q70 0 174 23q160 37 170 36q41 -27 90 -26q41 0 119 24.5t118 24.5q16 0 33 -4q35 -33 35 -68q0 -37 -35 -69q-98 0 -289.5 -30t-287.5 -30q-55 -35 -58 -123q-2 -72 -4 -143q10 -16 11 -33q0 -14 -8.5 -39.5t-8.5 -40.5 q0 -25 27 -38q55 0 162.5 21.5t164.5 21.5q70 0 136 -25q6 -20 6 -37q0 -47 -72 -82q-29 2 -87 14.5t-89 12.5q-20 0 -39 -4q-27 -25 -90 -39q-72 -14 -92 -25q-43 -25 -43 -84q0 -20 6 -60t6 -59q37 -53 86 -53q20 0 57 19.5t101 36.5q90 20 104 26q20 -20 45 -20t73 20.5 t77 20.5q12 0 26 -4l45 -46v-49q-76 -55 -161 -55q-39 0 -84 10q-2 -2 -41 -22q-25 -12 -35 -37q-49 0 -147.5 -21.5t-147.5 -21.5q-31 0 -59 6v8q0 8 -30 10t-30 31zM256 1305v14q37 18 133 127q78 90 143 90q41 0 95 -18v-66q-154 -78 -279 -203h-55q-37 0 -37 56z" />
<glyph unicode="&#xea;" d="M51 49q0 57 6 156q6 117 6 155q8 262 9 666l45 45q70 0 174 23q160 37 170 36q41 -27 90 -26q41 0 119 24.5t118 24.5q16 0 33 -4q35 -33 35 -68q0 -37 -35 -69q-98 0 -289.5 -30t-287.5 -30q-55 -35 -58 -123q-2 -72 -4 -143q10 -16 11 -33q0 -14 -8.5 -39.5t-8.5 -40.5 q0 -25 27 -38q55 0 162.5 21.5t164.5 21.5q70 0 136 -25q6 -20 6 -37q0 -47 -72 -82q-29 2 -87 14.5t-89 12.5q-20 0 -39 -4q-27 -25 -90 -39q-72 -14 -92 -25q-43 -25 -43 -84q0 -20 6 -60t6 -59q37 -53 86 -53q20 0 57 19.5t101 36.5q90 20 104 26q20 -20 45 -20t73 20.5 t77 20.5q12 0 26 -4l45 -46v-49q-76 -55 -161 -55q-39 0 -84 10q-2 -2 -41 -22q-25 -12 -35 -37q-49 0 -147.5 -21.5t-147.5 -21.5q-31 0 -59 6v8q0 8 -30 10t-30 31zM215 1266q12 137 187 233q78 -14 148.5 -67t90.5 -127q-27 -33 -49 -33q-25 0 -178 98 q-98 -150 -166 -149q-6 0 -18 20q-6 12 -15 25z" />
<glyph unicode="&#xeb;" d="M51 49q0 57 6 156q6 117 6 155q8 262 9 666l45 45q70 0 174 23q160 37 170 36q41 -27 90 -26q41 0 119 24.5t118 24.5q16 0 33 -4q35 -33 35 -68q0 -37 -35 -69q-98 0 -289.5 -30t-287.5 -30q-55 -35 -58 -123q-2 -72 -4 -143q10 -16 11 -33q0 -14 -8.5 -39.5t-8.5 -40.5 q0 -25 27 -38q55 0 162.5 21.5t164.5 21.5q70 0 136 -25q6 -20 6 -37q0 -47 -72 -82q-29 2 -87 14.5t-89 12.5q-20 0 -39 -4q-27 -25 -90 -39q-72 -14 -92 -25q-43 -25 -43 -84q0 -20 6 -60t6 -59q37 -53 86 -53q20 0 57 19.5t101 36.5q90 20 104 26q20 -20 45 -20t73 20.5 t77 20.5q12 0 26 -4l45 -46v-49q-76 -55 -161 -55q-39 0 -84 10q-2 -2 -41 -22q-25 -12 -35 -37q-49 0 -147.5 -21.5t-147.5 -21.5q-31 0 -59 6v8q0 8 -30 10t-30 31zM215 1395q0 63 15.5 80.5t78.5 17.5q25 -39 25 -82q0 -18 -3 -57.5t-3 -59.5l-37 -28h-35q-41 35 -41 129 zM510 1432q0 37 10 71q33 25 64 27q8 -14 41 -14q24 -38 24 -58q0 -12 -10 -26q8 -20 8 -37q0 -49 -59 -82h-33q-45 39 -45 119z" />
<glyph unicode="&#xec;" horiz-adv-x="268" d="M-10 1452q154 -78 279 -203h57q35 0 35 56v14q-35 18 -131 127q-80 90 -146 90q-41 0 -94 -18v-66zM61 909q0 33 20.5 90.5t22.5 87.5h13q10 0 18 3.5t8 13.5h11q0 -12 18 -14q10 -2 31 -3q31 -80 30 -264q0 -43 -12 -125t-12 -125t4 -127t4 -127q0 -82 -12 -139 q25 -25 24 -61q0 -14 -3 -41t-3 -39q-33 -70 -86 -70q-16 0 -33 6q-2 25 -21.5 71t-19.5 73q27 72 27 172q0 59 -13.5 179t-13.5 177q23 35 19 96q-6 76 2 101q-23 31 -23 65z" />
<glyph unicode="&#xed;" horiz-adv-x="268" d="M0 1305v14q37 18 133 127q78 90 143 90q41 0 95 -18v-66q-154 -78 -279 -203h-55q-37 0 -37 56zM61 909q0 33 20.5 90.5t22.5 87.5h13q10 0 18 3.5t8 13.5h11q0 -12 18 -14q10 -2 31 -3q31 -80 30 -264q0 -43 -12 -125t-12 -125t4 -127t4 -127q0 -82 -12 -139 q25 -25 24 -61q0 -14 -3 -41t-3 -39q-33 -70 -86 -70q-16 0 -33 6q-2 25 -21.5 71t-19.5 73q27 72 27 172q0 59 -13.5 179t-13.5 177q23 35 19 96q-6 76 2 101q-23 31 -23 65z" />
<glyph unicode="&#xee;" horiz-adv-x="268" d="M-62 1266q12 137 187 233q78 -14 148.5 -67t90.5 -127q-27 -33 -49 -33q-25 0 -178 98q-98 -150 -166 -149q-6 0 -18 20q-6 12 -15 25zM61 909q0 33 20.5 90.5t22.5 87.5h13q10 0 18 3.5t8 13.5h11q0 -12 18 -14q10 -2 31 -3q31 -80 30 -264q0 -43 -12 -125t-12 -125 t4 -127t4 -127q0 -82 -12 -139q25 -25 24 -61q0 -14 -3 -41t-3 -39q-33 -70 -86 -70q-16 0 -33 6q-2 25 -21.5 71t-19.5 73q27 72 27 172q0 59 -13.5 179t-13.5 177q23 35 19 96q-6 76 2 101q-23 31 -23 65z" />
<glyph unicode="&#xef;" horiz-adv-x="268" d="M-61 1395q0 63 15.5 80.5t78.5 17.5q25 -39 25 -82q0 -18 -3 -57.5t-3 -59.5l-37 -28h-35q-41 35 -41 129zM61 909q0 33 20.5 90.5t22.5 87.5h13q10 0 18 3.5t8 13.5h11q0 -12 18 -14q10 -2 31 -3q31 -80 30 -264q0 -43 -12 -125t-12 -125t4 -127t4 -127q0 -82 -12 -139 q25 -25 24 -61q0 -14 -3 -41t-3 -39q-33 -70 -86 -70q-16 0 -33 6q-2 25 -21.5 71t-19.5 73q27 72 27 172q0 59 -13.5 179t-13.5 177q23 35 19 96q-6 76 2 101q-23 31 -23 65zM234 1432q0 37 10 71q33 25 64 27q8 -14 41 -14q24 -38 24 -58q0 -12 -10 -26q8 -20 8 -37 q0 -49 -59 -82h-33q-45 39 -45 119z" />
<glyph unicode="&#xf0;" horiz-adv-x="956" d="M-41 496v12q37 2 37 76l305 26q27 2 39 -2q20 -6 20 -28l37 38q45 -18 45 -67q0 -14 -4 -39t-4 -35l-438 -39q-23 -2 -31 19q-6 12 -6 39zM102 111v16q0 190 13 287q2 12 20 123q12 76 12 125q0 66 -12 192.5t-12 187.5q37 51 108 60h129q25 0 72 6t70 6q186 0 319 -76 q150 -86 195 -254q-18 -92 -31 -141q-25 -90 -49 -135q-90 -168 -278.5 -302t-376.5 -175l-39 -41h-80q-23 0 -37 51q-18 63 -23 70zM233 362q0 -72 19 -133q39 -41 129 -41q104 63 211 127q129 82 176 160q90 146 90 248q0 53 -20 102q-33 33 -64 68q-39 39 -76 51 q-25 -4 -53 -4q-33 0 -97.5 9t-96.5 9q-61 0 -125 -32q-78 -39 -78 -95q0 -25 8 -69.5t8 -67.5q0 -57 -15.5 -166.5t-15.5 -165.5z" />
<glyph unicode="&#xf1;" horiz-adv-x="620" d="M41 788q0 29 27 41q6 18 6 39q0 20 -7.5 61.5t-7.5 61.5q0 109 88 109q35 0 78 -23q39 -391 197 -571q16 -18 33.5 -63.5t27.5 -57.5q2 8 2 109q0 33 9 47l2 59q0 66 -13.5 190.5t-13.5 184.5q0 16 11.5 46t13.5 46q39 37 77 37q39 0 52 -45q-10 -33 -9 -127 q2 -82 -20 -125l12 -344q10 -201 43 -340q-20 -18 -33.5 -68.5t-33.5 -68.5h-43q-23 12 -35 39q-18 35 -27 45l2 39q-6 6 -22 43q-14 25 -35 34v9q2 76 -51 155q-49 68 -97 135v39q-43 92 -84 154v-129q0 -319 19 -551h-6q-16 2 -17.5 -27.5t-25.5 -29.5l-41 2l-41 43v28 q0 41 -8.5 119t-8.5 117q0 47 9.5 145.5t9.5 147.5q0 47 -19.5 129t-19.5 116zM51 1321v8q0 45 52 68.5t110 50.5q72 33 116 33q47 0 103 -76q41 8 121 41q18 12 30 12q51 0 66 -6q22 -12 22 -57v-21q-10 -12 -32 -35q-39 0 -114 -29.5t-114 -29.5q-63 0 -123 76 q-16 -6 -78.5 -51t-72.5 -45q-29 0 -86 61z" />
<glyph unicode="&#xf2;" horiz-adv-x="903" d="M-33 326q4 90 37 264q27 76 92.5 182.5t120.5 161.5v41q49 94 184 127q78 18 236 18q29 0 123 -39q88 -35 117.5 -57.5t50.5 -67.5q39 -77 39 -79q0 -156 -43 -326q-47 -186 -129 -299q-33 -45 -133.5 -100.5t-135.5 -108.5q-180 -59 -258 -59q-96 0 -166 77 q-57 76 -116 152q6 39 6 53q0 35 -25 60zM117 365q0 -98 22 -138q25 -49 107 -88h51q49 0 106 27q49 25 99 51q29 57 94 57q223 197 256 512q-55 109 -162 162q-25 0 -79 3t-81 3q-66 0 -133 -26q-86 -33 -86 -88q0 -18 -39 -49q-27 -20 -55 -41q-8 -39 -61 -185 q-39 -102 -39 -200zM307 1452q154 -78 279 -203h57q35 0 35 56v14q-35 18 -131 127q-80 90 -146 90q-41 0 -94 -18v-66z" />
<glyph unicode="&#xf3;" horiz-adv-x="903" d="M-33 326q4 90 37 264q27 76 92.5 182.5t120.5 161.5v41q49 94 184 127q78 18 236 18q29 0 123 -39q88 -35 117.5 -57.5t50.5 -67.5q39 -77 39 -79q0 -156 -43 -326q-47 -186 -129 -299q-33 -45 -133.5 -100.5t-135.5 -108.5q-180 -59 -258 -59q-96 0 -166 77 q-57 76 -116 152q6 39 6 53q0 35 -25 60zM117 365q0 -98 22 -138q25 -49 107 -88h51q49 0 106 27q49 25 99 51q29 57 94 57q223 197 256 512q-55 109 -162 162q-25 0 -79 3t-81 3q-66 0 -133 -26q-86 -33 -86 -88q0 -18 -39 -49q-27 -20 -55 -41q-8 -39 -61 -185 q-39 -102 -39 -200zM307 1305v14q37 18 133 127q78 90 143 90q41 0 95 -18v-66q-154 -78 -279 -203h-55q-37 0 -37 56z" />
<glyph unicode="&#xf4;" horiz-adv-x="903" d="M-33 326q4 90 37 264q27 76 92.5 182.5t120.5 161.5v41q49 94 184 127q78 18 236 18q29 0 123 -39q88 -35 117.5 -57.5t50.5 -67.5q39 -77 39 -79q0 -156 -43 -326q-47 -186 -129 -299q-33 -45 -133.5 -100.5t-135.5 -108.5q-180 -59 -258 -59q-96 0 -166 77 q-57 76 -116 152q6 39 6 53q0 35 -25 60zM117 365q0 -98 22 -138q25 -49 107 -88h51q49 0 106 27q49 25 99 51q29 57 94 57q223 197 256 512q-55 109 -162 162q-25 0 -79 3t-81 3q-66 0 -133 -26q-86 -33 -86 -88q0 -18 -39 -49q-27 -20 -55 -41q-8 -39 -61 -185 q-39 -102 -39 -200zM297 1266q12 137 187 233q78 -14 148.5 -67t90.5 -127q-27 -33 -49 -33q-25 0 -178 98q-98 -150 -166 -149q-6 0 -18 20q-6 12 -15 25z" />
<glyph unicode="&#xf5;" horiz-adv-x="903" d="M-33 326q4 90 37 264q27 76 92.5 182.5t120.5 161.5v41q49 94 184 127q78 18 236 18q29 0 123 -39q88 -35 117.5 -57.5t50.5 -67.5q39 -77 39 -79q0 -156 -43 -326q-47 -186 -129 -299q-33 -45 -133.5 -100.5t-135.5 -108.5q-180 -59 -258 -59q-96 0 -166 77 q-57 76 -116 152q6 39 6 53q0 35 -25 60zM117 365q0 -98 22 -138q25 -49 107 -88h51q49 0 106 27q49 25 99 51q29 57 94 57q223 197 256 512q-55 109 -162 162q-25 0 -79 3t-81 3q-66 0 -133 -26q-86 -33 -86 -88q0 -18 -39 -49q-27 -20 -55 -41q-8 -39 -61 -185 q-39 -102 -39 -200zM225 1321v8q0 45 52 68.5t110 50.5q72 33 116 33q47 0 103 -76q41 8 121 41q18 12 30 12q51 0 66 -6q22 -12 22 -57v-21q-10 -12 -32 -35q-39 0 -114 -29.5t-114 -29.5q-63 0 -123 76q-16 -6 -78.5 -51t-72.5 -45q-29 0 -86 61z" />
<glyph unicode="&#xf6;" horiz-adv-x="903" d="M-33 326q4 90 37 264q27 76 92.5 182.5t120.5 161.5v41q49 94 184 127q78 18 236 18q29 0 123 -39q88 -35 117.5 -57.5t50.5 -67.5q39 -77 39 -79q0 -156 -43 -326q-47 -186 -129 -299q-33 -45 -133.5 -100.5t-135.5 -108.5q-180 -59 -258 -59q-96 0 -166 77 q-57 76 -116 152q6 39 6 53q0 35 -25 60zM117 365q0 -98 22 -138q25 -49 107 -88h51q49 0 106 27q49 25 99 51q29 57 94 57q223 197 256 512q-55 109 -162 162q-25 0 -79 3t-81 3q-66 0 -133 -26q-86 -33 -86 -88q0 -18 -39 -49q-27 -20 -55 -41q-8 -39 -61 -185 q-39 -102 -39 -200zM297 1395q0 63 15.5 80.5t78.5 17.5q25 -39 25 -82q0 -18 -3 -57.5t-3 -59.5l-37 -28h-35q-41 35 -41 129zM592 1432q0 37 10 71q33 25 64 27q8 -14 41 -14q24 -38 24 -58q0 -12 -10 -26q8 -20 8 -37q0 -49 -59 -82h-33q-45 39 -45 119z" />
<glyph unicode="&#xf8;" horiz-adv-x="903" d="M-57 -238q16 74 61 164q43 78 84 156q-31 45 -102 131l6 53q0 35 -25 60q4 90 37 264q27 74 93.5 182.5t119.5 161.5v41q49 94 184 127q78 18 236 18q25 0 55 -12q29 55 90 164q47 29 80 28q25 0 47 -14q-16 -61 -32 -125q-23 -74 -62 -106q78 -35 98 -72l54 -106 q0 -158 -43 -326q-45 -182 -129 -299q-33 -45 -134.5 -101.5t-134.5 -107.5q-184 -61 -258 -61q-29 0 -55 6q-2 -10 -45 -80t-76 -105q-61 -61 -80 -84l-30 9q-14 20 -39 34zM117 365q0 -119 35 -162q27 29 79 88q63 72 138 201q45 78 116 229q76 159 115 231q-43 2 -70 2 q-68 0 -133 -26q-86 -33 -86 -88q0 -18 -39 -49q-27 -20 -55 -41q-8 -39 -61 -185q-39 -102 -39 -200zM297 139q53 0 104.5 25.5t100.5 52.5q29 57 94 57q223 197 256 512q-49 96 -129 146q-59 -102 -148 -305q-90 -211 -143 -305q-72 -43 -135 -183z" />
<glyph unicode="&#xf9;" horiz-adv-x="534" d="M41 657q0 41 8 127t8 129t-6 78l60 125q16 0 28.5 5t12.5 18h4q25 2 42 -16.5t33 -37.5q0 -80 -32.5 -192.5t-32.5 -132.5q0 -14 2 -42t2 -42q0 -43 -18 -74q25 -188 59 -391q20 -37 65 -33l33 2q45 63 78 240q29 152 29 260q0 49 -5 148.5t-5 148.5q0 88 16 115 q25 35 106 41q0 -41 39 -76q0 -55 -20.5 -167t-20.5 -167q0 -68 23 -125q-14 -2 -14 -25q0 -12 4 -36.5t4 -36.5q0 -20 -15 -23q-20 -168 -43 -250q-39 -137 -116 -221q-18 -2 -78 -12q-49 -10 -80 -10q-20 0 -41 6q-76 84 -98 248q-10 139 -21 276q-10 92 -10 143z M154 1452q154 -78 279 -203h57q35 0 35 56v14q-35 18 -131 127q-80 90 -146 90q-41 0 -94 -18v-66z" />
<glyph unicode="&#xfa;" horiz-adv-x="534" d="M41 657q0 41 8 127t8 129t-6 78l60 125q16 0 28.5 5t12.5 18h4q25 2 42 -16.5t33 -37.5q0 -80 -32.5 -192.5t-32.5 -132.5q0 -14 2 -42t2 -42q0 -43 -18 -74q25 -188 59 -391q20 -37 65 -33l33 2q45 63 78 240q29 152 29 260q0 49 -5 148.5t-5 148.5q0 88 16 115 q25 35 106 41q0 -41 39 -76q0 -55 -20.5 -167t-20.5 -167q0 -68 23 -125q-14 -2 -14 -25q0 -12 4 -36.5t4 -36.5q0 -20 -15 -23q-20 -168 -43 -250q-39 -137 -116 -221q-18 -2 -78 -12q-49 -10 -80 -10q-20 0 -41 6q-76 84 -98 248q-10 139 -21 276q-10 92 -10 143z M184 1305v14q37 18 133 127q78 90 143 90q41 0 95 -18v-66q-154 -78 -279 -203h-55q-37 0 -37 56z" />
<glyph unicode="&#xfb;" horiz-adv-x="534" d="M41 657q0 41 8 127t8 129t-6 78l60 125q16 0 28.5 5t12.5 18h4q25 2 42 -16.5t33 -37.5q0 -80 -32.5 -192.5t-32.5 -132.5q0 -14 2 -42t2 -42q0 -43 -18 -74q25 -188 59 -391q20 -37 65 -33l33 2q45 63 78 240q29 152 29 260q0 49 -5 148.5t-5 148.5q0 88 16 115 q25 35 106 41q0 -41 39 -76q0 -55 -20.5 -167t-20.5 -167q0 -68 23 -125q-14 -2 -14 -25q0 -12 4 -36.5t4 -36.5q0 -20 -15 -23q-20 -168 -43 -250q-39 -137 -116 -221q-18 -2 -78 -12q-49 -10 -80 -10q-20 0 -41 6q-76 84 -98 248q-10 139 -21 276q-10 92 -10 143zM92 1297 q12 137 187 233q78 -14 148.5 -67t90.5 -127q-27 -33 -49 -33q-25 0 -178 98q-98 -150 -166 -149q-6 0 -18 20q-6 12 -15 25z" />
<glyph unicode="&#xfc;" horiz-adv-x="534" d="M41 657q0 41 8 127t8 129t-6 78l60 125q16 0 28.5 5t12.5 18h4q25 2 42 -16.5t33 -37.5q0 -80 -32.5 -192.5t-32.5 -132.5q0 -14 2 -42t2 -42q0 -43 -18 -74q25 -188 59 -391q20 -37 65 -33l33 2q45 63 78 240q29 152 29 260q0 49 -5 148.5t-5 148.5q0 88 16 115 q25 35 106 41q0 -41 39 -76q0 -55 -20.5 -167t-20.5 -167q0 -68 23 -125q-14 -2 -14 -25q0 -12 4 -36.5t4 -36.5q0 -20 -15 -23q-20 -168 -43 -250q-39 -137 -116 -221q-18 -2 -78 -12q-49 -10 -80 -10q-20 0 -41 6q-76 84 -98 248q-10 139 -21 276q-10 92 -10 143z M113 1395q0 63 15.5 80.5t78.5 17.5q25 -39 25 -82q0 -18 -3 -57.5t-3 -59.5l-37 -28h-35q-41 35 -41 129zM408 1432q0 37 10 71q33 25 64 27q8 -14 41 -14q24 -38 24 -58q0 -12 -10 -26q8 -20 8 -37q0 -49 -59 -82h-33q-45 39 -45 119z" />
<glyph unicode="&#xfd;" horiz-adv-x="899" d="M0 733q0 57 41 297q16 27 33.5 55.5t54.5 28.5q41 0 70 -65q-39 -98 -39 -291v-6q33 -66 98 -101q74 25 150 119q90 113 129 141q82 53 161 109q74 55 138 149q18 4 38 5q84 0 84 -76q0 -14 -4 -29q-63 -43 -165.5 -150.5t-133.5 -127.5q-2 -2 -118 -60q0 -33 -41 -55 q-49 -27 -58 -43q-20 -35 -20 -150q0 -82 29.5 -243.5t29.5 -243.5q-20 -39 -90 -39h-8q-82 188 -82 479q-20 27 -18 101q-2 0 -107 12q-66 8 -94.5 47t-77.5 137zM297 1305v14q37 18 133 127q78 90 143 90q41 0 95 -18v-66q-154 -78 -279 -203h-55q-37 0 -37 56z" />
<glyph unicode="&#xfe;" horiz-adv-x="700" d="M20 909q0 33 20.5 90.5t22.5 87.5h13q12 0 19 3.5t7 13.5h11q0 -18 49 -17q29 -72 31 -223q121 6 237 6q164 0 293 -57q22 -62 22 -119q0 -45 -16 -86q-20 -53 -57 -57q-53 -53 -109 -107q-63 -59 -133 -65q-35 -35 -139 -96q-92 -53 -127 -103q25 -25 24 -61 q0 -14 -3 -41t-3 -39q-33 -70 -86 -70q-16 0 -33 6q-2 25 -21 71t-19 73q27 72 26 172q0 59 -13 179t-13 177q23 35 18 96q-6 76 2 101q-23 31 -23 65zM147 522q0 -78 43 -116q84 6 244 102q174 102 170 172v4q-82 66 -172 66q-41 0 -108 -11q-86 -12 -111 -14 q-66 -82 -66 -203z" />
<glyph unicode="&#xff;" horiz-adv-x="899" d="M0 733q0 57 41 297q16 27 33.5 55.5t54.5 28.5q41 0 70 -65q-39 -98 -39 -291v-6q33 -66 98 -101q74 25 150 119q90 113 129 141q82 53 161 109q74 55 138 149q18 4 38 5q84 0 84 -76q0 -14 -4 -29q-63 -43 -165.5 -150.5t-133.5 -127.5q-2 -2 -118 -60q0 -33 -41 -55 q-49 -27 -58 -43q-20 -35 -20 -150q0 -82 29.5 -243.5t29.5 -243.5q-20 -39 -90 -39h-8q-82 188 -82 479q-20 27 -18 101q-2 0 -107 12q-66 8 -94.5 47t-77.5 137zM246 1395q0 63 15.5 80.5t78.5 17.5q25 -39 25 -82q0 -18 -3 -57.5t-3 -59.5l-37 -28h-35q-41 35 -41 129z M541 1432q0 37 10 71q33 25 64 27q8 -14 41 -14q24 -38 24 -58q0 -12 -10 -26q8 -20 8 -37q0 -49 -59 -82h-33q-45 39 -45 119z" />
<glyph unicode="&#x152;" horiz-adv-x="903" d="M-33 326q4 90 37 264q27 76 92.5 182.5t120.5 161.5v41q49 94 184 127q78 18 236 18q29 0 123 -39q88 -35 117.5 -57.5t50.5 -67.5q39 -77 39 -79q0 -156 -43 -326q-47 -186 -129 -299q-33 -45 -133.5 -100.5t-135.5 -108.5q-180 -59 -258 -59q-96 0 -166 77 q-57 76 -116 152q6 39 6 53q0 35 -25 60zM117 365q0 -98 22 -138q25 -49 107 -88h51q49 0 106 27q49 25 99 51q29 57 94 57q223 197 256 512q-55 109 -162 162q-25 0 -79 3t-81 3q-66 0 -133 -26q-86 -33 -86 -88q0 -18 -39 -49q-27 -20 -55 -41q-8 -39 -61 -185 q-39 -102 -39 -200zM829 49q0 57 6 156q6 117 6 155q8 262 9 666l45 45q70 0 174 23q160 37 170 36q41 -27 90 -26q41 0 119 24.5t118 24.5q16 0 33 -4q35 -33 35 -68q0 -37 -35 -69q-98 0 -289.5 -30t-287.5 -30q-55 -35 -58 -123q-2 -72 -4 -143q10 -16 11 -33 q0 -14 -8.5 -39.5t-8.5 -40.5q0 -25 27 -38q55 0 162.5 21.5t164.5 21.5q70 0 136 -25q6 -20 6 -37q0 -47 -72 -82q-29 2 -87 14.5t-89 12.5q-20 0 -39 -4q-27 -25 -90 -39q-72 -14 -92 -25q-43 -25 -43 -84q0 -20 6 -60t6 -59q37 -53 86 -53q20 0 57 19.5t101 36.5 q90 20 104 26q20 -20 45 -20t73 20.5t77 20.5q12 0 26 -4l45 -46v-49q-76 -55 -161 -55q-39 0 -84 10q-2 -2 -41 -22q-25 -12 -35 -37q-49 0 -147.5 -21.5t-147.5 -21.5q-31 0 -59 6v8q0 8 -30 10t-30 31z" />
<glyph unicode="&#x153;" horiz-adv-x="1091" d="M-39 317q0 49 19.5 148.5t19.5 148.5q59 61 59 160q82 72 240 219q96 41 195 84q115 49 202 74q233 -51 334 -127q139 -106 139 -317q0 -197 -57 -330q-51 -27 -100 -88q-39 -55 -78 -111l-8 4l-43 -28l-9 4q-63 -74 -194 -123q-113 -37 -223 -76q-37 0 -111 12.5 t-113 12.5q-29 0 -55 -4q-119 78 -155 133q-18 31 -23.5 91t-38.5 113zM94 406q0 -31 12.5 -91.5t12.5 -91.5q8 -6 45 -26q25 -14 35 -35q82 -27 168 -27q176 0 407 109q96 88 191 176q71 84 71 254q0 23 -2 67.5t-2 65.5q-88 141 -299 141q-160 0 -297 -78 q-182 0 -317 -333q6 -31 6 -41q0 -31 -25 -43q-6 -23 -6 -47zM1034 18q8 59 4 152q-4 160 -4 152q0 51 18.5 148t18.5 138q0 27 -16 45q8 57 2 219q-6 137 16 218q201 41 596 79q55 -27 55 -82q0 -45 -34 -96q-31 0 -97 2h-94q-172 0 -287 -43q-37 -49 -41 -147 q-6 -147 -8 -160q12 4 14.5 -4t2.5 -23q-2 -18 -2 -16q0 -18 43 -18q80 0 234.5 41t234.5 41q31 -14 30 -48q0 -33 -30 -63q-70 -25 -250 -51q-162 -25 -246 -68q-61 -80 -61 -176q0 -84 61 -121q90 8 285 86q182 72 290 72q25 -10 25 -41q0 12 -6 -57q-25 0 -19 -39 q-143 -25 -331 -95q-162 -63 -324 -124q-53 27 -80 79z" />
<glyph unicode="&#x178;" d="M45 614q29 193 29 357q0 66 26.5 92.5t94.5 26.5h18q0 -59 -12.5 -182.5t-12.5 -184.5q0 -59 33 -92q14 -4 29 -4q49 0 86 45q8 8 57 86q14 -4 15 -4q12 0 28.5 23.5t28.5 23.5q6 0 14 -2q14 12 160 202q119 156 168 156q16 0 33 -29q10 -23 20 -43q-37 -133 -184 -278 q-197 -190 -234 -246q-18 -82 -18 -182q0 -59 9 -181t9 -182q-18 2 -20 -30.5t-27 -32.5h-43q-20 12 -37 49q-18 47 -28 59q14 94 14 195q0 96 -14 188q-92 61 -189 62q0 25 -17.5 53.5t-35.5 54.5zM256 1395q0 63 15.5 80.5t78.5 17.5q25 -39 25 -82q0 -18 -3 -57.5 t-3 -59.5l-37 -28h-35q-41 35 -41 129zM551 1432q0 37 10 71q33 25 64 27q8 -14 41 -14q24 -38 24 -58q0 -12 -10 -26q8 -20 8 -37q0 -49 -59 -82h-33q-45 39 -45 119z" />
<glyph unicode="&#x2c6;" horiz-adv-x="860" d="M143 1266q12 137 187 233q78 -14 148.5 -67t90.5 -127q-27 -33 -49 -33q-25 0 -178 98q-98 -150 -166 -149q-6 0 -18 20q-6 12 -15 25z" />
<glyph unicode="&#x2dc;" horiz-adv-x="1165" d="M123 1321v8q0 45 52 68.5t110 50.5q72 33 116 33q47 0 103 -76q41 8 121 41q18 12 30 12q51 0 66 -6q22 -12 22 -57v-21q-10 -12 -32 -35q-39 0 -114 -29.5t-114 -29.5q-63 0 -123 76q-16 -6 -78.5 -51t-72.5 -45q-29 0 -86 61z" />
<glyph unicode="&#x2000;" horiz-adv-x="779" />
<glyph unicode="&#x2001;" horiz-adv-x="1559" />
<glyph unicode="&#x2002;" horiz-adv-x="779" />
<glyph unicode="&#x2003;" horiz-adv-x="1559" />
<glyph unicode="&#x2004;" horiz-adv-x="519" />
<glyph unicode="&#x2005;" horiz-adv-x="389" />
<glyph unicode="&#x2006;" horiz-adv-x="259" />
<glyph unicode="&#x2007;" horiz-adv-x="259" />
<glyph unicode="&#x2008;" horiz-adv-x="194" />
<glyph unicode="&#x2009;" horiz-adv-x="311" />
<glyph unicode="&#x200a;" horiz-adv-x="86" />
<glyph unicode="&#x2010;" horiz-adv-x="440" d="M51 479q70 139 297 139q41 -20 41 -104v-14q-96 -96 -221 -97q-88 0 -117 76z" />
<glyph unicode="&#x2011;" horiz-adv-x="440" d="M51 479q70 139 297 139q41 -20 41 -104v-14q-96 -96 -221 -97q-88 0 -117 76z" />
<glyph unicode="&#x2012;" horiz-adv-x="440" d="M51 479q70 139 297 139q41 -20 41 -104v-14q-96 -96 -221 -97q-88 0 -117 76z" />
<glyph unicode="&#x2013;" horiz-adv-x="585" d="M51 518v10q25 0 33 27q4 14 4 47h305q59 0 60 -37l36 37q46 -23 46 -74q0 -12 -4.5 -36.5t-4.5 -34.5h-438q-37 0 -37 61z" />
<glyph unicode="&#x2014;" horiz-adv-x="1452" d="M51 541v12q0 25 6 39q8 23 31 20q115 45 256 45q41 0 126 -4t128 -4q29 0 121 37t143 37q84 0 137 -74q20 6 154 21q96 10 139 53q20 6 39 6q72 0 70 -135v-19q-20 4 -45 5q-66 0 -191 -39t-190 -39q-98 0 -158 73q-328 -109 -692 -108z" />
<glyph unicode="&#x2018;" horiz-adv-x="268" d="M-31 1270q0 59 90 59h17q104 -209 104 -342q0 -98 -45 -186q-166 330 -166 469z" />
<glyph unicode="&#x2019;" horiz-adv-x="223" d="M51 991q0 63 31 146q29 70 57 139q104 0 107 -51q8 -19 8 -35q0 -27 -25.5 -65t-25.5 -60q0 -8 5 -21.5t5 -21.5q0 -18 -27.5 -53t-27.5 -66q0 -57 -25 -57q-37 0 -61 57q-20 45 -21 88z" />
<glyph unicode="&#x201a;" horiz-adv-x="307" d="M51 -39q0 6 29 66q25 45 57 174l39 41h39q43 -29 43 -76q0 -12 -2 -33v-31q-12 -12 -26.5 -51t-32.5 -49v-39q-43 -84 -97 -84l-24 4q0 14 -12.5 39t-12.5 39z" />
<glyph unicode="&#x201c;" horiz-adv-x="622" d="M51 1219q0 51 88 47q37 -39 88 -207q43 -148 121 -187q-74 -12 -98 -63h-6q-84 0 -84 45q0 82 -54.5 217t-54.5 148zM324 1143q0 29 14 47v16q-2 33 15.5 52.5t52.5 17.5q37 -55 45 -133q8 -94 16 -117q22 -66 104 -119q-45 2 -48 -40t-27 -40l-9 -6q-55 29 -110 144 q-53 109 -53 178z" />
<glyph unicode="&#x201d;" horiz-adv-x="538" d="M51 1010q0 51 54.5 155.5t54.5 163.5q27 8 47 8q39 0 49 -35.5t18 -68.5q-55 -57 -66 -86t-11 -109q-35 0 -55.5 -55t-55.5 -55q-35 35 -35 82zM231 891q27 70 56 139q29 80 28 144q41 85 172 81q0 -90 -63 -192q-59 -86 -119 -172h-74z" />
<glyph unicode="&#x201e;" horiz-adv-x="565" d="M51 37q0 51 54.5 155.5t54.5 163.5q27 8 47 9q39 0 49 -36t18 -69q-31 -33 -77 -186q-39 -121 -111 -119q-35 35 -35 82zM252 -31q27 70 55 140q29 80 29 143q41 86 172 82q0 -80 -62 -195q-51 -94 -120 -170q-10 -10 -29 -10q-16 0 -45 10z" />
<glyph unicode="&#x2022;" horiz-adv-x="466" d="M51 506v61q0 164 191 164h63q78 -76 96 -129q17 -43 17 -158q0 -33 -76 -65q-66 -27 -106 -27q-33 0 -109 61.5t-76 92.5z" />
<glyph unicode="&#x2026;" horiz-adv-x="800" d="M25 16q0 113 28 142q14 6 27 6q33 0 51 -41q12 -35 25 -68v-51q-27 -55 -72 -55q-29 0 -57 28q4 6 0 19q-2 16 -2 20zM317 63q0 49 19 95q27 10 49 10q41 0 66.5 -29.5t25.5 -72.5q0 -51 -37 -89q-20 -8 -49 -8q-27 0 -55 8q-18 39 -19 86zM588 82q0 25 6 51q27 25 78 25 q88 0 88 -72q0 -37 -35 -109q-20 -6 -39 -6q-98 0 -98 111z" />
<glyph unicode="&#x202f;" horiz-adv-x="311" />
<glyph unicode="&#x2039;" horiz-adv-x="534" d="M98 434q0 84 125 178q115 84 207 99q23 -22 23 -49q0 -25 -201 -244q100 -96 121 -119q74 -84 67 -145v-15q-2 2 -8 2q-18 0 -47 -14q-92 31 -184 121q-102 100 -103 186z" />
<glyph unicode="&#x203a;" horiz-adv-x="534" d="M98 178q0 23 201 242q-100 96 -121 121q-72 84 -67 145l2 12h6q20 0 49 13q92 -29 184 -119q101 -100 101 -186t-125 -179q-113 -84 -207 -100q-23 25 -23 51z" />
<glyph unicode="&#x205f;" horiz-adv-x="389" />
<glyph unicode="&#x20ac;" horiz-adv-x="970" d="M0 623q53 4 45 77l158 19q59 94 174 289q109 57 164 108q84 14 151 14q137 0 232 -63q8 -16 8 -33q0 -47 -60 -59q-47 12 -94 12q-127 0 -245.5 -70.5t-174.5 -181.5q143 16 160 17q51 0 53 -29l50 43q72 -16 71 -78q0 -10 -3 -30.5t-3 -32.5l-385 -43q-25 -94 -27 -156 l267 27q25 2 34 -13.5t9 -44.5v-10q-57 -6 -150 -45q-102 -43 -147 -53q20 -59 88 -99q14 -10 125 -57q96 18 194 35q102 27 174 92q51 47 74 47q70 0 86 -74q-31 -106 -143 -157q-82 -39 -232 -58q-113 -10 -225 -22q-86 43 -121 65q-66 41 -102 91q-14 72 -70 118 q-35 2 -33 31l-45 -41q-53 16 -53 68q0 12 5 36.5t5 36.5l99 11q0 88 10 153q-55 -8 -80 -8q-39 0 -43 68z" />
<glyph unicode="&#x2122;" horiz-adv-x="1570" d="M51 387v109q18 0 55 5t56 5q16 10 41 16l49 51q170 41 235 121l-30 29q-14 0 -50 4t-57 4q-57 0 -104 -72q-53 23 -86 23q0 113 82 203q80 78 159 157q-2 55 -41 56q-14 0 -86 -39q-37 -2 -38 -64q-29 -10 -52 -10q-45 0 -80 31q0 76 58 108q74 41 88 70q29 0 86 9t86 9 q80 0 141 -61v-74q-33 -49 -96 -123q-78 -90 -100 -118q72 12 151 12q39 0 72 -74q24 -61 24 -108q0 -10 -8 -23l-28 29l6 2q8 -16 20 -31l-31 -37l-8 -2l4 -6q-20 -25 -40.5 -47.5t-51.5 -34.5q-16 -6 -59 -35q-33 -20 -66 -24q-78 -72 -266 -70h-35zM455 -84q0 100 92 248 q2 143 86 307q41 84 170 274q2 80 69 125v43q41 66 80 134q47 76 90 122l68 -22q29 -31 29 -43q0 -6 -51.5 -62.5t-51.5 -119.5q0 -25 6 -50q-45 -61 -141 -176q-2 -61 -41 -129q-37 -57 -76 -112v-49l-69 -76q-2 -170 -117 -334v-72q-43 -49 -86 -49q-39 0 -57 41zM823 248 q31 10 65 52t58 54q2 6 31 58q27 45 24 49q199 207 306 352q23 8 39 8q72 0 71 -143q0 -27 -5 -82t-5 -82q0 -47 14 -86q45 25 76 25q64 0 64 -72q0 -47 -54 -72l-94 -28q-29 -109 -29 -215q0 -16 12.5 -47t12.5 -48q0 -8 -4 -28q-47 -33 -80 -33q-45 0 -82 55q8 88 47 260 l-6 21q-18 -4 -84 -31q-51 -18 -90 -16q-18 -16 -66.5 -34t-68.5 -36l-94 -2q-29 -2 -45 47q-12 37 -13 74zM1057 305q119 37 194 41q39 35 39 139v29q0 35 -12 51h-16q-43 -45 -205 -260z" />
<glyph unicode="&#x25fc;" horiz-adv-x="1126" d="M0 0v1126h1126v-1126h-1126z" />
</font>
</defs>
</svg>
