<?xml version="1.0" standalone="no"?>
<!DOCTYPE svg PUBLIC "-//W3C//DTD SVG 1.1//EN" "http://www.w3.org/Graphics/SVG/1.1/DTD/svg11.dtd" >
<svg xmlns="http://www.w3.org/2000/svg">
<metadata></metadata>
<defs>
<font id="slingbold" horiz-adv-x="1349" >
<font-face units-per-em="2048" ascent="1638" descent="-410" />
<missing-glyph horiz-adv-x="672" />
<glyph horiz-adv-x="2048" />
<glyph horiz-adv-x="2048" />
<glyph unicode="&#xd;" horiz-adv-x="672" />
<glyph unicode=" "  horiz-adv-x="672" />
<glyph unicode="&#x09;" horiz-adv-x="672" />
<glyph unicode="&#xa0;" horiz-adv-x="672" />
<glyph unicode="!" horiz-adv-x="922" d="M146 1271v89l314 -6l317 6v-88l-127 -26l-97 -807h-183l-95 809zM270 145q0 71 55.5 122.5t132.5 51.5t133.5 -51.5t56.5 -122.5t-55 -126q-56 -51 -133 -50q-78 0 -134 51t-56 125z" />
<glyph unicode="&#x22;" horiz-adv-x="958" d="M188 1285q0 42 36.5 70.5t82.5 28.5q47 0 82.5 -30.5t35.5 -68.5l-5 -129l-35 -441q-9 -56 -78 -56q-68 0 -79 56zM509 1285q0 42 36.5 70.5t81.5 28.5q47 0 83 -30.5t36 -68.5l-5 -129l-35 -441q-9 -56 -79 -56q-68 0 -78 56z" />
<glyph unicode="#" d="M204 390v161h179l35 254h-158v159h181l54 390h167l-54 -390h215l54 390h165l-52 -390h155v-159h-179l-34 -254h157v-161h-181l-52 -390h-168l55 390h-215l-54 -390h-167l54 390h-157zM551 551h214l35 254h-214z" />
<glyph unicode="$" d="M63 134l103 302l94 -14l1 -119q71 -40 183 -81.5t229 -41.5q108 0 179.5 46t71.5 123q0 103 -90 150.5t-241 87.5q-274 71 -386.5 150.5t-112.5 221.5q0 167 162 270q73 45 163 73t195 28v197l153 29v-226q56 0 97 -4.5t100 -16.5q64 -9 128.5 -23t122.5 -33l-45 -139 l-34 -138l-94 14l-12 103q-10 5 -49 19q-61 21 -87 30q-105 31 -235 31q-52 0 -85.5 -7t-62.5 -28q-54 -35 -54 -103q0 -87 132 -134l237 -75q315 -89 387 -179q75 -85 75 -244q0 -176 -181 -284q-132 -73 -340 -100v-251l-153 -31v277q-146 0 -283.5 34t-267.5 86z" />
<glyph unicode="%" horiz-adv-x="1953" d="M24 992q0 173 123.5 283.5t309.5 110.5t308 -111.5t122 -289.5q0 -167 -121 -276t-308 -109q-200 0 -317 103.5t-117 288.5zM268 1000q0 -112 52.5 -182t141.5 -70q91 0 136 60t45 168q0 113 -53 189t-130 76q-87 0 -139.5 -67t-52.5 -174zM307 -59l1079 1455h254 l-1065 -1441zM1067 361q0 171 123.5 282.5t306.5 111.5t308.5 -112.5t125.5 -286.5q0 -173 -123 -281t-309 -108q-199 0 -315.5 103.5t-116.5 290.5zM1309 370q0 -113 52.5 -184t140.5 -71q89 0 138 59q45 61 45 171t-53 187.5t-131 77.5q-87 0 -139.5 -67t-52.5 -173z" />
<glyph unicode="&#x26;" horiz-adv-x="1776" d="M77 396q0 160 96 263q82 87 256 148l-14 42q-30 84 -30 129q0 180 148.5 294t364.5 114q136 0 238 -64t102 -179q0 -176 -150 -259q-99 -54 -288 -105q112 -129 209 -206q77 -70 176 -141l19 30q33 56 50.5 117t17.5 136h-92l-14 90l345 164l7 -92l-2 -37q0 -56 -19 -143 q-12 -78 -37.5 -145t-68.5 -135l-52 -77q119 -64 296 -129l111 19l48 -96l-351 -164q-58 24 -71 32q-28 12 -124 61l-122 71q-89 -66 -195 -110q-141 -58 -300 -57q-263 0 -408.5 130.5t-145.5 298.5zM418 471q0 -136 93.5 -219t218.5 -83q40 0 82 7t84 23q17 5 38 14.5 t35 18.5q-150 103 -263 214q-129 127 -192 209q-33 -24 -54 -50q-42 -56 -42 -134zM654 1053q0 -63 52 -152q94 31 145 63q94 56 94 134q0 33 -8 52.5t-29 34.5q-33 28 -98 28q-64 0 -108 -42q-49 -40 -48 -118z" />
<glyph unicode="'" horiz-adv-x="674" d="M221 1285q0 42 37 70.5t82 28.5q47 0 82.5 -30.5t35.5 -68.5l-5 -129l-35 -441q-9 -56 -78 -56q-68 0 -79 56z" />
<glyph unicode="(" horiz-adv-x="780" d="M155 441q0 321 148 572.5t284 347.5l105 -80q-70 -80 -151 -315.5t-81 -524.5q0 -288 80 -523t152 -317l-105 -80q-132 94 -282 346t-150 574z" />
<glyph unicode=")" horiz-adv-x="780" d="M89 -399q37 42 72.5 118.5t75.5 198.5q84 242 84 523q0 284 -84 523q-38 115 -76.5 196t-71.5 121l104 80q134 -94 283.5 -345t149.5 -575q0 -319 -148.5 -571t-284.5 -349z" />
<glyph unicode="*" horiz-adv-x="995" d="M150 1027q0 70 16.5 119.5t54.5 97.5q24 -21 44 -34q10 -7 42 -27q44 -21 77.5 -41t70.5 -42l-37 165q-2 17 -10.5 45.5t-18.5 55.5q63 19 115 20q58 0 115 -20l-30 -101q-3 -30 -35 -165q45 28 87 51.5t60 31.5q40 19 87 61q30 -47 54 -102q17 -51 17 -115h-54t-54 -6 l-165 -17l123 -112q26 -24 46 -38q12 -9 38 -26q-37 -49 -82 -84q-38 -28 -103 -52q-17 64 -35 99l-69 155l-68 -155q-9 -19 -15 -36.5t-20 -62.5q-61 21 -106 52q-14 12 -28 25q-26 24 -53 59q23 14 48.5 35t35.5 29l126 112l-170 17z" />
<glyph unicode="+" horiz-adv-x="1150" d="M91 389v188h392v387h188v-387h390v-188h-390v-392h-188v392h-392z" />
<glyph unicode="," horiz-adv-x="672" d="M127 -333q37 110 53.5 178t16.5 136q12 124 12 280l171 20l164 26q0 -190 -70 -387t-213 -338z" />
<glyph unicode="-" horiz-adv-x="888" d="M96 453q30 47 52 96q9 16 19.5 40.5t20.5 55.5l605 2q-28 -45 -50 -96q-16 -31 -24 -48.5t-17 -47.5z" />
<glyph unicode="." horiz-adv-x="672" d="M150 148q0 70 55.5 124t130.5 54q73 0 129 -53t56 -125q0 -73 -56 -127q-51 -52 -129 -52q-75 0 -132 52q-54 54 -54 127z" />
<glyph unicode="/" horiz-adv-x="1171" d="M33 -70l830 1485l298 44l-832 -1483z" />
<glyph unicode="0" d="M75 676q0 319 161 514.5t439 195.5q277 0 440 -194t163 -516q0 -321 -162.5 -514t-440.5 -193q-275 0 -437.5 193.5t-162.5 513.5zM439 676q0 -241 62 -390.5t181 -149.5q115 0 173 150.5t58 389.5q0 125 -15.5 221t-50.5 173q-61 150 -178 150q-115 0 -172.5 -148 t-57.5 -396z" />
<glyph unicode="1" d="M324 1168v111q94 12 185 40q40 10 86 28t87 39h191l-14 -295v-695l6 -201q0 -28 1.5 -54t6.5 -35l138 -24v-87l-335 5l-320 -5v87l129 24l10 290v442l-17 330h-154z" />
<glyph unicode="2" d="M16 99q120 92 176 138q30 24 95 79t117 106q38 37 112 113q66 66 156 200.5t90 275.5q0 92 -58.5 149.5t-152.5 57.5q-73 0 -142 -34t-88 -53l-9 -120l-94 -12q-10 99 -45 202q-12 44 -23 73q-3 10 -9 26q17 9 59 22t112 32q129 31 305 32q228 0 378 -111.5t150 -291.5 q0 -91 -29.5 -165.5t-94 -145.5t-115 -119.5t-96 -83.5t-84.5 -64.5t-83 -59.5l-169 -113l579 24l71 127l100 -27l-53 -183q-30 -103 -40 -178l-542 5l-535 -5z" />
<glyph unicode="3" d="M24 204l300 202l66 -66l-48 -92q24 -42 81.5 -77t155.5 -35q115 0 197.5 93t82.5 217q0 105 -70.5 166t-187.5 61l-96 -5q-31 0 -46.5 -3t-43.5 -13l-28 139q145 26 244 92.5t99 188.5q0 63 -41 104.5t-112 41.5q-63 0 -124 -26q-19 -9 -41.5 -18.5t-36.5 -23.5v-95 l-101 -20q-21 106 -60 185l-31 84q14 10 141 49q115 31 295 31q218 0 346 -84.5t128 -238.5q0 -91 -67 -153.5t-219 -102.5l49 2q169 0 266 -98q108 -112 109 -249q0 -206 -191 -348.5t-472 -142.5q-220 0 -345 75t-199 160z" />
<glyph unicode="4" d="M49 493q152 221 331 497q9 14 105 166q70 112 104 167q49 80 103 171h188l19 -32q-73 -94 -162 -218q-82 -115 -157 -224q-136 -209 -291 -464h417v509l246 127l94 -63l-11 -256v-317h23q31 0 45 1.5t46 12.5l50 16l51 -51l-98 -157h-117v18l13 -290l116 -24v-87l-294 5 l-373 -5v87l195 24l5 89q9 92 9 201v-18h-589z" />
<glyph unicode="5" d="M71 274l276 169l61 -77l-56 -73q26 -52 89 -104.5t160 -52.5q136 0 208 71q75 68 75 201q0 125 -70.5 196.5t-198.5 71.5q-84 0 -143 -26q-66 -24 -130 -78l-168 90l72 330l59 333l54 36l363 -7h41h34h27h25h21q35 0 64.5 2t55.5 7q33 3 76 9.5t83 14.5l41 -45l-83 -96 q-42 -49 -77 -104l-570 -9l-77 -342q35 19 78 36t90 31q84 23 179 22q239 0 378.5 -116t139.5 -323q0 -225 -171.5 -348.5t-461.5 -123.5q-227 0 -349.5 84.5t-194.5 220.5z" />
<glyph unicode="6" d="M101 530q0 340 257 613.5t670 400.5l61 -125q-326 -139 -517 -406q-94 -136 -129 -286q33 33 61 55t55 37q112 56 250 56q216 0 341.5 -122t125.5 -326q0 -211 -161.5 -334.5t-419.5 -123.5q-256 0 -425 144.5t-169 416.5zM439 425q0 -136 79.5 -212.5t183.5 -76.5 q99 0 160.5 72.5t61.5 188.5q0 120 -71.5 203t-176.5 83q-84 0 -160.5 -63.5t-76.5 -194.5z" />
<glyph unicode="7" d="M173 1037q7 17 31 101q9 30 19 61q5 24 16.5 73t16.5 88l466 -6q63 0 214.5 2t240.5 2l36 -66q-171 -261 -301 -602q-68 -180 -105 -355.5t-37 -358.5q-125 -19 -201 -46.5t-145 -65.5l-95 30q103 467 266 766t308 469q-51 5 -102.5 9t-105.5 4l-90 -4q-70 0 -137 -6 t-137 -18l-61 -112z" />
<glyph unicode="8" d="M101 350q0 127 81 225.5t236 119.5q-129 56 -193 145q-58 87 -58 171q0 167 152 271t378 104q214 0 345 -85.5t131 -235.5q0 -105 -69.5 -187.5t-223.5 -105.5q193 -47 279.5 -147t86.5 -229q0 -197 -161 -312t-419 -115q-246 0 -405.5 103.5t-159.5 277.5zM394 371 q0 -103 74 -169t187 -66q96 0 162.5 55t66.5 131q0 122 -119 187q-58 31 -127 66q-33 16 -66 33q-66 -26 -126 -89q-52 -61 -52 -148zM518 1067q0 -73 75 -125.5t150 -87.5q23 10 58.5 37.5t40.5 30.5q52 45 52 127q0 68 -61 118.5t-146 50.5q-73 0 -121 -44.5t-48 -106.5z " />
<glyph unicode="9" d="M75 896q0 232 156 361t431 129q254 0 420 -149t166 -425q0 -317 -252 -594t-677 -410l-58 124q324 146 516 408q92 129 135 293q-61 -61 -122 -96q-105 -58 -251 -58q-192 0 -328 121.5t-136 295.5zM425 952q0 -119 69 -200t179 -81q85 0 162 65q37 35 57 80.5t20 103.5 q0 138 -77 218t-181 80q-103 0 -169 -73q-59 -73 -60 -193z" />
<glyph unicode=":" horiz-adv-x="672" d="M150 148q0 70 55.5 124t130.5 54q73 0 129 -53t56 -125q0 -73 -56 -127q-51 -52 -129 -52q-75 0 -132 52q-54 54 -54 127zM150 722q0 70 55.5 123.5t130.5 53.5q73 0 129 -53t56 -124q0 -73 -56 -128q-51 -52 -129 -52q-75 0 -132 52q-54 54 -54 128z" />
<glyph unicode=";" horiz-adv-x="672" d="M127 -333q37 110 53.5 178t16.5 136q12 124 12 280l171 20l164 26q0 -190 -70 -387t-213 -338zM150 722q0 70 55.5 123.5t130.5 53.5q73 0 129 -53t56 -124q0 -73 -56 -128q-51 -52 -129 -52q-75 0 -132 52q-54 54 -54 128z" />
<glyph unicode="&#x3c;" horiz-adv-x="1150" d="M91 401v157l969 425v-192l-717 -312l717 -312v-191z" />
<glyph unicode="=" horiz-adv-x="1150" d="M91 185v186h965v-186h-965zM91 587v187h965v-187h-965z" />
<glyph unicode="&#x3e;" horiz-adv-x="1150" d="M91 -24v191l716 312l-716 312v192l969 -425v-157z" />
<glyph unicode="?" horiz-adv-x="1030" d="M44 1307q38 17 162 48t265 31q248 0 375 -94.5t127 -224.5q0 -173 -125.5 -268t-319.5 -135l-31 -172l-169 -46l-77 309l30 26q21 16 43 28q84 10 138 30t94 60q73 68 73 150q0 64 -43.5 116.5t-102.5 52.5q-84 0 -154.5 -30.5t-87.5 -49.5l5 -103l-100 -24 q-35 139 -69 216zM195 145q0 71 55.5 122.5t132.5 51.5t133.5 -51.5t56.5 -122.5t-55 -126q-56 -51 -133 -50q-78 0 -134 51t-56 125z" />
<glyph unicode="@" horiz-adv-x="1150" d="M45 512q0 207 160.5 368t394.5 161q223 0 364 -126.5t141 -297.5q0 -162 -93 -279t-196 -117q-40 0 -80.5 23.5t-57.5 86.5q-17 -31 -71 -71q-45 -35 -107 -35q-54 0 -99 47q-42 47 -42 141q0 124 90.5 250.5t221.5 126.5q24 0 52 -23q24 -16 39 -66l14 61h120l-101 -387 l-2 -25q0 -24 12 -32.5t24.5 -12t22.5 -5.5q42 0 92.5 96.5t50.5 225.5q0 125 -113 220.5t-282 95.5q-157 0 -272 -126.5t-115 -306.5q0 -185 120 -306.5t265 -121.5q106 0 195 26q44 12 73.5 25t52.5 31l13 -82q-16 -16 -46 -33.5t-76 -34.5q-91 -35 -198 -35 q-246 0 -406.5 161t-160.5 377zM493 422q0 -47 23 -72q24 -21 50 -21q64 0 111.5 89t47.5 152q0 21 -3.5 42.5t-8.5 42.5q-12 33 -33 33q-73 0 -133 -88q-28 -45 -41 -87t-13 -91z" />
<glyph unicode="A" horiz-adv-x="1526" d="M-14 -5v87l110 24q134 300 247 602q40 106 74 200q24 68 69 201q33 101 68 202q56 10 78 15.5t65 19.5l147 40l125 -32q52 -173 98.5 -314t109.5 -311q110 -296 249 -623l115 -24v-87l-317 5l-318 -5v89l121 22l-121 396h-441l-115 -396l115 -22v-89l-238 5zM518 659h331 l-167 512z" />
<glyph unicode="B" horiz-adv-x="1526" d="M56 -5v87l120 24q14 28 14 129l5 199v485l-5 191q0 99 -14 136l-120 25v89l315 -6l535 11q211 0 316.5 -71.5t105.5 -226.5q0 -99 -69 -184.5t-262 -108.5q242 0 356.5 -84.5t114.5 -229.5q0 -230 -164 -351t-455 -121l-478 12zM547 823l128 -6q136 0 208 51t72 155 q0 82 -59 123t-171 41l-178 -12v-352zM549 190l141 -23q61 -10 133 -10q108 0 190 77.5t82 185.5q0 122 -87.5 180.5t-252.5 58.5l-206 -11v-458z" />
<glyph unicode="C" horiz-adv-x="1491" d="M78 666q0 309 239 514.5t603 205.5q84 0 149.5 -5.5t129.5 -19.5q115 -23 215 -57q-30 -73 -56 -166q-17 -75 -18 -162h-96l-20 115q-63 37 -152 65q-47 14 -85.5 20.5t-88.5 6.5q-202 0 -323.5 -125.5t-121.5 -332.5q0 -234 140.5 -375t365.5 -141q119 0 216 45.5 t197 120.5l103 -127q-141 -136 -314 -210q-84 -33 -180 -52t-195 -19q-303 0 -505.5 197t-202.5 502z" />
<glyph unicode="D" horiz-adv-x="1704" d="M75 -5v87l120 24q14 28 14 129l5 199v486l-5 197q0 103 -14 131l-120 23v89l315 -6l548 11q331 0 508 -161.5t177 -471.5q0 -314 -218 -529t-506 -215l-509 12zM572 204l115 -26q63 -7 83.5 -8t45.5 -1q101 0 178.5 36t137.5 110.5t89.5 171.5t29.5 224q0 209 -115 341.5 t-305 132.5q-31 0 -63 -1.5t-66 -6.5q-35 0 -58.5 -5.5t-71.5 -22.5v-945z" />
<glyph unicode="E" d="M56 -5v87l120 24q5 17 9.5 63.5t4.5 65.5l5 199v486l-5 197q0 56 -3.5 85t-10.5 46l-120 23v89l315 -6h814l26 -141q9 -37 18 -71.5t21 -66.5l-89 -36l-61 94q-16 10 -148.5 23.5t-304.5 13.5h-89l-9 -351l256 5q51 0 86 3.5t43 7.5l35 96h87l-5 -190l5 -190h-87l-35 96 l-122 7l-263 5v-100l9 -379h127q181 0 317 20t161 30l64 112l94 -35l-77 -307h-873z" />
<glyph unicode="F" horiz-adv-x="1242" d="M56 -5v87l120 24q5 17 9.5 63.5t4.5 65.5l5 199v486l-5 197q0 56 -3.5 85t-10.5 46l-120 23v89l315 -6h786q5 -31 11.5 -63.5t16.5 -77.5q5 -26 14 -62.5t25 -75.5l-91 -36l-59 94q-16 10 -112 20t-169 13.5t-174 3.5h-61l-9 -351v-35l9 -1q52 0 139 3.5t124 3.5l131 8 l33 94h89l-6 -188l6 -188h-89l-33 94l-122 9q-37 0 -140.5 3.5t-131.5 3.5h-9v-192q0 -30 3.5 -107.5t3.5 -91.5q0 -45 6 -78t11 -51l163 -24v-87l-365 5z" />
<glyph unicode="G" horiz-adv-x="1633" d="M58 676q0 298 252.5 504t616.5 206q87 0 151 -5.5t130 -20.5q120 -23 209 -63q-26 -91 -40 -162l-28 -159l-89 5l-21 117q-38 21 -75.5 34t-89.5 29q-90 22 -171 22h-7q-220 0 -342 -127t-122 -355q0 -244 125 -387t341 -143q58 0 83 1.5t65 12.5q30 5 53 13t44 20v47v38 v32v26v21q0 23 -0.5 49.5t-6.5 60.5l-5 106l-134 29v88l288 -6l291 6v-89l-84 -28l-9 -342l87 -71q-70 -49 -147 -87.5t-172 -73.5q-170 -57 -369 -57h-7q-356 0 -586.5 199.5t-230.5 509.5z" />
<glyph unicode="H" horiz-adv-x="1633" d="M56 -5v87l120 24q5 17 9.5 63.5t4.5 65.5l5 199v486l-5 197q0 56 -3.5 85t-10.5 46l-120 23v89l314 -6l317 6v-89l-121 -23q-5 -14 -9 -48t-4 -83l-6 -197v-101h539l2 101q0 30 -3.5 106.5t-3.5 90.5q0 52 -3.5 82t-9.5 49l-122 23v89l316 -6l315 6v-89l-120 -23 l-14 -131l-5 -197v-486l5 -199q0 -45 4.5 -80t9.5 -49l120 -24v-87l-315 5l-316 -5v87l122 24q3 10 8 42.5t5 86.5q0 49 2.5 105.5t4.5 93.5v211h-539l-2 -211l6 -199q0 -56 3 -84.5t10 -44.5l121 -24v-87l-317 5z" />
<glyph unicode="I" horiz-adv-x="780" d="M75 -5v87l120 24q5 17 9.5 63.5t4.5 65.5l5 199v486l-5 197q0 56 -3.5 85t-10.5 46l-120 23v89l315 -6l318 6v-89l-121 -23q-5 -14 -9.5 -48t-4.5 -83l-5 -197v-486l5 -199q0 -56 3.5 -84.5t10.5 -44.5l121 -24v-87l-318 5z" />
<glyph unicode="J" horiz-adv-x="711" d="M-110 -256q117 75 201.5 197t84.5 350v629l-5 197q0 56 -3.5 85t-10.5 46l-120 23v89l315 -6l317 6v-89l-120 -23q-5 -14 -10.5 -46t-5.5 -85l-3 -197v-697q0 -228 -166.5 -372t-400.5 -226z" />
<glyph unicode="K" horiz-adv-x="1526" d="M56 -5v87l120 24q5 17 9.5 63.5t4.5 65.5l5 199v486l-5 197q0 56 -3.5 85t-10.5 46l-120 23v89l314 -6l317 6v-89l-121 -23q-5 -14 -10 -46t-5 -85l-4 -197v-103l504 429l-71 25v89l263 -6l259 6v-89l-97 -21l-624 -438l336 -350q162 -167 377 -352l62 -26v-91l-210 -7 l-213 -17l-63 75l-523 589v-199q0 -35 2 -116t2 -83q0 -59 3.5 -86t11.5 -43l121 -24v-87l-317 5z" />
<glyph unicode="L" horiz-adv-x="1242" d="M54 -5v87l120 24q5 17 9.5 63.5t4.5 65.5l5 199v486l-5 197q0 47 -4 81t-10 50l-120 23v89l316 -6l357 6v-89l-155 -23l-16 -131l-7 -197v-361l9 -379h125q80 0 158.5 5t139.5 14q119 21 143 31l65 113l94 -38l-49 -153q-9 -38 -16 -69t-14 -83h-834z" />
<glyph unicode="M" horiz-adv-x="1953" d="M56 -5v87l117 24q5 14 11 65.5t6 128.5l7 401l5 270l-7 167q0 105 -9 110l-95 23v89l333 -6h221l329 -965l333 965h211l352 6v-89l-120 -23l-12 -131q0 -35 -3.5 -101t-3.5 -96v-486q0 -44 1.5 -93.5t6.5 -105.5q0 -59 3.5 -86t12.5 -43l143 -24v-87l-329 5l-305 -5v87 l123 24q2 5 7.5 40t5.5 89l7 199l-7 685l-398 -1124h-212l-391 1122l-5 -416q0 -108 2.5 -220.5t4.5 -180.5q0 -80 5 -130t12 -64l117 -24v-87l-240 5z" />
<glyph unicode="N" horiz-adv-x="1563" d="M64 -5v87l122 24q3 10 8 42.5t5 86.5q0 49 2.5 105.5t4.5 93.5v486q0 30 -3.5 106.5t-3.5 90.5q0 52 -3.5 82t-9.5 49l-122 23v89l295 -6h153q28 -44 121 -183q77 -117 202 -298q163 -237 322 -479v526l-5 197q0 103 -14 131l-122 23v89l242 -6l239 6v-89l-122 -23 q-3 -12 -8.5 -54t-5.5 -77l-5 -197v-941h-288l-665 976v-521q0 -35 1.5 -116t1.5 -83q0 -45 4.5 -79t11.5 -50l125 -24v-87l-244 5z" />
<glyph unicode="O" horiz-adv-x="1741" d="M78 676q0 329 218 519.5t579 190.5t573.5 -190.5t212.5 -519.5q0 -324 -221 -519q-214 -190 -577 -190q-357 0 -571 191t-214 518zM451 676q0 -223 117 -370t300 -147t301.5 147t118.5 370q0 227 -116.5 372.5t-303.5 145.5q-185 0 -301 -146.5t-116 -371.5z" />
<glyph unicode="P" horiz-adv-x="1420" d="M73 -5v87l120 24q5 17 9.5 63.5t4.5 65.5l6 199v486l-6 197q0 47 -4 81t-10 50l-120 23v89l316 -6l535 11q221 0 340.5 -96t119.5 -286q0 -110 -39.5 -197t-119.5 -153q-157 -131 -415 -131h-40h-29q-21 3 -30 3l-96 14l54 173l105 -9q110 0 176 68q63 71 63 194 q0 115 -72.5 177.5t-199.5 62.5l-91 -5q-19 -2 -41 -7t-43 -12v-469v-173v-85q0 -30 3.5 -107.5t3.5 -91.5q0 -45 6.5 -78t13.5 -51l169 -24v-87l-373 5z" />
<glyph unicode="Q" horiz-adv-x="1739" d="M78 676q0 329 218 519.5t579 190.5t573.5 -190t212.5 -520q0 -324 -221 -519q-106 -94 -245 -142t-313 -48q31 -12 157 -49q241 -59 491 -82l72 73l82 -59q-45 -66 -69.5 -108t-54.5 -99l-40 -84q-256 71 -463.5 146t-374.5 159q-317 157 -436 340q-167 173 -168 472z M451 676q0 -223 117 -370t300 -147t301.5 147t118.5 370q0 227 -116.5 372.5t-303.5 145.5q-185 0 -301 -146.5t-116 -371.5z" />
<glyph unicode="R" horiz-adv-x="1491" d="M54 -5v87l120 24q5 17 9.5 63.5t4.5 65.5l5 199v486l-5 197q0 47 -4 81t-10 50l-120 23v89l316 -6l508 11q234 0 354.5 -89t120.5 -269q0 -117 -87.5 -217t-263.5 -135l469 -547l65 -26l1 -87q-47 0 -118.5 -2.5t-72.5 -2.5l-185 -16l-44 -7q-85 120 -162 228 q-58 80 -110 150l-197 262h-101v-173l6 -199q0 -56 3 -84.5t10 -44.5l121 -24v-87l-317 5zM549 784l124 -10q146 0 225.5 55t79.5 171q0 103 -65.5 144t-201.5 41h-40t-45 -3q-24 0 -41 -2t-36 -9v-387z" />
<glyph unicode="S" horiz-adv-x="1314" d="M40 96l131 343l96 -22v-122q16 -10 75 -41q49 -24 83 -40q66 -28 124.5 -41.5t121.5 -13.5q106 0 174 58t68 149q0 80 -75 115q-40 17 -103.5 36.5t-148.5 38.5q-218 52 -356 153q-70 52 -104.5 114t-34.5 143q0 185 162 302.5t413 117.5q85 0 156.5 -5.5t146.5 -19.5 q146 -24 260 -59l-63 -164q-28 -78 -52 -162l-86 17v93q-10 16 -38 31.5t-87 36.5q-98 40 -230 40q-103 0 -161.5 -40t-58.5 -117q0 -73 100 -106l266 -75q253 -70 355 -178t102 -274q0 -195 -185.5 -316t-473.5 -121q-162 0 -310 35t-267 94z" />
<glyph unicode="T" horiz-adv-x="1352" d="M-24 1035l41 157q10 38 21 86t16 76h1245q5 -37 14.5 -80t19.5 -82l44 -157l-94 -33l-70 131q-16 9 -114.5 22t-233.5 13l-14 -195v-539q0 -37 4 -108.5t4 -90.5q0 -56 3.5 -84.5t10.5 -44.5l143 -24v-87l-341 5l-342 -5v87l145 24q3 9 5.5 36t9.5 93l5 199v539l-12 195 q-49 0 -107 -1t-128 -13q-96 -10 -113 -21l-68 -131z" />
<glyph unicode="U" horiz-adv-x="1563" d="M54 1271v89l316 -6l324 6v-89l-128 -23q-5 -14 -10 -46t-5 -85l-4 -197v-357q0 -207 66.5 -305.5t231.5 -98.5q155 0 236 85q42 45 62.5 103.5t20.5 142.5v179q0 96 -4 234.5t-4 154.5q0 77 -3 124t-8 66l-131 23v89l253 -6l242 6v-89l-118 -23q-5 -14 -10.5 -62 t-5.5 -128l-3 -389v-153q0 -261 -160.5 -405t-451.5 -144q-265 0 -416 122t-151 338v493l-5 197q0 47 -4 81t-10 50z" />
<glyph unicode="V" horiz-adv-x="1491" d="M-17 1271v89l319 -6l303 6v-89l-105 -23q26 -92 53 -183q35 -120 97 -312q54 -164 82 -246t87 -244q96 274 166 492l157 493l-96 23v89l237 -6l228 6v-89l-129 -23q-14 -30 -89 -211q-59 -141 -87 -211q-51 -127 -84 -211q-54 -143 -112 -308.5t-112 -327.5h-316 q-99 303 -223 638q-59 162 -119 307.5t-141 323.5z" />
<glyph unicode="W" horiz-adv-x="2025" d="M-17 1271v89l305 -6l292 6v-89l-95 -23q26 -145 41 -218q23 -106 52.5 -219.5t57.5 -216t65 -226.5q37 132 66 247q10 42 63 250l116 495l135 -6l132 6q28 -138 52.5 -249t60.5 -248q63 -248 149 -497l113 443q24 110 36 164q40 176 61 275l-95 23v89l231 -6l222 6v-89 l-122 -23q-108 -298 -208 -631l-177 -638h-290l-256 955l-129 -479l-110 -476h-289q-52 204 -83.5 322.5t-87.5 313.5q-89 328 -190 635z" />
<glyph unicode="X" horiz-adv-x="1491" d="M-16 -5v87l136 21q64 71 124 141q47 56 117 141l226 281l-434 582l-122 23v89l325 -6l310 6v-89l-77 -23l215 -350q42 54 66 85q35 45 62 85.5t41 62.5q5 9 69 117l-61 23v89l243 -6l231 6v-89l-144 -23l-405 -495l481 -647l122 -24v-87l-319 5l-317 -5v87l77 24 l-262 412q-30 -37 -55.5 -72t-92.5 -127l-130 -213l80 -24v-87l-253 5z" />
<glyph unicode="Y" horiz-adv-x="1420" d="M-19 1271v89l312 -6l300 6v-89l-89 -23l284 -546l286 546l-89 23v89l233 -6l222 6v-89l-117 -23l-439 -682v-132q0 -44 1.5 -93.5t6.5 -105.5q0 -52 3.5 -81.5t9.5 -47.5l143 -24v-87l-340 5l-340 -5v87l143 24q3 10 7.5 42.5t4.5 86.5l9 199v134l-433 680z" />
<glyph unicode="Z" d="M5 49q211 265 412 556q178 260 371 558l-230 10q-131 0 -225 -10q-37 -5 -68 -10.5t-40 -9.5l-75 -125l-89 38l71 298h1125l29 -50q-232 -303 -402 -556q-63 -92 -124 -185q-47 -70 -124 -185q-63 -92 -124 -185l126 -10q21 0 64.5 -1.5t64.5 -1.5q150 0 250 15.5 t105 17.5q33 7 60 14l66 123l98 -29l-46 -162l-35 -159h-1232z" />
<glyph unicode="[" horiz-adv-x="850" d="M254 -479v1840l295 -7l242 7v-90h9l-234 -37v-1586l234 -37h-9v-90l-242 7z" />
<glyph unicode="\" horiz-adv-x="1171" d="M37 1415l275 -22l819 -1457l-275 22z" />
<glyph unicode="]" horiz-adv-x="850" d="M58 -389l235 37v1586l-235 37v90l249 -7l298 7v-1840l-298 7l-249 -7v90z" />
<glyph unicode="^" horiz-adv-x="1150" d="M117 598l369 755h173l371 -755h-202l-255 552l-254 -552h-202z" />
<glyph unicode="_" horiz-adv-x="958" d="M0 -424h959v-92h-959v92z" />
<glyph unicode="`" horiz-adv-x="533" d="M0 1419l120 59q35 16 64.5 33.5t57.5 39.5q80 -54 143 -129q71 -73 120 -198l-118 -74q-98 112 -185 168q-35 23 -92.5 51.5t-109.5 49.5z" />
<glyph unicode="a" horiz-adv-x="1242" d="M42 267q0 181 191.5 292.5t528.5 111.5q0 148 -35 197t-150 49q-94 0 -154 -16.5t-70 -20t-46 -21.5l-7 -104l-87 -23l-114 261q21 7 87.5 25.5t125.5 36.5q68 14 146.5 22.5t165.5 8.5q216 0 335.5 -83.5t119.5 -251.5v-348q0 -56 3.5 -105t8.5 -81t10.5 -53t17.5 -58 l92 -24v-87l-144 3l-91 2q-92 0 -153 -7l-11 63l-5 153q-58 -139 -176 -192q-61 -24 -115 -36t-110 -12q-166 0 -265 84.5t-99 213.5zM394 314q0 -52 35 -89q38 -35 106 -35q101 0 160 82q33 45 50 106.5t17 146.5h-32q-155 0 -245.5 -62t-90.5 -149z" />
<glyph unicode="b" horiz-adv-x="1314" d="M3 1382v89q49 3 92 7.5t90 12.5t162 36h139l-12 -281v-296q68 73 150 105q40 16 81 23.5t83 7.5q207 0 336 -139.5t129 -364.5q0 -260 -165 -436q-84 -87 -188.5 -131.5t-228.5 -44.5q-38 0 -78 3t-96 10t-98 12t-73 5h-28l-218 -5l68 113l12 408v540l-8 302zM476 178 q17 -9 38 -18.5t39 -14.5q42 -16 111 -16q99 0 169 109t70 271q0 153 -67 255t-167 102q-98 0 -148 -97q-45 -100 -45 -271v-320z" />
<glyph unicode="c" horiz-adv-x="1171" d="M70 483q0 267 196 435t494 168q120 0 213 -25q44 -10 76.5 -20.5t50.5 -19.5l-47 -137q-10 -31 -16.5 -55.5t-18.5 -79.5l-92 14l-9 91q-26 23 -82 43t-127 20q-141 0 -214.5 -94t-73.5 -270q0 -159 96 -261t247 -102q92 0 172.5 43.5t110.5 69.5l96 -110 q-82 -89 -211 -156q-66 -33 -137 -50t-149 -17q-258 0 -416.5 139.5t-158.5 373.5z" />
<glyph unicode="d" horiz-adv-x="1314" d="M59 479q0 265 180.5 436t431.5 171q51 0 89 -11q26 -3 43.5 -7.5t34.5 -12.5l-10 303l-145 24v89q49 3 90 7.5t90 12.5t164 36h141l-14 -281v-857l12 -283q28 0 58 -10l59 -14v-87l-173 5h-42q-37 0 -106.5 -3.5t-102.5 -3.5l4 159q-64 -94 -154 -138t-179 -44 q-211 0 -341 142t-130 367zM410 528q0 -145 68.5 -241.5t169.5 -96.5q99 0 144.5 97t45.5 271v319l-75 35q-44 15 -97 15h-7q-120 0 -184.5 -109t-64.5 -290z" />
<glyph unicode="e" horiz-adv-x="1242" d="M70 493q0 248 172.5 420.5t445.5 172.5q220 0 358.5 -103t138.5 -315l-5 -98l-744 3q0 -94 19 -163.5t56 -118.5q77 -101 263 -101q112 0 197 49.5t132 102.5l112 -105q-75 -108 -227.5 -187.5t-330.5 -79.5q-263 0 -425 141.5t-162 381.5zM443 713h49.5t58.5 -4l68 2 q66 0 116.5 4.5t125.5 16.5v45q0 73 -49 117.5t-125 44.5q-117 0 -187 -90q-36 -49 -57 -136z" />
<glyph unicode="f" horiz-adv-x="780" d="M42 912v87l131 57v61q0 188 146 308.5t352 120.5q110 0 173.5 -12t100.5 -32l-110 -291l-91 20v102l-42 21q-26 10 -71 11q-77 0 -111 -50t-34 -151v-108l243 5l-61 -156l-182 3v-512q0 -105 9 -201l7 -89l150 -24v-87l-323 5l-285 -5v87l122 24l7 290v516h-131z" />
<glyph unicode="g" horiz-adv-x="1242" d="M44 -275q0 54 26 90.5t59 65.5l166 -99q0 -52 94 -109.5t256 -57.5q78 0 145 36q70 33 69 96q0 75 -132 117q-64 17 -141 17q-105 0 -267 -29q-16 37 -84.5 108t-77.5 71l59 128q24 59 33 83q19 51 30 91q-45 23 -73 45q-136 103 -136 300q0 183 150.5 295.5t372.5 112.5 q56 0 95 -7l210 -31q96 -12 312 -13l3 -96l-77 -13l-116 -13q96 -98 96 -244q0 -180 -150 -288.5t-387 -108.5q-89 0 -140 12l-12 -38q-33 -84 -33 -119l47 12q24 9 76.5 15t120.5 6q246 0 396.5 -75t150.5 -259q0 -171 -188 -282.5t-436 -111.5q-221 0 -369 87t-148 206z M396 675q0 -110 54.5 -178t143.5 -68q92 0 144 66t52 180q0 113 -51 184q-52 68 -146 68q-87 0 -145 -69q-52 -75 -52 -183z" />
<glyph unicode="h" horiz-adv-x="1314" d="M7 1382v89q49 3 89 7.5t91.5 12.5t162.5 36h143l-14 -281v-326q38 40 78.5 70.5t87.5 51.5q91 44 192 44q152 0 234.5 -92.5t82.5 -259.5v-338l12 -290l117 -24v-87l-286 5l-160 -5v87l3 24v483q0 138 -33 207.5t-129 69.5q-99 0 -149 -86t-50 -212v-172l13 -290l115 -24 v-87l-286 5l-290 -5v87l121 24l8 290v660l-8 302z" />
<glyph unicode="i" horiz-adv-x="636" d="M7 941v89q49 3 92.5 7.5t76.5 11.5q51 7 169 37h140l-13 -281v-409l11 -290l124 -24v-87l-293 5l-283 -5v87l119 24l7 290v219l-9 302zM139 1372q0 66 53.5 121t124.5 55q68 0 122 -54q26 -26 40 -56t14 -66q0 -70 -53 -124t-123 -54q-68 0 -125 52q-53 53 -53 126z" />
<glyph unicode="j" horiz-adv-x="637" d="M-54 -457q127 101 170.5 198t43.5 357v517l-8 302l-145 24v89q49 3 92.5 7.5t83.5 11.5t164 37h139l-12 -281v-500l7 -237q0 -28 -1.5 -89t-1.5 -94q0 -220 -459 -451zM141 1372q0 66 53.5 121t124.5 55q68 0 122 -54q26 -26 40 -56t14 -66q0 -70 -53 -124t-123 -54 q-68 0 -126 52q-52 53 -52 126z" />
<glyph unicode="k" horiz-adv-x="1279" d="M12 1382v89q47 3 88 7.5t80 11.5q56 7 169 37h141l-14 -281v-578l193 149q31 24 63 49q38 31 94 86l-71 22v87l223 -5l223 5v-87l-101 -24l-371 -298q112 -120 177 -190q35 -37 107 -110q143 -139 301 -274v-81l-362 -27q-58 70 -115 136q-51 59 -117 131l-244 268v-109 l10 -290l121 -24v-87l-288 5l-286 -5v87l120 24l7 290v660l-8 302z" />
<glyph unicode="l" horiz-adv-x="636" d="M10 1382v89q47 3 88 7.5t80 11.5q56 7 169 37h139l-12 -281v-850l11 -290l120 -24v-87l-288 5l-286 -5v87l121 24l7 290v660l-9 302z" />
<glyph unicode="m" horiz-adv-x="2025" d="M16 941v89q31 2 72 6.5t87 12t87 16.5t90 21h134l-5 -173q63 68 157 120.5t193 52.5q119 0 199 -54q75 -49 113 -133q35 47 143 119q54 33 112.5 50.5t128.5 17.5q153 0 240.5 -92.5t87.5 -259.5v-338l10 -290l117 -24v-87l-284 5l-162 -5v87l5 24v474q0 150 -31.5 218 t-127.5 68q-113 0 -163.5 -92t-50.5 -244v-134l12 -290l120 -24v-87l-289 5l-286 -5v87l120 24l4 89q7 75 7 201v184q0 146 -32.5 216t-128.5 70q-117 0 -166.5 -97.5t-49.5 -264.5v-108l13 -290l123 -24v-87l-291 5l-284 -5v87l119 24l8 290v219l-10 302z" />
<glyph unicode="n" horiz-adv-x="1314" d="M7 941v89q42 3 75 6t96 15q38 5 79 14t92 21h136l-9 -178q73 91 165.5 134.5t193.5 43.5q152 0 234.5 -92.5t82.5 -259.5v-338l12 -290l119 -24v-87l-288 5l-160 -5v87l3 24v483q0 138 -33 207.5t-129 69.5q-99 0 -148.5 -86t-49.5 -212v-172l12 -290l117 -24v-87l-288 5 l-288 -5v87l121 24l7 290v219l-9 302z" />
<glyph unicode="o" d="M59 528q0 246 176 402t452 156q274 0 438.5 -154.5t164.5 -403.5q0 -244 -177 -401t-449 -157q-274 0 -439.5 153.5t-165.5 404.5zM410 528q0 -178 72 -288.5t196 -110.5t192.5 108t68.5 291q0 180 -70.5 289.5t-199.5 109.5q-122 0 -191 -108q-33 -56 -50.5 -128 t-17.5 -163z" />
<glyph unicode="p" horiz-adv-x="1314" d="M7 941v89q42 3 75 6t96 15q38 5 79 14t92 21h134l-9 -155q68 73 150 114t167 41q206 0 334 -139.5t128 -364.5q0 -254 -167 -433t-403 -179q-58 0 -115 11q-63 5 -94 19v-139l9 -290l146 -24v-87l-312 5l-286 -5v87l121 24l8 290v754l-8 302zM476 180q17 -10 21 -13 q23 -12 60 -25t105 -13q105 0 173 107t68 273q0 155 -68 256t-169 101q-92 0 -143 -89q-23 -47 -35 -110.5t-12 -148.5v-338z" />
<glyph unicode="q" horiz-adv-x="1314" d="M59 458q0 291 183 459.5t436 168.5l187 -11l153 -15l232 -4v-87l-84 -24q-12 -2 -12 -478v-606l9 -290l120 -24v-87l-288 5l-313 -5v87l142 24l6 91q8 82 8 178v21v271q-58 -73 -139.5 -117.5t-170.5 -44.5q-202 0 -335.5 137t-133.5 351zM410 551q0 -153 66 -257 t172 -104q98 0 144 103.5t46 286.5v295l-61 30q-43 22 -106 22h-5q-119 0 -188 -103q-35 -54 -51.5 -120t-16.5 -153z" />
<glyph unicode="r" horiz-adv-x="922" d="M10 941v89q38 3 69 7t93.5 14t149.5 35h124l-9 -270q61 138 166 204t207 66q24 0 48 -3.5t47.5 -9.5t39.5 -18l-61 -166q-9 -26 -23 -79q-7 -23 -12 -45l-80 12q0 75 -18 82l-40 7q-108 0 -173.5 -114t-65.5 -281v-75v-92.5t7 -108.5l7 -89l154 -24v-87l-326 5l-283 -5 v87l121 24l3 89l4 201v219l-9 302z" />
<glyph unicode="s" horiz-adv-x="1099" d="M0 89l94 127l82 131l80 -38l-12 -91q35 -23 99 -51q73 -28 173 -28q78 0 135 32.5t57 89.5q0 59 -67.5 93.5t-201.5 66.5t-247.5 102.5t-113.5 208.5q0 167 152 260.5t371 93.5q112 0 213 -20t159 -46l-91 -260l-92 19v75q-40 19 -117 42q-80 21 -138 21q-78 0 -117 -28 q-36 -22 -36 -69t57 -77q28 -14 84.5 -31.5t140.5 -40.5q193 -47 276 -125.5t83 -200.5q0 -159 -147 -267.5t-367 -108.5q-143 0 -269.5 31t-239.5 89z" />
<glyph unicode="t" horiz-adv-x="817" d="M42 908v94l132 56v204l312 68v-274l267 4l-56 -154l-211 2v-526q0 -99 28 -148q28 -44 91 -44q21 0 30.5 2.5t26.5 13.5l58 36l84 -103l-112 -94q-91 -75 -234 -75q-131 0 -207.5 73.5t-76.5 202.5v662h-132z" />
<glyph unicode="u" horiz-adv-x="1314" d="M7 941v89q49 0 88 4.5t85 14.5q73 10 172 37h134l-10 -354v-270q0 -129 44.5 -200.5t129.5 -71.5t135 86.5t50 227.5v167l-11 246l-139 24v89q47 0 83.5 4.5t85.5 14.5q71 10 173 37h137l-12 -364v-255l11 -364l120 -21v-87l-215 5l-214 -5l11 176q-66 -92 -168.5 -146.5 t-204.5 -54.5q-150 0 -241.5 87.5t-91.5 233.5v380l-9 246z" />
<glyph unicode="v" horiz-adv-x="1207" d="M-3 974v87l273 -5l274 5v-85l-108 -24q28 -98 57 -194q9 -26 65.5 -197t116.5 -385l219 776l-96 22v87l206 -5l207 5v-85l-76 -24q-112 -241 -201 -490l-172 -485l-155 7l-161 -7q-40 125 -80 238.5t-94 248.5q-45 120 -91 242q-16 42 -97 246z" />
<glyph unicode="w" horiz-adv-x="1809" d="M-3 974v87l270 -5l270 5v-85l-86 -24l176 -734l229 843h228l244 -838q54 199 61 227q21 92 32 137l87 365l-96 22v87l197 -5l198 5v-85l-71 -30q-80 -225 -164 -482l-148 -487l-155 6h-38q-19 0 -58.5 -2t-60.5 -2l-200 669l-201 -671l-153 6h-39h-55t-61 -4 q-9 28 -94 302q-24 82 -60 183q-75 244 -96 303q-45 124 -66 185z" />
<glyph unicode="x" horiz-adv-x="1207" d="M-19 -5v92l103 19l172 213q84 105 164 216l-307 417l-123 22v87l284 -5l285 5v-87l-66 -22l178 -267l171 268l-56 20v88l197 -5l200 5v-85l-118 -24l-159 -190l-144 -190l343 -464l124 -19v-94l-291 5l-293 -5v89l70 24l-203 312l-102 -155q-23 -38 -46 -77 q-28 -51 -45 -82l82 -22v-89l-209 5z" />
<glyph unicode="y" horiz-adv-x="1171" d="M-78 -537l52 161l31 165l94 -7l14 -94l46 -16l71 -8q124 0 220 108t120 184l16 39h-135l-184 483q-31 82 -91.5 230t-100.5 244l-85 22v87l275 -5l274 5v-85l-98 -23l235 -737l211 737l-99 21v87l202 -5l202 5v-85l-54 -24q-131 -275 -225 -520.5t-188 -511.5 q-82 -235 -246 -361.5t-376 -126.5q-14 0 -32.5 1t-53.5 9q-23 3 -42 7t-53 14z" />
<glyph unicode="z" horiz-adv-x="1136" d="M26 0v89l605 819l-134 9q-47 0 -85.5 -2t-80.5 -9q-38 0 -61.5 -2.5t-46.5 -9.5l-68 -141l-85 28l29 139q3 14 13 84q7 38 8 57l377 -3h573v-78l-598 -821l142 -7q64 0 93 2.5t80 11t80 14t93 17.5l61 125l89 -29l-33 -148l-22 -150l-429 5h-600z" />
<glyph unicode="{" horiz-adv-x="850" d="M138 441q49 10 83 68q30 54 30 145v427q0 134 64.5 207t280.5 73h98v-66q-45 0 -93 -49q-21 -26 -31.5 -58t-10.5 -85v-392q0 -127 -43 -188q-38 -59 -119 -82q73 -21 117.5 -83t44.5 -187v-392q0 -92 40.5 -139.5t94.5 -52.5v-66h-98q-216 0 -280.5 72t-64.5 208v427 q0 94 -30 143q-29 58 -83 70z" />
<glyph unicode="|" horiz-adv-x="425" d="M113 -31v1558h206v-1558h-206z" />
<glyph unicode="}" horiz-adv-x="850" d="M159 1295l1 66h100q214 0 277 -72t63 -208v-427q0 -85 29 -145q28 -49 80 -68q-47 -10 -78 -65t-31 -148v-427q0 -134 -63 -207t-277 -73h-100v66q47 0 89 49q21 26 31.5 58t10.5 85v392q0 125 41 186t119 84q-75 21 -118 82q-42 64 -42 188v392q0 96 -39 141.5t-93 50.5 z" />
<glyph unicode="~" horiz-adv-x="1150" d="M132 478q26 59 89 110.5t150 51.5q94 0 208.5 -64t203.5 -64q58 0 94 32q35 35 73 104l70 -153q-31 -63 -93 -113.5t-146 -50.5q-94 0 -210 64.5t-203 64.5q-52 0 -92.5 -33t-73.5 -103z" />
<glyph unicode="&#xa1;" horiz-adv-x="1211" d="M21 692q0 23 17 35l16 5l28 -5l9 -7l7 -23q5 -5 -4 -17l-12 -14l-16 -9l-28 9q-17 2 -17 26zM73 776q-5 22 18 38l10 5q21 0 31 -9l16 -26l-3 -17l-13 -19l-15 -7q-16 -5 -28 7zM85 573q-5 45 44 109l49 62l71 58q28 21 63 39t70 25l24 2q42 0 72 -47l12 -54q5 -35 8 -40 l-10 -45l-44 -70q-9 -12 -15 -16l-12 -16l-21 -34q-2 -3 -2 -6q-5 -12 -5 -15v-27v-43q0 -7 12 -35l28 -38q12 -10 35 -40l26 -33q5 -7 11 -31t11 -48l16 -110q0 -54 -14 -83.5t-56 -43.5h-19q-40 0 -89 38l-69 75l-20 35l-12 39l-26 115l-5 47q-2 16 -10 35t-18 34l-96 148 zM132 854q1 23 20 42l14 5q37 5 57 -40q0 -21 -24 -40l-16 -7q-17 0 -31 12q-19 10 -20 28zM218 922l2 26l22 23l18 7q26 0 40 -12l12 -13l10 -19q5 -33 -27 -50l-18 -9q-17 -9 -33.5 7.5t-25.5 39.5zM326 1018q0 49 17 61l32 19q17 0 50 -24q16 -16 33 -74v-22 q0 -30 -12 -47.5t-36 -25.5q-21 -3 -40 10q-23 12 -41 51zM685 98v15v35l17 110q3 26 11 37l10 17l68 78l14 21l9 25l9 22l3 37q0 33 -9 47l-12 30l-73 90l-12 26l-4 32v17l4 25l16 57q5 17 24 35q21 12 45 12l25 -1q23 -3 37.5 -9.5t42.5 -22.5q51 -24 97 -66 q24 -17 46 -38q16 -16 38 -47q35 -44 35 -88l-2 -21l-3 -17l-39 -58l-62 -90l-20 -37l-5 -31l-7 -45l-28 -115l-1 -20l-2 -19q0 -2 -2 -8t-12 -20l-33 -42l-35 -36l-42 -26q-9 -7 -36 -12l-41 -6q-42 7 -59 46l-9 38zM756 969l2 44q0 24 14 43q3 7 9.5 13t23.5 17q9 3 39 3 q17 1 36 -34l9 -51l-5 -38q0 -17 -26 -47q-16 -23 -41 -23q-10 0 -24 5q-37 14 -37 68zM896 901v30q0 19 18 33t36 14l24 -9q9 -5 14 -21q7 -12 7 -29q0 -16 -21 -35q-21 -12 -38 -13l-21 7q-12 3 -19 23zM992 849q0 3 3 17q14 28 47 33l18 -7q17 -5 22 -40q0 -30 -55 -38 l-14 5q-21 10 -21 30zM1067 762v17q2 5 3.5 9.5t6.5 13.5q10 10 35 15l12 -7q21 -12 16 -36q-7 -28 -42 -33l-16 3q-12 5 -15 18zM1117 688q0 16 12 35l28 9l20 -5q9 -7 10 -14l5 -25l-9 -13l-6 -13l-32 -8l-12 5q-16 14 -16 29z" />
<glyph unicode="&#xa2;" horiz-adv-x="1199" d="M21 807q0 19 23 33l14 2q14 0 27 -11l7 -34q0 -16 -19 -30h-15q-16 0 -27 12q-7 12 -10 28zM61 682q0 28 29 61.5t74 70.5q16 14 42 29.5t55 31.5q49 24 102 38q31 3 43 4q19 0 38 -5q33 -12 44 -58l10 -56q0 -37 -10 -59.5t-15.5 -30t-21.5 -20.5l-29 -29 q-33 -28 -56.5 -59.5t-23.5 -85.5q0 -38 31 -90l28 -42l16 -30l8 -47v-31.5t4 -38.5q0 -68 -23.5 -129t-76.5 -61q-26 0 -55 13q-23 12 -44 38l-59 90q-5 5 -11 35v44l-12 117l4 47l-4 31q0 17 -9 38l-69 161zM85 884q1 21 20 31l20 4q16 -7 27 -20l8 -21q0 -17 -22 -33 l-13 -3q-14 -3 -29 10q-10 14 -11 32zM160 948q0 23 26 37l13 3q19 0 33 -13t14 -36q0 -19 -26 -34l-20 -6q-12 -5 -26 9t-14 40zM253 1000q0 32 31 44l23 7l17 -7q30 -19 30 -52q0 -28 -28 -44l-23 -2q-24 -5 -38 13zM371 1039q0 23 2.5 35t13.5 35q17 33 52 38 q25 0 44 -35q21 -37 21 -77q0 -37 -11 -50q-5 -10 -26 -32l-28 -7q-26 -5 -49 25q-19 33 -19 68zM697 657l4 40l14 35q7 17 21 26l27 9q26 0 47 -31l13 -39q7 -16 7 -38q0 -24 -4 -32l-12 -33q-5 -12 -18 -19t-33 -7q-31 0 -48.5 23.5t-17.5 65.5zM704 417l7 59q5 63 84 63 q14 0 73 -14q26 -7 55.5 -18.5t59.5 -27.5q61 -28 107 -73t46 -106l-3 -12l-31 -67l-51 -132q-3 -10 -3 -38l3 -44l-10 -145l-6 -35q-7 -24 -26 -52q-5 -10 -14.5 -24t-25.5 -33.5t-45 -34.5q-9 -5 -24.5 -10.5t-28.5 -7.5q-35 0 -62 35l-30 77l-5 35l-2 47v61q0 24 12 56 l35 55l30 61l9 44q0 56 -21 84l-18 24l-68 61l-31 37q-9 5 -14 33zM844 612q0 23 13.5 42t38.5 19l19 -5q31 -10 31 -48q0 -19 -12 -36q-14 -14 -35 -19l-22 3q-14 0 -23 16zM953 561q0 14 13 32l34 17l16 -3q26 -6 26 -39q0 -28 -42 -47l-19 7l-21 9q-3 3 -5 8.5t-2 15.5z M1039 498q0 12 8 24.5t32 16.5h16q12 -9 15 -16l7 -19q0 -12 -12 -26q-9 -14 -26 -14h-16q-14 0 -19 14zM1105 422q0 31 35 42l19 -4q16 -5 21 -31q0 -17 -12 -30l-28 -12l-16 3q-19 9 -19 32z" />
<glyph unicode="&#xa3;" horiz-adv-x="1199" d="M21 429q0 19 23 31l14 4q31 0 36 -42q0 -23 -21 -32l-15 -3q-12 0 -27 12q-7 9 -10 30zM61 300q0 47 64 99l61 52l74 47l78 30q5 3 15 5l20 4l33 2q66 0 82 -63l10 -59q5 -33 -19 -71.5t-57 -63.5l-33 -29l-26 -32q-7 -5 -16 -43q0 -21 -5 -42q0 -40 31 -91l28 -42 l16 -31l7 -42l5 -71q0 -75 -23 -131.5t-77 -62.5q-19 0 -55 13q-24 10 -44 40l-35 52l-24 42q-10 24 -11 75l-12 120l4 44l-4 31q0 12 -9 42l-69 164zM85 504l4 19q7 11 16 16h20q35 -9 35 -41q0 -17 -22 -34h-13q-19 0 -31 12zM160 568q0 25 26 39l13 3q17 0 30 -12t17 -37 q0 -24 -26 -33l-20 -7q-5 -3 -24 7q-12 10 -16 40zM253 620q0 24 31 48l23 5q17 0 31 -18.5t16 -42.5q0 -23 -28 -44l-23 -3q-23 0 -38 15q-10 16 -12 40zM371 659q0 40 15 71.5t53 36.5q12 0 23 -7t21 -28q21 -33 21 -75q0 -45 -20 -67t-43 -22q-26 0 -45.5 20t-24.5 71z M697 960l4 44l14 31q17 30 48 35q26 0 47 -31l13 -39q7 -16 7 -34q0 -23 -4 -35l-12 -35q-5 -10 -18 -17.5t-33 -7.5q-33 0 -50 25q-10 19 -16 64zM704 723l7 56q5 61 84 61q12 0 47 -9l61 -17l63 -28q23 -9 47 -28l28 -21l38 -33q58 -47 57 -97l-3 -21l-31 -58l-39 -103 l-12 -38l-3 -35l3 -45l-10 -145l-6 -30q-14 -38 -35 -71q-9 -16 -21.5 -30t-30.5 -28q-28 -30 -77 -34q-42 0 -64 38l-14 35l-14 43l-5 16v12l-2 49v59q0 21 12 58l35 59l30 56q5 17 7 26t2 26q0 10 -4 32q-9 45 -33 68l-70 61l-31 38l-11 30zM844 919q0 21 14 38 q16 14 38 16l19 -4q31 -10 31 -43q0 -45 -47 -60l-22 5q-17 0 -25 16zM953 865q0 35 47 50l16 -3q26 -6 26 -41q0 -12 -12 -29q-5 -9 -30 -16l-19 2q-23 5 -28 37zM1039 802q0 33 40 40l16 -2q12 -7 17 -17.5t5 -15.5q0 -30 -38 -40h-16q-12 0 -19 12zM1102 711q0 7 5 21 t19 24l14 11l19 -5q16 -6 21 -30q0 -17 -12 -31l-28 -13l-16 4q-17 7 -22 19z" />
<glyph unicode="&#xa4;" horiz-adv-x="970" d="M21 573q5 51 14 67l10 38l21 37l25 29l76 87l35 34l25 27q12 16 19 34l63 162l6 17q19 14 48 21l66 9h45l19 -6q12 -2 14 -3l89 -24q59 -17 109.5 -53t50.5 -83q0 -24 -15 -40l-35 -42q-28 -30 -61 -44l-49 -7l-75 7l-45 -7q-42 0 -79 -43q-30 -42 -40 -86l-14 -45 l-5 -21q0 -9 -7 -23l-70 -82q-23 -31 -62 -52l-61 -30l-35 -5l-25 5q-28 5 -43 44q-9 28 -11.5 43t-2.5 35zM148 -136l5 23l30 68l99 108l23 22q3 3 26 9l16 9l24 5q16 0 25 5l61 16q17 5 38 26l28 37l19 33v179q0 12 16 28q7 9 12 16t19 16l38 38q23 17 44 17q17 0 35 -12 q40 -21 67 -71.5t45.5 -118.5t18.5 -129v-29q0 -30 -6 -46q-2 -23 -21 -38l-12 -9l-69 -21l-102 -42l-29 -17l-30 -23l-28 -36l-89 -80l-43 -30l-33 -16l-32 -10l-34 -5l-37 -4l-42 5q-14 2 -25.5 6.5t-26.5 16.5q-21 17 -30 54zM363 1199l15 26l19 9l20 -3l12 -11 q0 -2 2 -2q3 -7 8 -19q0 -16 -10 -35l-25 -5h-15l-13 11q-9 7 -13 29zM464 1206q0 23 34 37l18 -4l12 -8q7 -7 7 -21q0 -12 -2 -20q-10 -26 -29 -26l-28 9q-7 7 -9 14q0 16 -3 19zM558 1199q0 14 14 23q9 9 31 17l17 -5l14 -9q10 -14 11 -31q0 -12 -11.5 -28t-30.5 -19 l-16 2l-19 12q-10 10 -10 38zM659 1156q5 23 19 43l37 12l21 -5l15 -12q12 -17 12 -38q0 -17 -13.5 -34t-34.5 -17l-25 4l-15 12q-10 3 -16 35zM725 553q0 29 19 67q21 33 73 60l25 5q19 0 29.5 -12.5t15.5 -38.5l-3 -22l-16 -37l-23 -24q-14 -14 -22 -18q-40 -30 -72 -22 q-23 10 -26 42zM762 1048q-5 30 12 69q17 33 82 63l19 2q49 0 49 -49l-2 -21q-5 -12 -9 -24l-5 -13q-9 -10 -16 -19.5t-12 -11.5l-24 -19q-21 -24 -44 -25q-5 0 -15 4q-21 10 -35 44zM810 474q-2 16 15 29t36 18q12 5 40 -9l14 -20v-23q0 -12 -14 -35l-40 -17q-16 2 -23 7 t-8 10l-16 17zM852 364q0 30 49 40l30 -10l8 -16l7 -17q2 -13 -15 -30q-5 -5 -30 -14q-16 0 -36 12l-7 18zM861 162q0 10 10 21l30 16l12 -4l14 -9l11 -12q7 -5 1 -19q-3 -14 -8 -19l-30 -12l-26 12l-10 12zM868 261q-2 7 12 21q17 12 28 13q21 0 30 -7l8 -16q6 -12 -8 -38 q-5 -12 -28 -13q-16 0 -26 9z" />
<glyph unicode="&#xa5;" horiz-adv-x="1450" d="M21 288l2 17l22 106q3 19 15.5 36t30.5 29l80 89l31 29l19 21l27 42l40 98l21 66l10 19q24 12 40 16.5t34 7t36 2.5l52 -5q31 -5 41 -7t29 -9q39 -5 69 -19q21 -7 28 -10q17 -10 29.5 -16.5t24 -15t25.5 -25t21.5 -30.5t7.5 -32q0 -21 -15 -40l-35 -45l-31 -26 q-16 -12 -37 -18h-164q-40 -5 -73 -45q-14 -17 -23.5 -37.5t-20.5 -51.5l-22 -82q-2 -7 -11 -20t-17 -23l-53 -51l-62 -47l-51 -28l-33 -5q-40 0 -63.5 34t-23.5 76zM364 927q5 17 11 26l24 13l18 -4l12 -9l7 -27l-7 -16q-2 -9 -4 -11l-17 -12l-35 12zM460 938l16 28 q9 7 12 7l10 1l16 -3l14 -9q5 -3 5 -26l-7 -28l-10 -7l-12 -5l-14 3l-16 11q-5 2 -10 12zM558 915q0 5 3 19q10 30 42 37l17 -5l14 -9q9 -5 9 -31q0 -21 -8.5 -32.5t-27.5 -15.5l-21 6l-14 8q-14 9 -14 23zM633 80l1 25l25 61l33 40l70 73l12 10l12 7l28 11l26 10l37 9 l59 21q31 14 56 35q21 23 24 42l9 34l2 20v29l-6 61q0 42 5.5 58.5t43.5 53.5l40 35q19 14 42 14q14 0 28 -6q28 -16 59 -57q9 -14 23 -42q9 -16 23 -51l27 -92l9 -77q2 -9 2 -17.5v-15.5q0 -35 -12 -49l-19 -33l-16 -7l-68 -24l-98 -38l-36 -21l-26 -23l-27 -37l-90 -76 l-44 -35l-26 -12l-35 -9l-36 -10h-35l-49 3q-28 5 -51 26q-23 26 -22 54zM659 891q0 19 17 33q10 12 37 15l19 -1l17 -12q12 -5 13 -39q0 -16 -14 -33t-35 -17l-19 3l-18 14l-14 12zM760 809q5 33 30 59q16 28 52 42l36 5q14 0 27 -12q16 -11 19 -35l-2 -24 q-10 -31 -35.5 -62t-60.5 -41q-5 -2 -11 -2h-8q-28 0 -40 17q-7 14 -7 53zM1199 791q0 19 18 46q10 12 16 18t22 16l44 21l22 4q23 5 35 -14.5t12 -36.5v-17q-9 -24 -22.5 -43.5t-32 -35t-48.5 -22.5q-23 -2 -54 14q-12 24 -12 50zM1290 688q-3 17 11.5 29t45.5 19 q16 0 35 -11l16 -45l-5 -18l-7 -12l-40 -16q-12 0 -39 11l-14 21zM1335 580q0 7 9 18.5t38 16.5q16 0 28 -8l11 -14l7 -20q4 -8 -13 -27q-16 -12 -33 -13h-16l-15 13l-9 13q-7 14 -7 21zM1339 385l19 14q12 7 28 7q9 0 21 -7l14 -9q9 -5 0 -24l-11 -14q-7 -10 -24 -12 q-16 0 -30 7l-10 14q-12 12 -7 24zM1354 476l2 14l4 8l26 14q10 0 15 -1l20 -13l7 -10l1 -14q1 -16 -8 -26l-32 -14l-16 7l-7 5l-10 12z" />
<glyph unicode="&#xa6;" horiz-adv-x="425" d="M145 -31v582h50v-582h-50zM145 945v582h50v-582h-50z" />
<glyph unicode="&#xa8;" horiz-adv-x="1408" d="M35 678q0 136 52 256q28 64 62 114t85 99q87 91 209 145t261 54t258 -54q59 -26 112.5 -61t102.5 -84q85 -87 140.5 -212.5t55.5 -256.5q0 -279 -198.5 -474t-468.5 -195q-136 0 -258 52t-212 141t-149 215q-52 124 -52 261zM122 678q0 -124 48 -228.5t125 -182.5 q40 -42 81.5 -71t102.5 -57q52 -21 110 -33t117 -12q230 0 411 173q80 77 125.5 183t45.5 228q0 113 -49 221q-40 101 -125 187q-77 78 -180.5 126t-227.5 48t-225 -45t-183 -126.5t-129 -187.5t-47 -223zM333 715q0 -70 42 -121q42 -66 130 -113q92 -42 194 -42 q145 0 239 75l49 40l40 40q16 24 18.5 28.5t12 32t9.5 60.5q0 -91 -23 -164q-14 -40 -30.5 -71.5t-42.5 -61.5q-40 -51 -113 -85q-35 -14 -73.5 -22.5t-82.5 -8.5q-148 0 -261 120l-27 31.5t-17 25.5q-24 30 -38 72l-19 76q-7 33 -7 88zM413 912q0 35 31 66q30 26 61 26 q16 0 32 -7t31 -19q32 -28 32 -66q0 -37 -28 -63q-14 -14 -30 -22t-37 -8q-38 0 -64 28q-28 26 -28 65zM807 906q0 35 26 61q33 28 68 28q33 0 59.5 -25.5t31.5 -63.5q0 -30 -26 -61q-28 -28 -65 -28q-40 0 -70 25q-24 24 -24 64z" />
<glyph unicode="&#xa9;" horiz-adv-x="862" d="M33 957q0 169 118.5 286t282.5 117q167 0 285 -119t118 -282q0 -169 -118.5 -286t-284.5 -117q-167 0 -284 118.5t-117 282.5zM84 959q0 -148 102.5 -250t247.5 -102t248.5 102.5t103.5 247.5t-102 248.5t-250 103.5q-145 0 -247.5 -103t-102.5 -247zM209 964 q0 91 73.5 158.5t186.5 67.5q28 0 42.5 -2.5t44.5 -10.5q54 -16 56 -27v-85l-16 -4q-5 54 -43 77q-35 28 -95 28q-87 0 -131.5 -57.5t-44.5 -142.5q0 -91 47 -149q44 -59 136 -59q59 0 98 30q16 16 29 32.5t22 35.5l15 -2l-19 -84q-5 -12 -56 -24l-104 -10q-108 0 -174.5 59 t-66.5 169z" />
<glyph unicode="&#xab;" horiz-adv-x="1030" d="M61 547l298 387l143 -78l-131 -309l138 -310l-145 -78zM530 547l296 387l145 -78l-131 -309l136 -310l-145 -78z" />
<glyph unicode="&#xad;" horiz-adv-x="888" d="M96 453q30 47 52 96q9 16 19.5 40.5t20.5 55.5l605 2q-28 -45 -50 -96q-16 -31 -24 -48.5t-17 -47.5z" />
<glyph unicode="&#xae;" horiz-adv-x="862" d="M33 955q0 166 116 282.5t283 116.5q166 0 283 -116q59 -61 87.5 -129t28.5 -154q0 -166 -116.5 -282.5t-282.5 -116.5t-282.5 117t-116.5 282zM84 955q0 -145 102.5 -246.5t245.5 -101.5q141 0 246 102.5t105 245.5q0 145 -102.5 247.5t-248.5 102.5 q-145 0 -246.5 -102.5t-101.5 -247.5zM244 746v23q35 0 44.5 7t13.5 28v315q0 16 -13 28q-9 3 -17.5 5t-27.5 2v21h185q89 0 130 -32q37 -35 37 -83q0 -30 -27 -65.5t-79 -46.5l101 -139q9 -10 15 -18t14.5 -15t33.5 -14v-16h-70q-17 0 -52 44q-10 16 -42 57q-44 61 -65 92 h-55v-135q0 -17 11 -26t41 -9v-23h-178zM370 960h52q45 0 71 27q23 28 23 66q0 56 -23.5 76.5t-67.5 20.5h-55v-190z" />
<glyph unicode="&#xaf;" horiz-adv-x="533" d="M-89 1295v178h800v-178h-800z" />
<glyph unicode="&#xb0;" horiz-adv-x="766" d="M120 1136q0 108 76 184t184 76q106 0 183 -76.5t77 -183.5q0 -105 -76 -182t-184 -77t-184 74.5t-76 184.5zM221 1136q0 -64 46.5 -111t112.5 -47q64 0 110 47q47 45 47 111t-47 112q-45 47 -110 47q-64 0 -111.5 -46.5t-47.5 -112.5z" />
<glyph unicode="&#xb1;" horiz-adv-x="1150" d="M91 0v199h970v-199h-970zM91 514v199h387v260h198v-260h385v-199h-385v-260h-198v260h-387z" />
<glyph unicode="&#xb4;" horiz-adv-x="533" d="M30 1224q45 117 116 198q63 73 145 129q59 -42 119 -73l122 -59q-119 -40 -202.5 -99.5t-183.5 -169.5z" />
<glyph unicode="&#xb6;" horiz-adv-x="592" d="M0 765q0 98 64 152q64 59 189 59h341v-87h-75v-845h-94v845h-118v-845h-89v519q-49 0 -88 16.5t-71 46.5q-59 54 -59 139z" />
<glyph unicode="&#xb7;" horiz-adv-x="672" d="M239 514v168h171v-168h-171z" />
<glyph unicode="&#xbb;" horiz-adv-x="1030" d="M51 237l139 310l-134 309l146 78l298 -387l-305 -388zM518 237l139 310l-134 309l146 78l300 -387l-305 -388z" />
<glyph unicode="&#xbc;" horiz-adv-x="2025" d="M204 1251v68q24 3 59 10.5t64.5 15.5t59.5 17.5t57 21.5h131l-7 -178v-416l7 -175l94 -14v-52l-226 4l-218 -4v52l87 14l7 175v265l-12 196h-103zM500 -70l704 1466l236 26l-704 -1464zM1156 295l226 298q54 71 106.5 147.5t104.5 155.5h129l14 -18q-117 -132 -218 -266 q-49 -68 -97 -134.5t-100 -144.5h283v305l165 77l66 -39l-8 -153v-190h15q23 0 61 9l35 8l35 -29l-64 -94h-82v10l8 -174l81 -12v-54l-199 3l-256 -3v54l132 12l11 174v-10h-401z" />
<glyph unicode="&#xbd;" horiz-adv-x="2025" d="M204 1251v68q24 3 59 10.5t64.5 15.5t59.5 17.5t57 21.5h131l-7 -178v-416l7 -175l94 -14v-52l-226 4l-218 -4v52l87 14l7 175v265l-12 196h-103zM505 -70l705 1466l235 26l-702 -1464zM1152 59l187 131q87 63 155 131q42 40 104.5 121t62.5 165q0 54 -40 88.5t-105 34.5 q-24 0 -45 -2.5t-58.5 -20t-51.5 -29.5l-5 -71l-64 -7q-5 38 -11.5 64t-20.5 58l-21 59q35 12 118.5 31t205.5 19q152 0 255 -67t103 -173q0 -105 -82 -186t-148 -124q-49 -37 -112 -74l-115 -68l394 14l47 77l70 -17l-37 -110l-26 -106h-732z" />
<glyph unicode="&#xbe;" horiz-adv-x="2025" d="M10 675l203 122l47 -42l-35 -54q12 -23 56.5 -45t103.5 -22q80 0 136 55t56 132q0 61 -49 98q-23 17 -55 27.5t-70 10.5l-129 -14l-20 85q105 14 168 56q68 40 68 110q0 40 -30 64q-14 10 -32 17.5t-43 7.5q-33 0 -47 -2.5t-38 -13.5q-38 -10 -52 -24v-58l-70 -12 q-14 56 -40 110l-21 52l94 28q37 9 89 14t115 5q141 0 233 -52q87 -47 88 -141q0 -52 -48 -93q-45 -35 -148 -61l35 2q115 0 185 -62t70 -147q0 -124 -130 -209.5t-322 -85.5q-152 0 -239 44q-84 47 -129 98zM551 -70l702 1466l237 26l-704 -1464zM1161 295l225 298 q54 71 106 147.5t105 155.5h129l13 -18q-117 -132 -217 -266l-197 -279h282v305l167 77l65 -39l-7 -153v-190h14q23 0 63 9l33 8l35 -29l-65 -94h-80v10l7 -174l80 -12v-54l-199 3l-256 -3v54l133 12l10 174v-10h-401z" />
<glyph unicode="&#xbf;" horiz-adv-x="1030" d="M56 -14q0 173 125.5 268t318.5 135l32 172l169 46l76 -309l-29 -28l-44 -26q-85 -10 -139 -30.5t-93 -60.5q-73 -68 -73 -150q0 -63 43.5 -116t101.5 -53q85 0 153 30t91 49l-5 104l99 25q35 -145 70 -216q16 -37 22.5 -54.5t8.5 -25.5q-10 -5 -51 -18.5t-116 -32.5 q-119 -28 -258 -28q-248 0 -375 93.5t-127 225.5zM455 908q0 73 55.5 124.5t132.5 51.5t132.5 -51.5t55.5 -124.5q0 -71 -54.5 -122.5t-131.5 -51.5q-78 0 -134 51.5t-56 122.5z" />
<glyph unicode="&#xc0;" horiz-adv-x="0" />
<glyph unicode="&#xc1;" horiz-adv-x="0" />
<glyph unicode="&#xc2;" horiz-adv-x="0" />
<glyph unicode="&#xc3;" horiz-adv-x="0" />
<glyph unicode="&#xc4;" horiz-adv-x="0" />
<glyph unicode="&#xc5;" horiz-adv-x="0" />
<glyph unicode="&#xc6;" horiz-adv-x="0" />
<glyph unicode="&#xc7;" horiz-adv-x="0" />
<glyph unicode="&#xc8;" horiz-adv-x="0" />
<glyph unicode="&#xc9;" horiz-adv-x="0" />
<glyph unicode="&#xca;" horiz-adv-x="1552" d="M35 528q0 180 66 317q37 70 81.5 126.5t103.5 105.5q112 92 268.5 143t327.5 51q71 0 132 -5.5t121 -19.5q113 -23 199.5 -68t133.5 -104q51 -59 50 -126h-769v246l-662 -666l662 -662v247h769q0 -40 -14.5 -69.5t-39.5 -62.5q-51 -61 -146 -106q-47 -24 -92.5 -39.5 t-103.5 -25.5l-118 -17l-122 -6q-186 0 -328 51q-80 24 -145.5 59t-122.5 84q-113 91 -182 232t-69 315z" />
<glyph unicode="&#xcb;" horiz-adv-x="1638" d="M35 464l545 549h346l-440 -427h1118v-241h-1118l440 -427h-346z" />
<glyph unicode="&#xcc;" horiz-adv-x="1631" d="M35 464l451 502q28 33 58.5 54t79.5 28q17 0 42 -16q14 -5 23.5 -10.5t35.5 -23.5t49 -50q17 -30 23 -77q0 -58 -70 -128l-124 -119l800 3q98 0 143 -40q51 -34 51 -123q0 -164 -185 -164l-809 7l124 -119q12 -16 25 -31.5t22 -34.5q23 -37 23 -64q0 -31 -12.5 -57.5 t-43.5 -59.5q-51 -54 -117 -54q-26 0 -37 5l-33 12l-31 23l-37 35z" />
<glyph unicode="&#xcd;" horiz-adv-x="775" d="M35 464l472 798v-274h234v-1049h-234v-272z" />
<glyph unicode="&#xce;" horiz-adv-x="1680" d="M35 455v16l78 36l77 51q14 10 52 42q24 21 51 41q49 40 85 91q40 49 75 106l72 128h10v-206h357v-587h-357v-211h-10q-85 171 -204 295.5t-286 197.5zM936 173v587h152v-587h-152zM1168 173v587h111v-587h-111zM1384 173v587h75v-587h-75zM1591 173v587h54v-587h-54z" />
<glyph unicode="&#xcf;" horiz-adv-x="1645" d="M35 441l507 539v-213h1070v-605h-1070v-211z" />
<glyph unicode="&#xd0;" horiz-adv-x="1720" d="M35 446v35q40 16 87 45q19 9 42 25q33 23 35 22q40 30 66 53q14 12 63 61l40 45l31 33l12 19q16 26 26 37l48 75l48 91h47v-208h358v-631h-358v-207h-45q-35 68 -43 85q-19 35 -50 80.5t-54.5 76t-56.5 62.5t-59 54t-73 55q-51 28 -77 43q-66 38 -87 49zM66 476 q84 -38 154.5 -87t135.5 -115q58 -54 109 -128.5t93 -159.5h-19v206h399v545h-399v209h19q-28 -59 -35 -73q-17 -31 -45 -76q-21 -35 -50 -69t-67 -71l-108 -89q-85 -59 -178 -113zM938 148v631h195v-631h-195zM980 192h111v545h-111v-545zM1170 148v631h149v-631h-149z M1206 192h73v545h-73v-545zM1386 148v631h115v-631h-115zM1426 192h36v545h-36v-545zM1593 148v631h92v-631h-92zM1633 192h11v545h-11v-545z" />
<glyph unicode="&#xd1;" horiz-adv-x="1697" d="M35 441l558 591v-248h1068v-639h-1068v-244zM91 441l463 -441v186h1063v558h-1063v183z" />
<glyph unicode="&#xd2;" horiz-adv-x="1701" d="M35 145v639h1070v248l561 -591l-561 -540v244h-1070zM80 186h1067v-186l458 441l-458 486v-183h-1067v-558z" />
<glyph unicode="&#xd3;" horiz-adv-x="1720" d="M35 148v631h92v-631h-92zM78 192h9v545h-9v-545zM220 148v631h118v-631h-118zM260 192h35v545h-35v-545zM401 148v631h152v-631h-152zM444 192h70v545h-70v-545zM587 148v631h197v-631h-197zM633 192h108v545h-108v-545zM784 148v631h356v208h50q84 -180 197 -299 q59 -59 131.5 -110.5t166.5 -96.5v-35q-31 -14 -64 -31q-52 -26 -96 -59q-61 -44 -132 -110l-40 -42q-9 -14 -18 -26q-10 -9 -14 -12l-40 -54l-47 -77q-10 -24 -21.5 -47t-25.5 -47h-47v207h-356zM784 192h401v-206h-19q75 166 197 288q33 33 65.5 60t66.5 48q74 52 163 94 l-14 -21q-89 47 -150 87q-63 51 -131 115q-31 33 -61 69t-55 71.5t-45 71.5t-36 77h19v-209h-401v-545z" />
<glyph unicode="&#xd4;" horiz-adv-x="1647" d="M35 162v605h1070v213l509 -539l-509 -490v211h-1070z" />
<glyph unicode="&#xd5;" horiz-adv-x="1680" d="M35 173v587h50v-587h-50zM220 173v587h73v-587h-73zM399 173v587h115v-587h-115zM587 173v587h154v-587h-154zM784 173v587h358v206h10q37 -85 86.5 -156t117.5 -139l30 -24l35 -30l38 -31l30 -27l71 -43q33 -14 49 -23q5 -3 36 -22v-16q-35 -16 -73 -38q-51 -21 -82 -46 l-36 -29l-30 -23l-68 -61q-54 -58 -105 -133q-24 -33 -49 -74.5t-50 -88.5h-10v211h-358z" />
<glyph unicode="&#xd6;" horiz-adv-x="779" d="M35 -61v1049h233v274l475 -798l-475 -797v272h-233z" />
<glyph unicode="&#xd7;" horiz-adv-x="1631" d="M35 464q0 77 47 122q47 42 138 41l807 -3l-154 148l-19 33l-12 35l-5 31q-2 7 -2 20q0 17 12 45q17 31 42.5 54t57 40.5t59.5 17.5q40 0 71 -23q17 -10 32 -23.5t38 -35.5l448 -502l-448 -502q-30 -33 -72 -58l-69 -17q-5 -2 -18 -2q-21 0 -45 10q-17 12 -26 20 q-16 12 -28 26q-24 28 -38 59q-3 7 -8 25.5t-6 32.5q0 23 15 58t53 72l122 119l-800 -7q-78 0 -140 38q-52 37 -52 126z" />
<glyph unicode="&#xd8;" horiz-adv-x="1640" d="M35 345v241h1117l-441 427h349l545 -549l-545 -546h-349l441 427h-1117z" />
<glyph unicode="&#xd9;" horiz-adv-x="1552" d="M35 113h765v-247l662 662l-662 666v-246h-765q0 80 50 136q30 31 59 52t74 44q89 47 209 69t241 22q173 0 326 -50.5t270 -146.5q110 -87 186 -232q68 -139 68 -314q0 -171 -70.5 -310.5t-184.5 -232.5t-266 -145.5t-329 -52.5h-34q-17 0 -38 1t-56 6l-109 16 q-37 7 -65 15.5t-46 14t-42 15t-57 25.5q-42 23 -72 43.5t-58 50.5q-56 52 -56 139z" />
<glyph unicode="&#xf1;" horiz-adv-x="1690" d="M35 56h50l16 -25l18 25h26l54 52h54v54l29 31h53v53h29l138 139v32h56v48l28 28h55l27 32h59v82l78 81h28l28 27h47l28 -27l112 -163v-277h-30l-82 -79l56 -61h59l82 85h84v53h83l54 56h61v57h53v139l-30 30v54l-23 28v54h-61v30l-54 54h-29l-25 26l-251 169h-113 l-108 -112h-26l-108 -111h-58l-111 -110h-27l-27 -28h-25l-85 -84h-28l-26 -27h-56v-51h-30l-52 -59h-30l-50 -28v995h1623v-1680h-1623v408z" />
<glyph unicode="&#x152;" horiz-adv-x="725" d="M35 927l5 19q21 0 33 -3q19 0 39 -9q16 -3 43 -26q28 -16 58 -54l7 -10q3 -2 7 -13l33 -59l22 -33l40 -77q3 -10 10.5 -22.5t21.5 -25.5l22 -32l18 -19l5 -12q3 -5 6 -10.5t6 -12.5l21 -35l9 -12l5 -10l52 -77l34 43l19 55l24 48h12h28l23 -7l40 -28l7 -17l3 -23 q0 -26 -3 -33q0 -28 -7 -42l-68 -170l-19 -2q-9 0 -23 -7l-33 -7q-23 3 -35 7.5t-22 16.5q-19 23 -32 49l-42 75l-57 103l-40 68l-14 23q-3 9 -9 12l-24 40l-47 73l-33 56l-61 92l-11 14q-3 10 -7 14l-23 24z" />
<glyph unicode="&#x153;" horiz-adv-x="1139" d="M35 -40l26 54q7 19 38 66l37 54l49 73l56 75q5 7 34.5 46.5t39.5 53.5l79 104l68 82l-153 445l24 45l28 12l12 -5l21 -14l14 16l16 -7l31 31l33 -9l152 -303l301 356h28l44 -30l47 40l10 -29l35 -49l-45 -60l-94 -113q-45 -52 -98 -127l-129 -181l193 -431l-24 -21v-14 l-40 -31l14 -30q-2 -7 -28 -33q-16 -10 -35 -14q-5 2 -11 5.5t-19 13t-22 21.5q-16 23 -24 37l-89 145l-81 136l-179 -265q-2 -5 -35 -60l-59 -97l-58 -100l-31 -54l-35 -12l-80 -10l-40 55l-16 46l16 56z" />
<glyph unicode="&#x178;" horiz-adv-x="1253" d="M35 5v249h36l14 -15l9 15h19l47 41h33v40l21 19h40v43h21l101 98v24h41v37l17 19h44l20 23h41v57l59 60h17l23 22h37l20 -22l79 -117v-199h-18l-61 -64l37 -40h47l61 59h59v43h61l40 40h39v39h40v106l-19 19v40l-21 18v43h-39v23l-40 37h-24l-21 19l-181 120h-80l-79 -80 h-21l-76 -82h-44l-80 -80h-19l-20 -18h-17l-64 -59h-21l-20 -24h-38v-35h-23l-43 -42h-18l-36 -23v724h1183v-1177h-1183z" />
<glyph unicode="&#x2c6;" horiz-adv-x="0" />
<glyph unicode="&#x2dc;" horiz-adv-x="533" d="M-183 1299q37 38 66 67q37 35 75 65q75 59 152 59q30 0 71.5 -10.5t102.5 -34.5q122 -42 183 -42q42 0 87 26q19 10 39.5 27t39.5 36q10 -23 38 -49l49 -40q-37 -40 -68.5 -70.5t-72.5 -61.5q-75 -59 -152 -60q-54 0 -171.5 44t-184.5 44q-45 0 -88 -28q-45 -23 -77 -61 q-10 19 -40 48z" />
<glyph unicode="&#x2000;" horiz-adv-x="778" />
<glyph unicode="&#x2001;" horiz-adv-x="1556" />
<glyph unicode="&#x2002;" horiz-adv-x="778" />
<glyph unicode="&#x2003;" horiz-adv-x="1556" />
<glyph unicode="&#x2004;" horiz-adv-x="518" />
<glyph unicode="&#x2005;" horiz-adv-x="389" />
<glyph unicode="&#x2006;" horiz-adv-x="259" />
<glyph unicode="&#x2007;" horiz-adv-x="259" />
<glyph unicode="&#x2008;" horiz-adv-x="194" />
<glyph unicode="&#x2009;" horiz-adv-x="311" />
<glyph unicode="&#x200a;" horiz-adv-x="86" />
<glyph unicode="&#x2010;" horiz-adv-x="888" d="M96 453q30 47 52 96q9 16 19.5 40.5t20.5 55.5l605 2q-28 -45 -50 -96q-16 -31 -24 -48.5t-17 -47.5z" />
<glyph unicode="&#x2011;" horiz-adv-x="888" d="M96 453q30 47 52 96q9 16 19.5 40.5t20.5 55.5l605 2q-28 -45 -50 -96q-16 -31 -24 -48.5t-17 -47.5z" />
<glyph unicode="&#x2012;" horiz-adv-x="888" d="M96 453q30 47 52 96q9 16 19.5 40.5t20.5 55.5l605 2q-28 -45 -50 -96q-16 -31 -24 -48.5t-17 -47.5z" />
<glyph unicode="&#x2013;" horiz-adv-x="958" d="M-92 453q30 47 52 96q9 16 19.5 40.5t20.5 55.5h443l608 2q-19 -31 -29.5 -50.5t-22.5 -45.5q-21 -44 -40 -96h-443z" />
<glyph unicode="&#x2014;" horiz-adv-x="1917" d="M-42 453q30 47 53.5 97.5t25.5 54.5q11 28 14 40h1309l603 2q-28 -45 -51 -96q-16 -31 -23.5 -48.5t-16.5 -47.5h-1311z" />
<glyph unicode="&#x2018;" horiz-adv-x="674" d="M134 657q0 209 87.5 419t196.5 306l135 -77q-31 -99 -49 -175.5t-18 -136.5l-5 -291z" />
<glyph unicode="&#x2019;" horiz-adv-x="674" d="M120 739q30 92 45.5 168t22.5 144q0 52 4.5 156.5t4.5 136.5l342 42q0 -214 -86.5 -418.5t-198.5 -305.5z" />
<glyph unicode="&#x201a;" horiz-adv-x="674" d="M120 -342q30 92 45.5 169t22.5 143q0 52 4.5 157t4.5 138l342 42q0 -108 -21 -212t-67 -208q-85 -200 -197 -305z" />
<glyph unicode="&#x201c;" horiz-adv-x="958" d="M23 657q0 209 87 419t197 306l134 -77q-33 -106 -49 -177.5t-16 -134.5q0 -42 -3 -153t-3 -138zM521 657q0 209 87 419t197 306l134 -77q-33 -106 -48.5 -177.5t-15.5 -134.5q0 -42 -3.5 -153t-3.5 -138z" />
<glyph unicode="&#x201d;" horiz-adv-x="958" d="M14 739q31 98 48.5 175.5t17.5 136.5q0 64 2 99q9 176 9 194l341 42q0 -211 -88 -418.5t-196 -305.5zM512 739q31 98 49 175.5t18 136.5q0 64 1 99q9 176 9 194l342 42q0 -211 -88 -418.5t-196 -305.5z" />
<glyph unicode="&#x201e;" horiz-adv-x="958" d="M14 -342q30 98 48 176.5t18 135.5q0 64 2 100q9 178 9 195l341 42q0 -213 -87 -418.5t-197 -306.5zM512 -342q30 98 48.5 176.5t18.5 135.5q0 64 1 100q9 178 9 195l342 42q0 -213 -87.5 -418.5t-196.5 -306.5z" />
<glyph unicode="&#x2022;" horiz-adv-x="671" d="M103 673q0 99 70.5 168t164.5 69q99 0 169 -71.5t70 -165.5q0 -96 -70 -169q-73 -70 -169 -70t-165.5 70.5t-69.5 168.5z" />
<glyph unicode="&#x2026;" horiz-adv-x="725" d="M35 448q-5 24 17 57l37 28l24 7h21h21l19 -48l7 -28l12 -25l34 -45l52 77l35 57l21 35l10 12l4 7q10 24 29 45l35 60l68 110l7 17q2 5 3.5 8.5t6.5 8.5l14 23q23 42 75 68q58 24 98 24l3 -19l-40 -56l-22 -24l-80 -120l-32 -56l-50 -73l-86 -143l-80 -148l-31 -53 l-28 -36q-2 -3 -49 -14q-30 0 -58 14h-12l-5 2l-40 99l-23 71z" />
<glyph unicode="&#x202f;" horiz-adv-x="311" />
<glyph unicode="&#x2039;" horiz-adv-x="0" />
<glyph unicode="&#x203a;" horiz-adv-x="0" />
<glyph unicode="&#x205f;" horiz-adv-x="389" />
<glyph unicode="&#x2122;" horiz-adv-x="1068" d="M40 1260v94h371v-94h-31q0 26 -15.5 47t-43.5 21h-63v-340q0 -28 5 -35t49 -12v-19h-173v19q38 0 47 9.5t9 37.5v340h-66q-23 0 -40.5 -20t-17.5 -48h-31zM469 922v19q35 0 43.5 12.5t8.5 34.5v298q0 26 -8.5 36.5t-43.5 10.5v21h103l174 -348l173 348h99v-21 q-35 0 -47 -8q-7 -10 -7 -39v-298q0 -26 6 -34t48 -13v-19h-167v19q35 0 43.5 12.5t8.5 34.5v267l-167 -333h-16l-167 333v-267q0 -28 6 -35t49 -12v-19h-139z" />
<glyph unicode="&#x25fc;" horiz-adv-x="1063" d="M0 0v1063h1063v-1063h-1063z" />
</font>
</defs>
</svg>
